G04 EAGLE Gerber RS-274X export*
G75*
%MOMM*%
%FSLAX34Y34*%
%LPD*%
%INSilkscreen Top*%
%IPPOS*%
%AMOC8*
5,1,8,0,0,1.08239X$1,22.5*%
G01*
%ADD10C,0.152400*%
%ADD11C,0.279400*%
%ADD12C,2.133600*%
%ADD13C,0.254000*%


D10*
X33387Y217932D02*
X26162Y217932D01*
X26162Y234188D01*
X33387Y234188D01*
X31581Y226963D02*
X26162Y226963D01*
X39818Y228769D02*
X39818Y217932D01*
X39818Y228769D02*
X47946Y228769D01*
X48047Y228767D01*
X48148Y228761D01*
X48249Y228752D01*
X48350Y228739D01*
X48450Y228722D01*
X48549Y228701D01*
X48647Y228677D01*
X48744Y228649D01*
X48841Y228617D01*
X48936Y228582D01*
X49029Y228543D01*
X49121Y228501D01*
X49212Y228455D01*
X49301Y228406D01*
X49387Y228354D01*
X49472Y228298D01*
X49555Y228240D01*
X49635Y228178D01*
X49713Y228113D01*
X49789Y228046D01*
X49862Y227976D01*
X49932Y227903D01*
X49999Y227827D01*
X50064Y227749D01*
X50126Y227669D01*
X50184Y227586D01*
X50240Y227501D01*
X50292Y227415D01*
X50341Y227326D01*
X50387Y227235D01*
X50429Y227143D01*
X50468Y227050D01*
X50503Y226955D01*
X50535Y226858D01*
X50563Y226761D01*
X50587Y226663D01*
X50608Y226564D01*
X50625Y226464D01*
X50638Y226363D01*
X50647Y226262D01*
X50653Y226161D01*
X50655Y226060D01*
X50656Y226060D02*
X50656Y217932D01*
X45237Y217932D02*
X45237Y228769D01*
X58371Y234188D02*
X58371Y217932D01*
X62887Y217932D01*
X62991Y217934D01*
X63094Y217940D01*
X63198Y217950D01*
X63301Y217964D01*
X63403Y217982D01*
X63504Y218003D01*
X63605Y218029D01*
X63704Y218058D01*
X63803Y218091D01*
X63900Y218128D01*
X63995Y218169D01*
X64089Y218213D01*
X64181Y218261D01*
X64271Y218312D01*
X64360Y218367D01*
X64446Y218425D01*
X64529Y218487D01*
X64611Y218551D01*
X64689Y218619D01*
X64765Y218689D01*
X64839Y218762D01*
X64909Y218839D01*
X64977Y218917D01*
X65041Y218999D01*
X65103Y219082D01*
X65161Y219168D01*
X65216Y219257D01*
X65267Y219347D01*
X65315Y219439D01*
X65359Y219533D01*
X65400Y219628D01*
X65437Y219725D01*
X65470Y219824D01*
X65499Y219923D01*
X65525Y220024D01*
X65546Y220125D01*
X65564Y220227D01*
X65578Y220330D01*
X65588Y220434D01*
X65594Y220537D01*
X65596Y220641D01*
X65596Y226060D01*
X65594Y226161D01*
X65588Y226262D01*
X65579Y226363D01*
X65566Y226464D01*
X65549Y226564D01*
X65528Y226663D01*
X65504Y226761D01*
X65476Y226858D01*
X65444Y226955D01*
X65409Y227050D01*
X65370Y227143D01*
X65328Y227235D01*
X65282Y227326D01*
X65233Y227415D01*
X65181Y227501D01*
X65125Y227586D01*
X65067Y227669D01*
X65005Y227749D01*
X64940Y227827D01*
X64873Y227903D01*
X64803Y227976D01*
X64730Y228046D01*
X64654Y228113D01*
X64576Y228178D01*
X64496Y228240D01*
X64413Y228298D01*
X64328Y228354D01*
X64242Y228406D01*
X64153Y228455D01*
X64062Y228501D01*
X63970Y228543D01*
X63877Y228582D01*
X63782Y228617D01*
X63685Y228649D01*
X63588Y228677D01*
X63490Y228701D01*
X63391Y228722D01*
X63291Y228739D01*
X63190Y228752D01*
X63089Y228761D01*
X62988Y228767D01*
X62887Y228769D01*
X58371Y228769D01*
X74554Y217932D02*
X79070Y217932D01*
X74554Y217932D02*
X74453Y217934D01*
X74352Y217940D01*
X74251Y217949D01*
X74150Y217962D01*
X74050Y217979D01*
X73951Y218000D01*
X73853Y218024D01*
X73756Y218052D01*
X73659Y218084D01*
X73564Y218119D01*
X73471Y218158D01*
X73379Y218200D01*
X73288Y218246D01*
X73200Y218295D01*
X73113Y218347D01*
X73028Y218403D01*
X72945Y218461D01*
X72865Y218523D01*
X72787Y218588D01*
X72711Y218655D01*
X72638Y218725D01*
X72568Y218798D01*
X72501Y218874D01*
X72436Y218952D01*
X72374Y219032D01*
X72316Y219115D01*
X72260Y219200D01*
X72208Y219287D01*
X72159Y219375D01*
X72113Y219466D01*
X72071Y219558D01*
X72032Y219651D01*
X71997Y219746D01*
X71965Y219843D01*
X71937Y219940D01*
X71913Y220038D01*
X71892Y220137D01*
X71875Y220237D01*
X71862Y220338D01*
X71853Y220439D01*
X71847Y220540D01*
X71845Y220641D01*
X71845Y225157D01*
X71847Y225276D01*
X71853Y225396D01*
X71863Y225515D01*
X71877Y225633D01*
X71894Y225752D01*
X71916Y225869D01*
X71941Y225986D01*
X71971Y226101D01*
X72004Y226216D01*
X72041Y226330D01*
X72081Y226442D01*
X72126Y226553D01*
X72174Y226662D01*
X72225Y226770D01*
X72280Y226876D01*
X72339Y226980D01*
X72401Y227082D01*
X72466Y227182D01*
X72535Y227280D01*
X72607Y227376D01*
X72682Y227469D01*
X72759Y227559D01*
X72840Y227647D01*
X72924Y227732D01*
X73011Y227814D01*
X73100Y227894D01*
X73192Y227970D01*
X73286Y228044D01*
X73383Y228114D01*
X73481Y228181D01*
X73582Y228245D01*
X73686Y228305D01*
X73791Y228362D01*
X73898Y228415D01*
X74006Y228465D01*
X74116Y228511D01*
X74228Y228553D01*
X74341Y228592D01*
X74455Y228627D01*
X74570Y228658D01*
X74687Y228686D01*
X74804Y228709D01*
X74921Y228729D01*
X75040Y228745D01*
X75159Y228757D01*
X75278Y228765D01*
X75397Y228769D01*
X75517Y228769D01*
X75636Y228765D01*
X75755Y228757D01*
X75874Y228745D01*
X75993Y228729D01*
X76110Y228709D01*
X76227Y228686D01*
X76344Y228658D01*
X76459Y228627D01*
X76573Y228592D01*
X76686Y228553D01*
X76798Y228511D01*
X76908Y228465D01*
X77016Y228415D01*
X77123Y228362D01*
X77228Y228305D01*
X77332Y228245D01*
X77433Y228181D01*
X77531Y228114D01*
X77628Y228044D01*
X77722Y227970D01*
X77814Y227894D01*
X77903Y227814D01*
X77990Y227732D01*
X78074Y227647D01*
X78155Y227559D01*
X78232Y227469D01*
X78307Y227376D01*
X78379Y227280D01*
X78448Y227182D01*
X78513Y227082D01*
X78575Y226980D01*
X78634Y226876D01*
X78689Y226770D01*
X78740Y226662D01*
X78788Y226553D01*
X78833Y226442D01*
X78873Y226330D01*
X78910Y226216D01*
X78943Y226101D01*
X78973Y225986D01*
X78998Y225869D01*
X79020Y225752D01*
X79037Y225633D01*
X79051Y225515D01*
X79061Y225396D01*
X79067Y225276D01*
X79069Y225157D01*
X79070Y225157D02*
X79070Y223351D01*
X71845Y223351D01*
X92544Y217932D02*
X92544Y234188D01*
X92544Y217932D02*
X88028Y217932D01*
X87927Y217934D01*
X87826Y217940D01*
X87725Y217949D01*
X87624Y217962D01*
X87524Y217979D01*
X87425Y218000D01*
X87327Y218024D01*
X87230Y218052D01*
X87133Y218084D01*
X87038Y218119D01*
X86945Y218158D01*
X86853Y218200D01*
X86762Y218246D01*
X86674Y218295D01*
X86587Y218347D01*
X86502Y218403D01*
X86419Y218461D01*
X86339Y218523D01*
X86261Y218588D01*
X86185Y218655D01*
X86112Y218725D01*
X86042Y218798D01*
X85975Y218874D01*
X85910Y218952D01*
X85848Y219032D01*
X85790Y219115D01*
X85734Y219200D01*
X85682Y219287D01*
X85633Y219375D01*
X85587Y219466D01*
X85545Y219558D01*
X85506Y219651D01*
X85471Y219746D01*
X85439Y219843D01*
X85411Y219940D01*
X85387Y220038D01*
X85366Y220137D01*
X85349Y220237D01*
X85336Y220338D01*
X85327Y220439D01*
X85321Y220540D01*
X85319Y220641D01*
X85319Y226060D01*
X85321Y226161D01*
X85327Y226262D01*
X85336Y226363D01*
X85349Y226464D01*
X85366Y226564D01*
X85387Y226663D01*
X85411Y226761D01*
X85439Y226858D01*
X85471Y226955D01*
X85506Y227050D01*
X85545Y227143D01*
X85587Y227235D01*
X85633Y227326D01*
X85682Y227415D01*
X85734Y227501D01*
X85790Y227586D01*
X85848Y227669D01*
X85910Y227749D01*
X85975Y227827D01*
X86042Y227903D01*
X86112Y227976D01*
X86185Y228046D01*
X86261Y228113D01*
X86339Y228178D01*
X86419Y228240D01*
X86502Y228298D01*
X86587Y228354D01*
X86674Y228406D01*
X86762Y228455D01*
X86853Y228501D01*
X86945Y228543D01*
X87038Y228582D01*
X87133Y228617D01*
X87230Y228649D01*
X87327Y228677D01*
X87425Y228701D01*
X87524Y228722D01*
X87624Y228739D01*
X87725Y228752D01*
X87826Y228761D01*
X87927Y228767D01*
X88028Y228769D01*
X92544Y228769D01*
X106612Y234188D02*
X106612Y217932D01*
X102096Y217932D01*
X101995Y217934D01*
X101894Y217940D01*
X101793Y217949D01*
X101692Y217962D01*
X101592Y217979D01*
X101493Y218000D01*
X101395Y218024D01*
X101298Y218052D01*
X101201Y218084D01*
X101106Y218119D01*
X101013Y218158D01*
X100921Y218200D01*
X100830Y218246D01*
X100742Y218295D01*
X100655Y218347D01*
X100570Y218403D01*
X100487Y218461D01*
X100407Y218523D01*
X100329Y218588D01*
X100253Y218655D01*
X100180Y218725D01*
X100110Y218798D01*
X100043Y218874D01*
X99978Y218952D01*
X99916Y219032D01*
X99858Y219115D01*
X99802Y219200D01*
X99750Y219287D01*
X99701Y219375D01*
X99655Y219466D01*
X99613Y219558D01*
X99574Y219651D01*
X99539Y219746D01*
X99507Y219843D01*
X99479Y219940D01*
X99455Y220038D01*
X99434Y220137D01*
X99417Y220237D01*
X99404Y220338D01*
X99395Y220439D01*
X99389Y220540D01*
X99387Y220641D01*
X99387Y226060D01*
X99389Y226161D01*
X99395Y226262D01*
X99404Y226363D01*
X99417Y226464D01*
X99434Y226564D01*
X99455Y226663D01*
X99479Y226761D01*
X99507Y226858D01*
X99539Y226955D01*
X99574Y227050D01*
X99613Y227143D01*
X99655Y227235D01*
X99701Y227326D01*
X99750Y227415D01*
X99802Y227501D01*
X99858Y227586D01*
X99916Y227669D01*
X99978Y227749D01*
X100043Y227827D01*
X100110Y227903D01*
X100180Y227976D01*
X100253Y228046D01*
X100329Y228113D01*
X100407Y228178D01*
X100487Y228240D01*
X100570Y228298D01*
X100655Y228354D01*
X100742Y228406D01*
X100830Y228455D01*
X100921Y228501D01*
X101013Y228543D01*
X101106Y228582D01*
X101201Y228617D01*
X101298Y228649D01*
X101395Y228677D01*
X101493Y228701D01*
X101592Y228722D01*
X101692Y228739D01*
X101793Y228752D01*
X101894Y228761D01*
X101995Y228767D01*
X102096Y228769D01*
X106612Y228769D01*
X116237Y217932D02*
X120753Y217932D01*
X116237Y217932D02*
X116136Y217934D01*
X116035Y217940D01*
X115934Y217949D01*
X115833Y217962D01*
X115733Y217979D01*
X115634Y218000D01*
X115536Y218024D01*
X115439Y218052D01*
X115342Y218084D01*
X115247Y218119D01*
X115154Y218158D01*
X115062Y218200D01*
X114971Y218246D01*
X114883Y218295D01*
X114796Y218347D01*
X114711Y218403D01*
X114628Y218461D01*
X114548Y218523D01*
X114470Y218588D01*
X114394Y218655D01*
X114321Y218725D01*
X114251Y218798D01*
X114184Y218874D01*
X114119Y218952D01*
X114057Y219032D01*
X113999Y219115D01*
X113943Y219200D01*
X113891Y219287D01*
X113842Y219375D01*
X113796Y219466D01*
X113754Y219558D01*
X113715Y219651D01*
X113680Y219746D01*
X113648Y219843D01*
X113620Y219940D01*
X113596Y220038D01*
X113575Y220137D01*
X113558Y220237D01*
X113545Y220338D01*
X113536Y220439D01*
X113530Y220540D01*
X113528Y220641D01*
X113528Y225157D01*
X113529Y225157D02*
X113531Y225276D01*
X113537Y225396D01*
X113547Y225515D01*
X113561Y225633D01*
X113578Y225752D01*
X113600Y225869D01*
X113625Y225986D01*
X113655Y226101D01*
X113688Y226216D01*
X113725Y226330D01*
X113765Y226442D01*
X113810Y226553D01*
X113858Y226662D01*
X113909Y226770D01*
X113964Y226876D01*
X114023Y226980D01*
X114085Y227082D01*
X114150Y227182D01*
X114219Y227280D01*
X114291Y227376D01*
X114366Y227469D01*
X114443Y227559D01*
X114524Y227647D01*
X114608Y227732D01*
X114695Y227814D01*
X114784Y227894D01*
X114876Y227970D01*
X114970Y228044D01*
X115067Y228114D01*
X115165Y228181D01*
X115266Y228245D01*
X115370Y228305D01*
X115475Y228362D01*
X115582Y228415D01*
X115690Y228465D01*
X115800Y228511D01*
X115912Y228553D01*
X116025Y228592D01*
X116139Y228627D01*
X116254Y228658D01*
X116371Y228686D01*
X116488Y228709D01*
X116605Y228729D01*
X116724Y228745D01*
X116843Y228757D01*
X116962Y228765D01*
X117081Y228769D01*
X117201Y228769D01*
X117320Y228765D01*
X117439Y228757D01*
X117558Y228745D01*
X117677Y228729D01*
X117794Y228709D01*
X117911Y228686D01*
X118028Y228658D01*
X118143Y228627D01*
X118257Y228592D01*
X118370Y228553D01*
X118482Y228511D01*
X118592Y228465D01*
X118700Y228415D01*
X118807Y228362D01*
X118912Y228305D01*
X119016Y228245D01*
X119117Y228181D01*
X119215Y228114D01*
X119312Y228044D01*
X119406Y227970D01*
X119498Y227894D01*
X119587Y227814D01*
X119674Y227732D01*
X119758Y227647D01*
X119839Y227559D01*
X119916Y227469D01*
X119991Y227376D01*
X120063Y227280D01*
X120132Y227182D01*
X120197Y227082D01*
X120259Y226980D01*
X120318Y226876D01*
X120373Y226770D01*
X120424Y226662D01*
X120472Y226553D01*
X120517Y226442D01*
X120557Y226330D01*
X120594Y226216D01*
X120627Y226101D01*
X120657Y225986D01*
X120682Y225869D01*
X120704Y225752D01*
X120721Y225633D01*
X120735Y225515D01*
X120745Y225396D01*
X120751Y225276D01*
X120753Y225157D01*
X120753Y223351D01*
X113528Y223351D01*
X134227Y217932D02*
X134227Y234188D01*
X134227Y217932D02*
X129711Y217932D01*
X129610Y217934D01*
X129509Y217940D01*
X129408Y217949D01*
X129307Y217962D01*
X129207Y217979D01*
X129108Y218000D01*
X129010Y218024D01*
X128913Y218052D01*
X128816Y218084D01*
X128721Y218119D01*
X128628Y218158D01*
X128536Y218200D01*
X128445Y218246D01*
X128357Y218295D01*
X128270Y218347D01*
X128185Y218403D01*
X128102Y218461D01*
X128022Y218523D01*
X127944Y218588D01*
X127868Y218655D01*
X127795Y218725D01*
X127725Y218798D01*
X127658Y218874D01*
X127593Y218952D01*
X127531Y219032D01*
X127473Y219115D01*
X127417Y219200D01*
X127365Y219287D01*
X127316Y219375D01*
X127270Y219466D01*
X127228Y219558D01*
X127189Y219651D01*
X127154Y219746D01*
X127122Y219843D01*
X127094Y219940D01*
X127070Y220038D01*
X127049Y220137D01*
X127032Y220237D01*
X127019Y220338D01*
X127010Y220439D01*
X127004Y220540D01*
X127002Y220641D01*
X127002Y226060D01*
X127004Y226161D01*
X127010Y226262D01*
X127019Y226363D01*
X127032Y226464D01*
X127049Y226564D01*
X127070Y226663D01*
X127094Y226761D01*
X127122Y226858D01*
X127154Y226955D01*
X127189Y227050D01*
X127228Y227143D01*
X127270Y227235D01*
X127316Y227326D01*
X127365Y227415D01*
X127417Y227501D01*
X127473Y227586D01*
X127531Y227669D01*
X127593Y227749D01*
X127658Y227827D01*
X127725Y227903D01*
X127795Y227976D01*
X127868Y228046D01*
X127944Y228113D01*
X128022Y228178D01*
X128102Y228240D01*
X128185Y228298D01*
X128270Y228354D01*
X128357Y228406D01*
X128445Y228455D01*
X128536Y228501D01*
X128628Y228543D01*
X128721Y228582D01*
X128816Y228617D01*
X128913Y228649D01*
X129010Y228677D01*
X129108Y228701D01*
X129207Y228722D01*
X129307Y228739D01*
X129408Y228752D01*
X129509Y228761D01*
X129610Y228767D01*
X129711Y228769D01*
X134227Y228769D01*
X150170Y234188D02*
X150170Y217932D01*
X150170Y234188D02*
X157395Y234188D01*
X157395Y226963D02*
X150170Y226963D01*
X162992Y228769D02*
X162992Y217932D01*
X162541Y233285D02*
X162541Y234188D01*
X163444Y234188D01*
X163444Y233285D01*
X162541Y233285D01*
X169885Y228769D02*
X169885Y217932D01*
X169885Y228769D02*
X175304Y228769D01*
X175304Y226963D01*
X181020Y228769D02*
X181020Y217932D01*
X181020Y228769D02*
X189148Y228769D01*
X189249Y228767D01*
X189350Y228761D01*
X189451Y228752D01*
X189552Y228739D01*
X189652Y228722D01*
X189751Y228701D01*
X189849Y228677D01*
X189946Y228649D01*
X190043Y228617D01*
X190138Y228582D01*
X190231Y228543D01*
X190323Y228501D01*
X190414Y228455D01*
X190503Y228406D01*
X190589Y228354D01*
X190674Y228298D01*
X190757Y228240D01*
X190837Y228178D01*
X190915Y228113D01*
X190991Y228046D01*
X191064Y227976D01*
X191134Y227903D01*
X191201Y227827D01*
X191266Y227749D01*
X191328Y227669D01*
X191386Y227586D01*
X191442Y227501D01*
X191494Y227415D01*
X191543Y227326D01*
X191589Y227235D01*
X191631Y227143D01*
X191670Y227050D01*
X191705Y226955D01*
X191737Y226858D01*
X191765Y226761D01*
X191789Y226663D01*
X191810Y226564D01*
X191827Y226464D01*
X191840Y226363D01*
X191849Y226262D01*
X191855Y226161D01*
X191857Y226060D01*
X191858Y226060D02*
X191858Y217932D01*
X186439Y217932D02*
X186439Y228769D01*
X198736Y228769D02*
X201445Y217932D01*
X204154Y225157D01*
X206864Y217932D01*
X209573Y228769D01*
X218740Y224254D02*
X222804Y224254D01*
X218740Y224254D02*
X218628Y224252D01*
X218517Y224246D01*
X218406Y224236D01*
X218295Y224223D01*
X218185Y224205D01*
X218076Y224183D01*
X217967Y224158D01*
X217859Y224129D01*
X217753Y224096D01*
X217647Y224059D01*
X217543Y224019D01*
X217441Y223975D01*
X217340Y223927D01*
X217241Y223876D01*
X217143Y223821D01*
X217048Y223763D01*
X216955Y223702D01*
X216864Y223637D01*
X216775Y223569D01*
X216689Y223498D01*
X216606Y223425D01*
X216525Y223348D01*
X216446Y223268D01*
X216371Y223186D01*
X216299Y223101D01*
X216229Y223014D01*
X216163Y222924D01*
X216100Y222832D01*
X216040Y222737D01*
X215984Y222641D01*
X215931Y222543D01*
X215882Y222443D01*
X215836Y222341D01*
X215794Y222238D01*
X215755Y222133D01*
X215720Y222027D01*
X215689Y221920D01*
X215662Y221812D01*
X215638Y221703D01*
X215619Y221593D01*
X215603Y221483D01*
X215591Y221372D01*
X215583Y221260D01*
X215579Y221149D01*
X215579Y221037D01*
X215583Y220926D01*
X215591Y220814D01*
X215603Y220703D01*
X215619Y220593D01*
X215638Y220483D01*
X215662Y220374D01*
X215689Y220266D01*
X215720Y220159D01*
X215755Y220053D01*
X215794Y219948D01*
X215836Y219845D01*
X215882Y219743D01*
X215931Y219643D01*
X215984Y219545D01*
X216040Y219449D01*
X216100Y219354D01*
X216163Y219262D01*
X216229Y219172D01*
X216299Y219085D01*
X216371Y219000D01*
X216446Y218918D01*
X216525Y218838D01*
X216606Y218761D01*
X216689Y218688D01*
X216775Y218617D01*
X216864Y218549D01*
X216955Y218484D01*
X217048Y218423D01*
X217143Y218365D01*
X217241Y218310D01*
X217340Y218259D01*
X217441Y218211D01*
X217543Y218167D01*
X217647Y218127D01*
X217753Y218090D01*
X217859Y218057D01*
X217967Y218028D01*
X218076Y218003D01*
X218185Y217981D01*
X218295Y217963D01*
X218406Y217950D01*
X218517Y217940D01*
X218628Y217934D01*
X218740Y217932D01*
X222804Y217932D01*
X222804Y226060D01*
X222803Y226060D02*
X222801Y226161D01*
X222795Y226262D01*
X222786Y226363D01*
X222773Y226464D01*
X222756Y226564D01*
X222735Y226663D01*
X222711Y226761D01*
X222683Y226858D01*
X222651Y226955D01*
X222616Y227050D01*
X222577Y227143D01*
X222535Y227235D01*
X222489Y227326D01*
X222440Y227415D01*
X222388Y227501D01*
X222332Y227586D01*
X222274Y227669D01*
X222212Y227749D01*
X222147Y227827D01*
X222080Y227903D01*
X222010Y227976D01*
X221937Y228046D01*
X221861Y228113D01*
X221783Y228178D01*
X221703Y228240D01*
X221620Y228298D01*
X221535Y228354D01*
X221449Y228406D01*
X221360Y228455D01*
X221269Y228501D01*
X221177Y228543D01*
X221084Y228582D01*
X220989Y228617D01*
X220892Y228649D01*
X220795Y228677D01*
X220697Y228701D01*
X220598Y228722D01*
X220498Y228739D01*
X220397Y228752D01*
X220296Y228761D01*
X220195Y228767D01*
X220094Y228769D01*
X216482Y228769D01*
X230326Y228769D02*
X230326Y217932D01*
X230326Y228769D02*
X235745Y228769D01*
X235745Y226963D01*
X243371Y217932D02*
X247887Y217932D01*
X243371Y217932D02*
X243270Y217934D01*
X243169Y217940D01*
X243068Y217949D01*
X242967Y217962D01*
X242867Y217979D01*
X242768Y218000D01*
X242670Y218024D01*
X242573Y218052D01*
X242476Y218084D01*
X242381Y218119D01*
X242288Y218158D01*
X242196Y218200D01*
X242105Y218246D01*
X242017Y218295D01*
X241930Y218347D01*
X241845Y218403D01*
X241762Y218461D01*
X241682Y218523D01*
X241604Y218588D01*
X241528Y218655D01*
X241455Y218725D01*
X241385Y218798D01*
X241318Y218874D01*
X241253Y218952D01*
X241191Y219032D01*
X241133Y219115D01*
X241077Y219200D01*
X241025Y219287D01*
X240976Y219375D01*
X240930Y219466D01*
X240888Y219558D01*
X240849Y219651D01*
X240814Y219746D01*
X240782Y219843D01*
X240754Y219940D01*
X240730Y220038D01*
X240709Y220137D01*
X240692Y220237D01*
X240679Y220338D01*
X240670Y220439D01*
X240664Y220540D01*
X240662Y220641D01*
X240662Y225157D01*
X240664Y225276D01*
X240670Y225396D01*
X240680Y225515D01*
X240694Y225633D01*
X240711Y225752D01*
X240733Y225869D01*
X240758Y225986D01*
X240788Y226101D01*
X240821Y226216D01*
X240858Y226330D01*
X240898Y226442D01*
X240943Y226553D01*
X240991Y226662D01*
X241042Y226770D01*
X241097Y226876D01*
X241156Y226980D01*
X241218Y227082D01*
X241283Y227182D01*
X241352Y227280D01*
X241424Y227376D01*
X241499Y227469D01*
X241576Y227559D01*
X241657Y227647D01*
X241741Y227732D01*
X241828Y227814D01*
X241917Y227894D01*
X242009Y227970D01*
X242103Y228044D01*
X242200Y228114D01*
X242298Y228181D01*
X242399Y228245D01*
X242503Y228305D01*
X242608Y228362D01*
X242715Y228415D01*
X242823Y228465D01*
X242933Y228511D01*
X243045Y228553D01*
X243158Y228592D01*
X243272Y228627D01*
X243387Y228658D01*
X243504Y228686D01*
X243621Y228709D01*
X243738Y228729D01*
X243857Y228745D01*
X243976Y228757D01*
X244095Y228765D01*
X244214Y228769D01*
X244334Y228769D01*
X244453Y228765D01*
X244572Y228757D01*
X244691Y228745D01*
X244810Y228729D01*
X244927Y228709D01*
X245044Y228686D01*
X245161Y228658D01*
X245276Y228627D01*
X245390Y228592D01*
X245503Y228553D01*
X245615Y228511D01*
X245725Y228465D01*
X245833Y228415D01*
X245940Y228362D01*
X246045Y228305D01*
X246149Y228245D01*
X246250Y228181D01*
X246348Y228114D01*
X246445Y228044D01*
X246539Y227970D01*
X246631Y227894D01*
X246720Y227814D01*
X246807Y227732D01*
X246891Y227647D01*
X246972Y227559D01*
X247049Y227469D01*
X247124Y227376D01*
X247196Y227280D01*
X247265Y227182D01*
X247330Y227082D01*
X247392Y226980D01*
X247451Y226876D01*
X247506Y226770D01*
X247557Y226662D01*
X247605Y226553D01*
X247650Y226442D01*
X247690Y226330D01*
X247727Y226216D01*
X247760Y226101D01*
X247790Y225986D01*
X247815Y225869D01*
X247837Y225752D01*
X247854Y225633D01*
X247868Y225515D01*
X247878Y225396D01*
X247884Y225276D01*
X247886Y225157D01*
X247887Y225157D02*
X247887Y223351D01*
X240662Y223351D01*
X264074Y217932D02*
X264074Y234188D01*
X262268Y217932D02*
X265880Y217932D01*
X265880Y234188D02*
X262268Y234188D01*
X272445Y228769D02*
X272445Y217932D01*
X272445Y228769D02*
X276961Y228769D01*
X277065Y228767D01*
X277168Y228761D01*
X277272Y228751D01*
X277375Y228737D01*
X277477Y228719D01*
X277578Y228698D01*
X277679Y228672D01*
X277778Y228643D01*
X277877Y228610D01*
X277974Y228573D01*
X278069Y228532D01*
X278163Y228488D01*
X278255Y228440D01*
X278345Y228389D01*
X278434Y228334D01*
X278520Y228276D01*
X278603Y228214D01*
X278685Y228150D01*
X278763Y228082D01*
X278839Y228012D01*
X278913Y227939D01*
X278983Y227862D01*
X279051Y227784D01*
X279115Y227702D01*
X279177Y227619D01*
X279235Y227533D01*
X279290Y227444D01*
X279341Y227354D01*
X279389Y227262D01*
X279433Y227168D01*
X279474Y227073D01*
X279511Y226976D01*
X279544Y226877D01*
X279573Y226778D01*
X279599Y226677D01*
X279620Y226576D01*
X279638Y226474D01*
X279652Y226371D01*
X279662Y226267D01*
X279668Y226164D01*
X279670Y226060D01*
X279670Y217932D01*
X285216Y228769D02*
X290635Y228769D01*
X287022Y234188D02*
X287022Y220641D01*
X287023Y220641D02*
X287025Y220540D01*
X287031Y220439D01*
X287040Y220338D01*
X287053Y220237D01*
X287070Y220137D01*
X287091Y220038D01*
X287115Y219940D01*
X287143Y219843D01*
X287175Y219746D01*
X287210Y219651D01*
X287249Y219558D01*
X287291Y219466D01*
X287337Y219375D01*
X287386Y219287D01*
X287438Y219200D01*
X287494Y219115D01*
X287552Y219032D01*
X287614Y218952D01*
X287679Y218874D01*
X287746Y218798D01*
X287816Y218725D01*
X287889Y218655D01*
X287965Y218588D01*
X288043Y218523D01*
X288123Y218461D01*
X288206Y218403D01*
X288291Y218347D01*
X288378Y218295D01*
X288466Y218246D01*
X288557Y218200D01*
X288649Y218158D01*
X288742Y218119D01*
X288837Y218084D01*
X288934Y218052D01*
X289031Y218024D01*
X289129Y218000D01*
X289228Y217979D01*
X289328Y217962D01*
X289429Y217949D01*
X289530Y217940D01*
X289631Y217934D01*
X289732Y217932D01*
X290635Y217932D01*
X299123Y217932D02*
X303638Y217932D01*
X299123Y217932D02*
X299022Y217934D01*
X298921Y217940D01*
X298820Y217949D01*
X298719Y217962D01*
X298619Y217979D01*
X298520Y218000D01*
X298422Y218024D01*
X298325Y218052D01*
X298228Y218084D01*
X298133Y218119D01*
X298040Y218158D01*
X297948Y218200D01*
X297857Y218246D01*
X297769Y218295D01*
X297682Y218347D01*
X297597Y218403D01*
X297514Y218461D01*
X297434Y218523D01*
X297356Y218588D01*
X297280Y218655D01*
X297207Y218725D01*
X297137Y218798D01*
X297070Y218874D01*
X297005Y218952D01*
X296943Y219032D01*
X296885Y219115D01*
X296829Y219200D01*
X296777Y219287D01*
X296728Y219375D01*
X296682Y219466D01*
X296640Y219558D01*
X296601Y219651D01*
X296566Y219746D01*
X296534Y219843D01*
X296506Y219940D01*
X296482Y220038D01*
X296461Y220137D01*
X296444Y220237D01*
X296431Y220338D01*
X296422Y220439D01*
X296416Y220540D01*
X296414Y220641D01*
X296413Y220641D02*
X296413Y225157D01*
X296414Y225157D02*
X296416Y225276D01*
X296422Y225396D01*
X296432Y225515D01*
X296446Y225633D01*
X296463Y225752D01*
X296485Y225869D01*
X296510Y225986D01*
X296540Y226101D01*
X296573Y226216D01*
X296610Y226330D01*
X296650Y226442D01*
X296695Y226553D01*
X296743Y226662D01*
X296794Y226770D01*
X296849Y226876D01*
X296908Y226980D01*
X296970Y227082D01*
X297035Y227182D01*
X297104Y227280D01*
X297176Y227376D01*
X297251Y227469D01*
X297328Y227559D01*
X297409Y227647D01*
X297493Y227732D01*
X297580Y227814D01*
X297669Y227894D01*
X297761Y227970D01*
X297855Y228044D01*
X297952Y228114D01*
X298050Y228181D01*
X298151Y228245D01*
X298255Y228305D01*
X298360Y228362D01*
X298467Y228415D01*
X298575Y228465D01*
X298685Y228511D01*
X298797Y228553D01*
X298910Y228592D01*
X299024Y228627D01*
X299139Y228658D01*
X299256Y228686D01*
X299373Y228709D01*
X299490Y228729D01*
X299609Y228745D01*
X299728Y228757D01*
X299847Y228765D01*
X299966Y228769D01*
X300086Y228769D01*
X300205Y228765D01*
X300324Y228757D01*
X300443Y228745D01*
X300562Y228729D01*
X300679Y228709D01*
X300796Y228686D01*
X300913Y228658D01*
X301028Y228627D01*
X301142Y228592D01*
X301255Y228553D01*
X301367Y228511D01*
X301477Y228465D01*
X301585Y228415D01*
X301692Y228362D01*
X301797Y228305D01*
X301901Y228245D01*
X302002Y228181D01*
X302100Y228114D01*
X302197Y228044D01*
X302291Y227970D01*
X302383Y227894D01*
X302472Y227814D01*
X302559Y227732D01*
X302643Y227647D01*
X302724Y227559D01*
X302801Y227469D01*
X302876Y227376D01*
X302948Y227280D01*
X303017Y227182D01*
X303082Y227082D01*
X303144Y226980D01*
X303203Y226876D01*
X303258Y226770D01*
X303309Y226662D01*
X303357Y226553D01*
X303402Y226442D01*
X303442Y226330D01*
X303479Y226216D01*
X303512Y226101D01*
X303542Y225986D01*
X303567Y225869D01*
X303589Y225752D01*
X303606Y225633D01*
X303620Y225515D01*
X303630Y225396D01*
X303636Y225276D01*
X303638Y225157D01*
X303638Y223351D01*
X296413Y223351D01*
X310566Y217932D02*
X310566Y228769D01*
X315985Y228769D01*
X315985Y226963D01*
X321423Y228769D02*
X321423Y217932D01*
X321423Y228769D02*
X325939Y228769D01*
X326043Y228767D01*
X326146Y228761D01*
X326250Y228751D01*
X326353Y228737D01*
X326455Y228719D01*
X326556Y228698D01*
X326657Y228672D01*
X326756Y228643D01*
X326855Y228610D01*
X326952Y228573D01*
X327047Y228532D01*
X327141Y228488D01*
X327233Y228440D01*
X327323Y228389D01*
X327412Y228334D01*
X327498Y228276D01*
X327581Y228214D01*
X327663Y228150D01*
X327741Y228082D01*
X327817Y228012D01*
X327891Y227939D01*
X327961Y227862D01*
X328029Y227784D01*
X328093Y227702D01*
X328155Y227619D01*
X328213Y227533D01*
X328268Y227444D01*
X328319Y227354D01*
X328367Y227262D01*
X328411Y227168D01*
X328452Y227073D01*
X328489Y226976D01*
X328522Y226877D01*
X328551Y226778D01*
X328577Y226677D01*
X328598Y226576D01*
X328616Y226474D01*
X328630Y226371D01*
X328640Y226267D01*
X328646Y226164D01*
X328648Y226060D01*
X328648Y217932D01*
X30678Y207518D02*
X30678Y191262D01*
X26162Y207518D02*
X35193Y207518D01*
X41218Y202099D02*
X41218Y191262D01*
X41218Y202099D02*
X46637Y202099D01*
X46637Y200293D01*
X51519Y202099D02*
X51519Y191262D01*
X51068Y206615D02*
X51068Y207518D01*
X51971Y207518D01*
X51971Y206615D01*
X51068Y206615D01*
X58606Y202099D02*
X58606Y191262D01*
X58606Y202099D02*
X66734Y202099D01*
X66835Y202097D01*
X66936Y202091D01*
X67037Y202082D01*
X67138Y202069D01*
X67238Y202052D01*
X67337Y202031D01*
X67435Y202007D01*
X67532Y201979D01*
X67629Y201947D01*
X67724Y201912D01*
X67817Y201873D01*
X67909Y201831D01*
X68000Y201785D01*
X68089Y201736D01*
X68175Y201684D01*
X68260Y201628D01*
X68343Y201570D01*
X68423Y201508D01*
X68501Y201443D01*
X68577Y201376D01*
X68650Y201306D01*
X68720Y201233D01*
X68787Y201157D01*
X68852Y201079D01*
X68914Y200999D01*
X68972Y200916D01*
X69028Y200831D01*
X69080Y200745D01*
X69129Y200656D01*
X69175Y200565D01*
X69217Y200473D01*
X69256Y200380D01*
X69291Y200285D01*
X69323Y200188D01*
X69351Y200091D01*
X69375Y199993D01*
X69396Y199894D01*
X69413Y199794D01*
X69426Y199693D01*
X69435Y199592D01*
X69441Y199491D01*
X69443Y199390D01*
X69443Y191262D01*
X64024Y191262D02*
X64024Y202099D01*
X77158Y207518D02*
X77158Y191262D01*
X81674Y191262D01*
X81778Y191264D01*
X81881Y191270D01*
X81985Y191280D01*
X82088Y191294D01*
X82190Y191312D01*
X82291Y191333D01*
X82392Y191359D01*
X82491Y191388D01*
X82590Y191421D01*
X82687Y191458D01*
X82782Y191499D01*
X82876Y191543D01*
X82968Y191591D01*
X83058Y191642D01*
X83147Y191697D01*
X83233Y191755D01*
X83316Y191817D01*
X83398Y191881D01*
X83476Y191949D01*
X83552Y192019D01*
X83626Y192092D01*
X83696Y192169D01*
X83764Y192247D01*
X83828Y192329D01*
X83890Y192412D01*
X83948Y192498D01*
X84003Y192587D01*
X84054Y192677D01*
X84102Y192769D01*
X84146Y192863D01*
X84187Y192958D01*
X84224Y193055D01*
X84257Y193154D01*
X84286Y193253D01*
X84312Y193354D01*
X84333Y193455D01*
X84351Y193557D01*
X84365Y193660D01*
X84375Y193764D01*
X84381Y193867D01*
X84383Y193971D01*
X84383Y199390D01*
X84381Y199491D01*
X84375Y199592D01*
X84366Y199693D01*
X84353Y199794D01*
X84336Y199894D01*
X84315Y199993D01*
X84291Y200091D01*
X84263Y200188D01*
X84231Y200285D01*
X84196Y200380D01*
X84157Y200473D01*
X84115Y200565D01*
X84069Y200656D01*
X84020Y200745D01*
X83968Y200831D01*
X83912Y200916D01*
X83854Y200999D01*
X83792Y201079D01*
X83727Y201157D01*
X83660Y201233D01*
X83590Y201306D01*
X83517Y201376D01*
X83441Y201443D01*
X83363Y201508D01*
X83283Y201570D01*
X83200Y201628D01*
X83115Y201684D01*
X83029Y201736D01*
X82940Y201785D01*
X82849Y201831D01*
X82757Y201873D01*
X82664Y201912D01*
X82569Y201947D01*
X82472Y201979D01*
X82375Y202007D01*
X82277Y202031D01*
X82178Y202052D01*
X82078Y202069D01*
X81977Y202082D01*
X81876Y202091D01*
X81775Y202097D01*
X81674Y202099D01*
X77158Y202099D01*
X90869Y207518D02*
X90869Y193971D01*
X90871Y193870D01*
X90877Y193769D01*
X90886Y193668D01*
X90899Y193567D01*
X90916Y193467D01*
X90937Y193368D01*
X90961Y193270D01*
X90989Y193173D01*
X91021Y193076D01*
X91056Y192981D01*
X91095Y192888D01*
X91137Y192796D01*
X91183Y192705D01*
X91232Y192617D01*
X91284Y192530D01*
X91340Y192445D01*
X91398Y192362D01*
X91460Y192282D01*
X91525Y192204D01*
X91592Y192128D01*
X91662Y192055D01*
X91735Y191985D01*
X91811Y191918D01*
X91889Y191853D01*
X91969Y191791D01*
X92052Y191733D01*
X92137Y191677D01*
X92224Y191625D01*
X92312Y191576D01*
X92403Y191530D01*
X92495Y191488D01*
X92588Y191449D01*
X92683Y191414D01*
X92780Y191382D01*
X92877Y191354D01*
X92975Y191330D01*
X93074Y191309D01*
X93174Y191292D01*
X93275Y191279D01*
X93376Y191270D01*
X93477Y191264D01*
X93578Y191262D01*
X101678Y191262D02*
X106194Y191262D01*
X101678Y191262D02*
X101577Y191264D01*
X101476Y191270D01*
X101375Y191279D01*
X101274Y191292D01*
X101174Y191309D01*
X101075Y191330D01*
X100977Y191354D01*
X100880Y191382D01*
X100783Y191414D01*
X100688Y191449D01*
X100595Y191488D01*
X100503Y191530D01*
X100412Y191576D01*
X100324Y191625D01*
X100237Y191677D01*
X100152Y191733D01*
X100069Y191791D01*
X99989Y191853D01*
X99911Y191918D01*
X99835Y191985D01*
X99762Y192055D01*
X99692Y192128D01*
X99625Y192204D01*
X99560Y192282D01*
X99498Y192362D01*
X99440Y192445D01*
X99384Y192530D01*
X99332Y192617D01*
X99283Y192705D01*
X99237Y192796D01*
X99195Y192888D01*
X99156Y192981D01*
X99121Y193076D01*
X99089Y193173D01*
X99061Y193270D01*
X99037Y193368D01*
X99016Y193467D01*
X98999Y193567D01*
X98986Y193668D01*
X98977Y193769D01*
X98971Y193870D01*
X98969Y193971D01*
X98969Y198487D01*
X98971Y198606D01*
X98977Y198726D01*
X98987Y198845D01*
X99001Y198963D01*
X99018Y199082D01*
X99040Y199199D01*
X99065Y199316D01*
X99095Y199431D01*
X99128Y199546D01*
X99165Y199660D01*
X99205Y199772D01*
X99250Y199883D01*
X99298Y199992D01*
X99349Y200100D01*
X99404Y200206D01*
X99463Y200310D01*
X99525Y200412D01*
X99590Y200512D01*
X99659Y200610D01*
X99731Y200706D01*
X99806Y200799D01*
X99883Y200889D01*
X99964Y200977D01*
X100048Y201062D01*
X100135Y201144D01*
X100224Y201224D01*
X100316Y201300D01*
X100410Y201374D01*
X100507Y201444D01*
X100605Y201511D01*
X100706Y201575D01*
X100810Y201635D01*
X100915Y201692D01*
X101022Y201745D01*
X101130Y201795D01*
X101240Y201841D01*
X101352Y201883D01*
X101465Y201922D01*
X101579Y201957D01*
X101694Y201988D01*
X101811Y202016D01*
X101928Y202039D01*
X102045Y202059D01*
X102164Y202075D01*
X102283Y202087D01*
X102402Y202095D01*
X102521Y202099D01*
X102641Y202099D01*
X102760Y202095D01*
X102879Y202087D01*
X102998Y202075D01*
X103117Y202059D01*
X103234Y202039D01*
X103351Y202016D01*
X103468Y201988D01*
X103583Y201957D01*
X103697Y201922D01*
X103810Y201883D01*
X103922Y201841D01*
X104032Y201795D01*
X104140Y201745D01*
X104247Y201692D01*
X104352Y201635D01*
X104456Y201575D01*
X104557Y201511D01*
X104655Y201444D01*
X104752Y201374D01*
X104846Y201300D01*
X104938Y201224D01*
X105027Y201144D01*
X105114Y201062D01*
X105198Y200977D01*
X105279Y200889D01*
X105356Y200799D01*
X105431Y200706D01*
X105503Y200610D01*
X105572Y200512D01*
X105637Y200412D01*
X105699Y200310D01*
X105758Y200206D01*
X105813Y200100D01*
X105864Y199992D01*
X105912Y199883D01*
X105957Y199772D01*
X105997Y199660D01*
X106034Y199546D01*
X106067Y199431D01*
X106097Y199316D01*
X106122Y199199D01*
X106144Y199082D01*
X106161Y198963D01*
X106175Y198845D01*
X106185Y198726D01*
X106191Y198606D01*
X106193Y198487D01*
X106194Y198487D02*
X106194Y196681D01*
X98969Y196681D01*
X122381Y191262D02*
X122381Y207518D01*
X120574Y191262D02*
X124187Y191262D01*
X124187Y207518D02*
X120574Y207518D01*
X130752Y202099D02*
X130752Y191262D01*
X130752Y202099D02*
X135268Y202099D01*
X135372Y202097D01*
X135475Y202091D01*
X135579Y202081D01*
X135682Y202067D01*
X135784Y202049D01*
X135885Y202028D01*
X135986Y202002D01*
X136085Y201973D01*
X136184Y201940D01*
X136281Y201903D01*
X136376Y201862D01*
X136470Y201818D01*
X136562Y201770D01*
X136652Y201719D01*
X136741Y201664D01*
X136827Y201606D01*
X136910Y201544D01*
X136992Y201480D01*
X137070Y201412D01*
X137146Y201342D01*
X137220Y201269D01*
X137290Y201192D01*
X137358Y201114D01*
X137422Y201032D01*
X137484Y200949D01*
X137542Y200863D01*
X137597Y200774D01*
X137648Y200684D01*
X137696Y200592D01*
X137740Y200498D01*
X137781Y200403D01*
X137818Y200306D01*
X137851Y200207D01*
X137880Y200108D01*
X137906Y200007D01*
X137927Y199906D01*
X137945Y199804D01*
X137959Y199701D01*
X137969Y199597D01*
X137975Y199494D01*
X137977Y199390D01*
X137977Y191262D01*
X147547Y191262D02*
X151160Y191262D01*
X147547Y191262D02*
X147446Y191264D01*
X147345Y191270D01*
X147244Y191279D01*
X147143Y191292D01*
X147043Y191309D01*
X146944Y191330D01*
X146846Y191354D01*
X146749Y191382D01*
X146652Y191414D01*
X146557Y191449D01*
X146464Y191488D01*
X146372Y191530D01*
X146281Y191576D01*
X146193Y191625D01*
X146106Y191677D01*
X146021Y191733D01*
X145938Y191791D01*
X145858Y191853D01*
X145780Y191918D01*
X145704Y191985D01*
X145631Y192055D01*
X145561Y192128D01*
X145494Y192204D01*
X145429Y192282D01*
X145367Y192362D01*
X145309Y192445D01*
X145253Y192530D01*
X145201Y192617D01*
X145152Y192705D01*
X145106Y192796D01*
X145064Y192888D01*
X145025Y192981D01*
X144990Y193076D01*
X144958Y193173D01*
X144930Y193270D01*
X144906Y193368D01*
X144885Y193467D01*
X144868Y193567D01*
X144855Y193668D01*
X144846Y193769D01*
X144840Y193870D01*
X144838Y193971D01*
X144838Y199390D01*
X144840Y199491D01*
X144846Y199592D01*
X144855Y199693D01*
X144868Y199794D01*
X144885Y199894D01*
X144906Y199993D01*
X144930Y200091D01*
X144958Y200188D01*
X144990Y200285D01*
X145025Y200380D01*
X145064Y200473D01*
X145106Y200565D01*
X145152Y200656D01*
X145201Y200745D01*
X145253Y200831D01*
X145309Y200916D01*
X145367Y200999D01*
X145429Y201079D01*
X145494Y201157D01*
X145561Y201233D01*
X145631Y201306D01*
X145704Y201376D01*
X145780Y201443D01*
X145858Y201508D01*
X145938Y201570D01*
X146021Y201628D01*
X146106Y201684D01*
X146193Y201736D01*
X146281Y201785D01*
X146372Y201831D01*
X146464Y201873D01*
X146557Y201912D01*
X146652Y201947D01*
X146749Y201979D01*
X146846Y202007D01*
X146944Y202031D01*
X147043Y202052D01*
X147143Y202069D01*
X147244Y202082D01*
X147345Y202091D01*
X147446Y202097D01*
X147547Y202099D01*
X151160Y202099D01*
X156318Y192165D02*
X156318Y191262D01*
X156318Y192165D02*
X157221Y192165D01*
X157221Y191262D01*
X156318Y191262D01*
X33387Y106172D02*
X28871Y106172D01*
X28770Y106174D01*
X28669Y106180D01*
X28568Y106189D01*
X28467Y106202D01*
X28367Y106219D01*
X28268Y106240D01*
X28170Y106264D01*
X28073Y106292D01*
X27976Y106324D01*
X27881Y106359D01*
X27788Y106398D01*
X27696Y106440D01*
X27605Y106486D01*
X27517Y106535D01*
X27430Y106587D01*
X27345Y106643D01*
X27262Y106701D01*
X27182Y106763D01*
X27104Y106828D01*
X27028Y106895D01*
X26955Y106965D01*
X26885Y107038D01*
X26818Y107114D01*
X26753Y107192D01*
X26691Y107272D01*
X26633Y107355D01*
X26577Y107440D01*
X26525Y107527D01*
X26476Y107615D01*
X26430Y107706D01*
X26388Y107798D01*
X26349Y107891D01*
X26314Y107986D01*
X26282Y108083D01*
X26254Y108180D01*
X26230Y108278D01*
X26209Y108377D01*
X26192Y108477D01*
X26179Y108578D01*
X26170Y108679D01*
X26164Y108780D01*
X26162Y108881D01*
X26162Y113397D01*
X26164Y113516D01*
X26170Y113636D01*
X26180Y113755D01*
X26194Y113873D01*
X26211Y113992D01*
X26233Y114109D01*
X26258Y114226D01*
X26288Y114341D01*
X26321Y114456D01*
X26358Y114570D01*
X26398Y114682D01*
X26443Y114793D01*
X26491Y114902D01*
X26542Y115010D01*
X26597Y115116D01*
X26656Y115220D01*
X26718Y115322D01*
X26783Y115422D01*
X26852Y115520D01*
X26924Y115616D01*
X26999Y115709D01*
X27076Y115799D01*
X27157Y115887D01*
X27241Y115972D01*
X27328Y116054D01*
X27417Y116134D01*
X27509Y116210D01*
X27603Y116284D01*
X27700Y116354D01*
X27798Y116421D01*
X27899Y116485D01*
X28003Y116545D01*
X28108Y116602D01*
X28215Y116655D01*
X28323Y116705D01*
X28433Y116751D01*
X28545Y116793D01*
X28658Y116832D01*
X28772Y116867D01*
X28887Y116898D01*
X29004Y116926D01*
X29121Y116949D01*
X29238Y116969D01*
X29357Y116985D01*
X29476Y116997D01*
X29595Y117005D01*
X29714Y117009D01*
X29834Y117009D01*
X29953Y117005D01*
X30072Y116997D01*
X30191Y116985D01*
X30310Y116969D01*
X30427Y116949D01*
X30544Y116926D01*
X30661Y116898D01*
X30776Y116867D01*
X30890Y116832D01*
X31003Y116793D01*
X31115Y116751D01*
X31225Y116705D01*
X31333Y116655D01*
X31440Y116602D01*
X31545Y116545D01*
X31649Y116485D01*
X31750Y116421D01*
X31848Y116354D01*
X31945Y116284D01*
X32039Y116210D01*
X32131Y116134D01*
X32220Y116054D01*
X32307Y115972D01*
X32391Y115887D01*
X32472Y115799D01*
X32549Y115709D01*
X32624Y115616D01*
X32696Y115520D01*
X32765Y115422D01*
X32830Y115322D01*
X32892Y115220D01*
X32951Y115116D01*
X33006Y115010D01*
X33057Y114902D01*
X33105Y114793D01*
X33150Y114682D01*
X33190Y114570D01*
X33227Y114456D01*
X33260Y114341D01*
X33290Y114226D01*
X33315Y114109D01*
X33337Y113992D01*
X33354Y113873D01*
X33368Y113755D01*
X33378Y113636D01*
X33384Y113516D01*
X33386Y113397D01*
X33387Y113397D02*
X33387Y111591D01*
X26162Y111591D01*
X40508Y106172D02*
X40508Y117009D01*
X48636Y117009D01*
X48737Y117007D01*
X48838Y117001D01*
X48939Y116992D01*
X49040Y116979D01*
X49140Y116962D01*
X49239Y116941D01*
X49337Y116917D01*
X49434Y116889D01*
X49531Y116857D01*
X49626Y116822D01*
X49719Y116783D01*
X49811Y116741D01*
X49902Y116695D01*
X49991Y116646D01*
X50077Y116594D01*
X50162Y116538D01*
X50245Y116480D01*
X50325Y116418D01*
X50403Y116353D01*
X50479Y116286D01*
X50552Y116216D01*
X50622Y116143D01*
X50689Y116067D01*
X50754Y115989D01*
X50816Y115909D01*
X50874Y115826D01*
X50930Y115741D01*
X50982Y115655D01*
X51031Y115566D01*
X51077Y115475D01*
X51119Y115383D01*
X51158Y115290D01*
X51193Y115195D01*
X51225Y115098D01*
X51253Y115001D01*
X51277Y114903D01*
X51298Y114804D01*
X51315Y114704D01*
X51328Y114603D01*
X51337Y114502D01*
X51343Y114401D01*
X51345Y114300D01*
X51345Y106172D01*
X45927Y106172D02*
X45927Y117009D01*
X61554Y112494D02*
X65618Y112494D01*
X61554Y112494D02*
X61442Y112492D01*
X61331Y112486D01*
X61220Y112476D01*
X61109Y112463D01*
X60999Y112445D01*
X60890Y112423D01*
X60781Y112398D01*
X60673Y112369D01*
X60567Y112336D01*
X60461Y112299D01*
X60357Y112259D01*
X60255Y112215D01*
X60154Y112167D01*
X60055Y112116D01*
X59957Y112061D01*
X59862Y112003D01*
X59769Y111942D01*
X59678Y111877D01*
X59589Y111809D01*
X59503Y111738D01*
X59420Y111665D01*
X59339Y111588D01*
X59260Y111508D01*
X59185Y111426D01*
X59113Y111341D01*
X59043Y111254D01*
X58977Y111164D01*
X58914Y111072D01*
X58854Y110977D01*
X58798Y110881D01*
X58745Y110783D01*
X58696Y110683D01*
X58650Y110581D01*
X58608Y110478D01*
X58569Y110373D01*
X58534Y110267D01*
X58503Y110160D01*
X58476Y110052D01*
X58452Y109943D01*
X58433Y109833D01*
X58417Y109723D01*
X58405Y109612D01*
X58397Y109500D01*
X58393Y109389D01*
X58393Y109277D01*
X58397Y109166D01*
X58405Y109054D01*
X58417Y108943D01*
X58433Y108833D01*
X58452Y108723D01*
X58476Y108614D01*
X58503Y108506D01*
X58534Y108399D01*
X58569Y108293D01*
X58608Y108188D01*
X58650Y108085D01*
X58696Y107983D01*
X58745Y107883D01*
X58798Y107785D01*
X58854Y107689D01*
X58914Y107594D01*
X58977Y107502D01*
X59043Y107412D01*
X59113Y107325D01*
X59185Y107240D01*
X59260Y107158D01*
X59339Y107078D01*
X59420Y107001D01*
X59503Y106928D01*
X59589Y106857D01*
X59678Y106789D01*
X59769Y106724D01*
X59862Y106663D01*
X59957Y106605D01*
X60055Y106550D01*
X60154Y106499D01*
X60255Y106451D01*
X60357Y106407D01*
X60461Y106367D01*
X60567Y106330D01*
X60673Y106297D01*
X60781Y106268D01*
X60890Y106243D01*
X60999Y106221D01*
X61109Y106203D01*
X61220Y106190D01*
X61331Y106180D01*
X61442Y106174D01*
X61554Y106172D01*
X65618Y106172D01*
X65618Y114300D01*
X65616Y114401D01*
X65610Y114502D01*
X65601Y114603D01*
X65588Y114704D01*
X65571Y114804D01*
X65550Y114903D01*
X65526Y115001D01*
X65498Y115098D01*
X65466Y115195D01*
X65431Y115290D01*
X65392Y115383D01*
X65350Y115475D01*
X65304Y115566D01*
X65255Y115655D01*
X65203Y115741D01*
X65147Y115826D01*
X65089Y115909D01*
X65027Y115989D01*
X64962Y116067D01*
X64895Y116143D01*
X64825Y116216D01*
X64752Y116286D01*
X64676Y116353D01*
X64598Y116418D01*
X64518Y116480D01*
X64435Y116538D01*
X64350Y116594D01*
X64264Y116646D01*
X64175Y116695D01*
X64084Y116741D01*
X63992Y116783D01*
X63899Y116822D01*
X63804Y116857D01*
X63707Y116889D01*
X63610Y116917D01*
X63512Y116941D01*
X63413Y116962D01*
X63313Y116979D01*
X63212Y116992D01*
X63111Y117001D01*
X63010Y117007D01*
X62909Y117009D01*
X59296Y117009D01*
X72500Y117009D02*
X72500Y106172D01*
X72048Y121525D02*
X72048Y122428D01*
X72951Y122428D01*
X72951Y121525D01*
X72048Y121525D01*
X79024Y122428D02*
X79024Y108881D01*
X79026Y108780D01*
X79032Y108679D01*
X79041Y108578D01*
X79054Y108477D01*
X79071Y108377D01*
X79092Y108278D01*
X79116Y108180D01*
X79144Y108083D01*
X79176Y107986D01*
X79211Y107891D01*
X79250Y107798D01*
X79292Y107706D01*
X79338Y107615D01*
X79387Y107527D01*
X79439Y107440D01*
X79495Y107355D01*
X79553Y107272D01*
X79615Y107192D01*
X79680Y107114D01*
X79747Y107038D01*
X79817Y106965D01*
X79890Y106895D01*
X79966Y106828D01*
X80044Y106763D01*
X80124Y106701D01*
X80207Y106643D01*
X80292Y106587D01*
X80379Y106535D01*
X80467Y106486D01*
X80558Y106440D01*
X80650Y106398D01*
X80743Y106359D01*
X80838Y106324D01*
X80935Y106292D01*
X81032Y106264D01*
X81130Y106240D01*
X81229Y106219D01*
X81329Y106202D01*
X81430Y106189D01*
X81531Y106180D01*
X81632Y106174D01*
X81733Y106172D01*
X87158Y107527D02*
X87158Y108430D01*
X88062Y108430D01*
X88062Y107527D01*
X87158Y107527D01*
X87158Y114752D02*
X87158Y115655D01*
X88062Y115655D01*
X88062Y114752D01*
X87158Y114752D01*
X33387Y79502D02*
X28871Y79502D01*
X28770Y79504D01*
X28669Y79510D01*
X28568Y79519D01*
X28467Y79532D01*
X28367Y79549D01*
X28268Y79570D01*
X28170Y79594D01*
X28073Y79622D01*
X27976Y79654D01*
X27881Y79689D01*
X27788Y79728D01*
X27696Y79770D01*
X27605Y79816D01*
X27517Y79865D01*
X27430Y79917D01*
X27345Y79973D01*
X27262Y80031D01*
X27182Y80093D01*
X27104Y80158D01*
X27028Y80225D01*
X26955Y80295D01*
X26885Y80368D01*
X26818Y80444D01*
X26753Y80522D01*
X26691Y80602D01*
X26633Y80685D01*
X26577Y80770D01*
X26525Y80857D01*
X26476Y80945D01*
X26430Y81036D01*
X26388Y81128D01*
X26349Y81221D01*
X26314Y81316D01*
X26282Y81413D01*
X26254Y81510D01*
X26230Y81608D01*
X26209Y81707D01*
X26192Y81807D01*
X26179Y81908D01*
X26170Y82009D01*
X26164Y82110D01*
X26162Y82211D01*
X26162Y87630D01*
X26164Y87731D01*
X26170Y87832D01*
X26179Y87933D01*
X26192Y88034D01*
X26209Y88134D01*
X26230Y88233D01*
X26254Y88331D01*
X26282Y88428D01*
X26314Y88525D01*
X26349Y88620D01*
X26388Y88713D01*
X26430Y88805D01*
X26476Y88896D01*
X26525Y88985D01*
X26577Y89071D01*
X26633Y89156D01*
X26691Y89239D01*
X26753Y89319D01*
X26818Y89397D01*
X26885Y89473D01*
X26955Y89546D01*
X27028Y89616D01*
X27104Y89683D01*
X27182Y89748D01*
X27262Y89810D01*
X27345Y89868D01*
X27430Y89924D01*
X27517Y89976D01*
X27605Y90025D01*
X27696Y90071D01*
X27788Y90113D01*
X27881Y90152D01*
X27976Y90187D01*
X28073Y90219D01*
X28170Y90247D01*
X28268Y90271D01*
X28367Y90292D01*
X28467Y90309D01*
X28568Y90322D01*
X28669Y90331D01*
X28770Y90337D01*
X28871Y90339D01*
X33387Y90339D01*
X33387Y76793D01*
X33385Y76689D01*
X33379Y76586D01*
X33369Y76482D01*
X33355Y76379D01*
X33337Y76277D01*
X33316Y76176D01*
X33290Y76075D01*
X33261Y75976D01*
X33228Y75877D01*
X33191Y75780D01*
X33150Y75685D01*
X33106Y75591D01*
X33058Y75499D01*
X33007Y75409D01*
X32952Y75320D01*
X32894Y75234D01*
X32832Y75151D01*
X32768Y75069D01*
X32700Y74991D01*
X32630Y74915D01*
X32557Y74841D01*
X32480Y74771D01*
X32402Y74703D01*
X32320Y74639D01*
X32237Y74577D01*
X32151Y74519D01*
X32062Y74464D01*
X31972Y74413D01*
X31880Y74365D01*
X31786Y74321D01*
X31691Y74280D01*
X31594Y74243D01*
X31495Y74210D01*
X31396Y74181D01*
X31295Y74155D01*
X31194Y74134D01*
X31092Y74116D01*
X30989Y74102D01*
X30885Y74092D01*
X30782Y74086D01*
X30678Y74084D01*
X30678Y74083D02*
X27065Y74083D01*
X40269Y79502D02*
X40269Y90339D01*
X39817Y94855D02*
X39817Y95758D01*
X40720Y95758D01*
X40720Y94855D01*
X39817Y94855D01*
X45259Y90339D02*
X50677Y90339D01*
X47065Y95758D02*
X47065Y82211D01*
X47067Y82110D01*
X47073Y82009D01*
X47082Y81908D01*
X47095Y81807D01*
X47112Y81707D01*
X47133Y81608D01*
X47157Y81510D01*
X47185Y81413D01*
X47217Y81316D01*
X47252Y81221D01*
X47291Y81128D01*
X47333Y81036D01*
X47379Y80945D01*
X47428Y80857D01*
X47480Y80770D01*
X47536Y80685D01*
X47594Y80602D01*
X47656Y80522D01*
X47721Y80444D01*
X47788Y80368D01*
X47858Y80295D01*
X47931Y80225D01*
X48007Y80158D01*
X48085Y80093D01*
X48165Y80031D01*
X48248Y79973D01*
X48333Y79917D01*
X48420Y79865D01*
X48508Y79816D01*
X48599Y79770D01*
X48691Y79728D01*
X48784Y79689D01*
X48879Y79654D01*
X48976Y79622D01*
X49073Y79594D01*
X49171Y79570D01*
X49270Y79549D01*
X49370Y79532D01*
X49471Y79519D01*
X49572Y79510D01*
X49673Y79504D01*
X49774Y79502D01*
X50677Y79502D01*
X56977Y79502D02*
X56977Y95758D01*
X56977Y90339D02*
X61492Y90339D01*
X61596Y90337D01*
X61699Y90331D01*
X61803Y90321D01*
X61906Y90307D01*
X62008Y90289D01*
X62109Y90268D01*
X62210Y90242D01*
X62309Y90213D01*
X62408Y90180D01*
X62505Y90143D01*
X62600Y90102D01*
X62694Y90058D01*
X62786Y90010D01*
X62876Y89959D01*
X62965Y89904D01*
X63051Y89846D01*
X63134Y89784D01*
X63216Y89720D01*
X63294Y89652D01*
X63370Y89582D01*
X63444Y89509D01*
X63514Y89432D01*
X63582Y89354D01*
X63646Y89272D01*
X63708Y89189D01*
X63766Y89103D01*
X63821Y89014D01*
X63872Y88924D01*
X63920Y88832D01*
X63964Y88738D01*
X64005Y88643D01*
X64042Y88546D01*
X64075Y88447D01*
X64104Y88348D01*
X64130Y88247D01*
X64151Y88146D01*
X64169Y88044D01*
X64183Y87941D01*
X64193Y87837D01*
X64199Y87734D01*
X64201Y87630D01*
X64202Y87630D02*
X64202Y79502D01*
X71566Y82211D02*
X71566Y90339D01*
X71566Y82211D02*
X71568Y82110D01*
X71574Y82009D01*
X71583Y81908D01*
X71596Y81807D01*
X71613Y81707D01*
X71634Y81608D01*
X71658Y81510D01*
X71686Y81413D01*
X71718Y81316D01*
X71753Y81221D01*
X71792Y81128D01*
X71834Y81036D01*
X71880Y80945D01*
X71929Y80857D01*
X71981Y80770D01*
X72037Y80685D01*
X72095Y80602D01*
X72157Y80522D01*
X72222Y80444D01*
X72289Y80368D01*
X72359Y80295D01*
X72432Y80225D01*
X72508Y80158D01*
X72586Y80093D01*
X72666Y80031D01*
X72749Y79973D01*
X72834Y79917D01*
X72921Y79865D01*
X73009Y79816D01*
X73100Y79770D01*
X73192Y79728D01*
X73285Y79689D01*
X73380Y79654D01*
X73477Y79622D01*
X73574Y79594D01*
X73672Y79570D01*
X73771Y79549D01*
X73871Y79532D01*
X73972Y79519D01*
X74073Y79510D01*
X74174Y79504D01*
X74275Y79502D01*
X78791Y79502D01*
X78791Y90339D01*
X86228Y95758D02*
X86228Y79502D01*
X90744Y79502D01*
X90848Y79504D01*
X90951Y79510D01*
X91055Y79520D01*
X91158Y79534D01*
X91260Y79552D01*
X91361Y79573D01*
X91462Y79599D01*
X91561Y79628D01*
X91660Y79661D01*
X91757Y79698D01*
X91852Y79739D01*
X91946Y79783D01*
X92038Y79831D01*
X92128Y79882D01*
X92217Y79937D01*
X92303Y79995D01*
X92386Y80057D01*
X92468Y80121D01*
X92546Y80189D01*
X92622Y80259D01*
X92696Y80332D01*
X92766Y80409D01*
X92834Y80487D01*
X92898Y80569D01*
X92960Y80652D01*
X93018Y80738D01*
X93073Y80827D01*
X93124Y80917D01*
X93172Y81009D01*
X93216Y81103D01*
X93257Y81198D01*
X93294Y81295D01*
X93327Y81394D01*
X93356Y81493D01*
X93382Y81594D01*
X93403Y81695D01*
X93421Y81797D01*
X93435Y81900D01*
X93445Y82004D01*
X93451Y82107D01*
X93453Y82211D01*
X93453Y87630D01*
X93451Y87731D01*
X93445Y87832D01*
X93436Y87933D01*
X93423Y88034D01*
X93406Y88134D01*
X93385Y88233D01*
X93361Y88331D01*
X93333Y88428D01*
X93301Y88525D01*
X93266Y88620D01*
X93227Y88713D01*
X93185Y88805D01*
X93139Y88896D01*
X93090Y88985D01*
X93038Y89071D01*
X92982Y89156D01*
X92924Y89239D01*
X92862Y89319D01*
X92797Y89397D01*
X92730Y89473D01*
X92660Y89546D01*
X92587Y89616D01*
X92511Y89683D01*
X92433Y89748D01*
X92353Y89810D01*
X92270Y89868D01*
X92185Y89924D01*
X92099Y89976D01*
X92010Y90025D01*
X91919Y90071D01*
X91827Y90113D01*
X91734Y90152D01*
X91639Y90187D01*
X91542Y90219D01*
X91445Y90247D01*
X91347Y90271D01*
X91248Y90292D01*
X91148Y90309D01*
X91047Y90322D01*
X90946Y90331D01*
X90845Y90337D01*
X90744Y90339D01*
X86228Y90339D01*
X99737Y81760D02*
X99737Y80857D01*
X99737Y81760D02*
X100640Y81760D01*
X100640Y80857D01*
X99737Y80857D01*
X99737Y88082D02*
X99737Y88985D01*
X100640Y88985D01*
X100640Y88082D01*
X99737Y88082D01*
X31581Y63669D02*
X26162Y63669D01*
X27968Y69088D02*
X27968Y55541D01*
X27969Y55541D02*
X27971Y55440D01*
X27977Y55339D01*
X27986Y55238D01*
X27999Y55137D01*
X28016Y55037D01*
X28037Y54938D01*
X28061Y54840D01*
X28089Y54743D01*
X28121Y54646D01*
X28156Y54551D01*
X28195Y54458D01*
X28237Y54366D01*
X28283Y54275D01*
X28332Y54186D01*
X28384Y54100D01*
X28440Y54015D01*
X28498Y53932D01*
X28560Y53852D01*
X28625Y53774D01*
X28692Y53698D01*
X28762Y53625D01*
X28835Y53555D01*
X28911Y53488D01*
X28989Y53423D01*
X29069Y53361D01*
X29152Y53303D01*
X29237Y53247D01*
X29324Y53195D01*
X29412Y53146D01*
X29503Y53100D01*
X29595Y53058D01*
X29688Y53019D01*
X29783Y52984D01*
X29880Y52952D01*
X29977Y52924D01*
X30075Y52900D01*
X30174Y52879D01*
X30274Y52862D01*
X30375Y52849D01*
X30476Y52840D01*
X30577Y52834D01*
X30678Y52832D01*
X31581Y52832D01*
X40068Y52832D02*
X44584Y52832D01*
X40068Y52832D02*
X39967Y52834D01*
X39866Y52840D01*
X39765Y52849D01*
X39664Y52862D01*
X39564Y52879D01*
X39465Y52900D01*
X39367Y52924D01*
X39270Y52952D01*
X39173Y52984D01*
X39078Y53019D01*
X38985Y53058D01*
X38893Y53100D01*
X38802Y53146D01*
X38714Y53195D01*
X38627Y53247D01*
X38542Y53303D01*
X38459Y53361D01*
X38379Y53423D01*
X38301Y53488D01*
X38225Y53555D01*
X38152Y53625D01*
X38082Y53698D01*
X38015Y53774D01*
X37950Y53852D01*
X37888Y53932D01*
X37830Y54015D01*
X37774Y54100D01*
X37722Y54186D01*
X37673Y54275D01*
X37627Y54366D01*
X37585Y54458D01*
X37546Y54551D01*
X37511Y54646D01*
X37479Y54743D01*
X37451Y54840D01*
X37427Y54938D01*
X37406Y55037D01*
X37389Y55137D01*
X37376Y55238D01*
X37367Y55339D01*
X37361Y55440D01*
X37359Y55541D01*
X37359Y60057D01*
X37361Y60176D01*
X37367Y60296D01*
X37377Y60415D01*
X37391Y60533D01*
X37408Y60652D01*
X37430Y60769D01*
X37455Y60886D01*
X37485Y61001D01*
X37518Y61116D01*
X37555Y61230D01*
X37595Y61342D01*
X37640Y61453D01*
X37688Y61562D01*
X37739Y61670D01*
X37794Y61776D01*
X37853Y61880D01*
X37915Y61982D01*
X37980Y62082D01*
X38049Y62180D01*
X38121Y62276D01*
X38196Y62369D01*
X38273Y62459D01*
X38354Y62547D01*
X38438Y62632D01*
X38525Y62714D01*
X38614Y62794D01*
X38706Y62870D01*
X38800Y62944D01*
X38897Y63014D01*
X38995Y63081D01*
X39096Y63145D01*
X39200Y63205D01*
X39305Y63262D01*
X39412Y63315D01*
X39520Y63365D01*
X39630Y63411D01*
X39742Y63453D01*
X39855Y63492D01*
X39969Y63527D01*
X40084Y63558D01*
X40201Y63586D01*
X40318Y63609D01*
X40435Y63629D01*
X40554Y63645D01*
X40673Y63657D01*
X40792Y63665D01*
X40911Y63669D01*
X41031Y63669D01*
X41150Y63665D01*
X41269Y63657D01*
X41388Y63645D01*
X41507Y63629D01*
X41624Y63609D01*
X41741Y63586D01*
X41858Y63558D01*
X41973Y63527D01*
X42087Y63492D01*
X42200Y63453D01*
X42312Y63411D01*
X42422Y63365D01*
X42530Y63315D01*
X42637Y63262D01*
X42742Y63205D01*
X42846Y63145D01*
X42947Y63081D01*
X43045Y63014D01*
X43142Y62944D01*
X43236Y62870D01*
X43328Y62794D01*
X43417Y62714D01*
X43504Y62632D01*
X43588Y62547D01*
X43669Y62459D01*
X43746Y62369D01*
X43821Y62276D01*
X43893Y62180D01*
X43962Y62082D01*
X44027Y61982D01*
X44089Y61880D01*
X44148Y61776D01*
X44203Y61670D01*
X44254Y61562D01*
X44302Y61453D01*
X44347Y61342D01*
X44387Y61230D01*
X44424Y61116D01*
X44457Y61001D01*
X44487Y60886D01*
X44512Y60769D01*
X44534Y60652D01*
X44551Y60533D01*
X44565Y60415D01*
X44575Y60296D01*
X44581Y60176D01*
X44583Y60057D01*
X44584Y60057D02*
X44584Y58251D01*
X37359Y58251D01*
X51143Y55541D02*
X51143Y69088D01*
X51143Y55541D02*
X51145Y55440D01*
X51151Y55339D01*
X51160Y55238D01*
X51173Y55137D01*
X51190Y55037D01*
X51211Y54938D01*
X51235Y54840D01*
X51263Y54743D01*
X51295Y54646D01*
X51330Y54551D01*
X51369Y54458D01*
X51411Y54366D01*
X51457Y54275D01*
X51506Y54186D01*
X51558Y54100D01*
X51614Y54015D01*
X51672Y53932D01*
X51734Y53852D01*
X51799Y53774D01*
X51866Y53698D01*
X51936Y53625D01*
X52009Y53555D01*
X52085Y53488D01*
X52163Y53423D01*
X52243Y53361D01*
X52326Y53303D01*
X52411Y53247D01*
X52498Y53195D01*
X52586Y53146D01*
X52677Y53100D01*
X52769Y53058D01*
X52862Y53019D01*
X52957Y52984D01*
X53054Y52952D01*
X53151Y52924D01*
X53249Y52900D01*
X53348Y52879D01*
X53448Y52862D01*
X53549Y52849D01*
X53650Y52840D01*
X53751Y52834D01*
X53852Y52832D01*
X59277Y54187D02*
X59277Y55090D01*
X60180Y55090D01*
X60180Y54187D01*
X59277Y54187D01*
X59277Y61412D02*
X59277Y62315D01*
X60180Y62315D01*
X60180Y61412D01*
X59277Y61412D01*
X127762Y104902D02*
X127762Y115739D01*
X132278Y115739D01*
X132382Y115737D01*
X132485Y115731D01*
X132589Y115721D01*
X132692Y115707D01*
X132794Y115689D01*
X132895Y115668D01*
X132996Y115642D01*
X133095Y115613D01*
X133194Y115580D01*
X133291Y115543D01*
X133386Y115502D01*
X133480Y115458D01*
X133572Y115410D01*
X133662Y115359D01*
X133751Y115304D01*
X133837Y115246D01*
X133920Y115184D01*
X134002Y115120D01*
X134080Y115052D01*
X134156Y114982D01*
X134230Y114909D01*
X134300Y114832D01*
X134368Y114754D01*
X134432Y114672D01*
X134494Y114589D01*
X134552Y114503D01*
X134607Y114414D01*
X134658Y114324D01*
X134706Y114232D01*
X134750Y114138D01*
X134791Y114043D01*
X134828Y113946D01*
X134861Y113847D01*
X134890Y113748D01*
X134916Y113647D01*
X134937Y113546D01*
X134955Y113444D01*
X134969Y113341D01*
X134979Y113237D01*
X134985Y113134D01*
X134987Y113030D01*
X134987Y104902D01*
X144539Y104902D02*
X149055Y104902D01*
X144539Y104902D02*
X144438Y104904D01*
X144337Y104910D01*
X144236Y104919D01*
X144135Y104932D01*
X144035Y104949D01*
X143936Y104970D01*
X143838Y104994D01*
X143741Y105022D01*
X143644Y105054D01*
X143549Y105089D01*
X143456Y105128D01*
X143364Y105170D01*
X143273Y105216D01*
X143185Y105265D01*
X143098Y105317D01*
X143013Y105373D01*
X142930Y105431D01*
X142850Y105493D01*
X142772Y105558D01*
X142696Y105625D01*
X142623Y105695D01*
X142553Y105768D01*
X142486Y105844D01*
X142421Y105922D01*
X142359Y106002D01*
X142301Y106085D01*
X142245Y106170D01*
X142193Y106257D01*
X142144Y106345D01*
X142098Y106436D01*
X142056Y106528D01*
X142017Y106621D01*
X141982Y106716D01*
X141950Y106813D01*
X141922Y106910D01*
X141898Y107008D01*
X141877Y107107D01*
X141860Y107207D01*
X141847Y107308D01*
X141838Y107409D01*
X141832Y107510D01*
X141830Y107611D01*
X141830Y112127D01*
X141831Y112127D02*
X141833Y112246D01*
X141839Y112366D01*
X141849Y112485D01*
X141863Y112603D01*
X141880Y112722D01*
X141902Y112839D01*
X141927Y112956D01*
X141957Y113071D01*
X141990Y113186D01*
X142027Y113300D01*
X142067Y113412D01*
X142112Y113523D01*
X142160Y113632D01*
X142211Y113740D01*
X142266Y113846D01*
X142325Y113950D01*
X142387Y114052D01*
X142452Y114152D01*
X142521Y114250D01*
X142593Y114346D01*
X142668Y114439D01*
X142745Y114529D01*
X142826Y114617D01*
X142910Y114702D01*
X142997Y114784D01*
X143086Y114864D01*
X143178Y114940D01*
X143272Y115014D01*
X143369Y115084D01*
X143467Y115151D01*
X143568Y115215D01*
X143672Y115275D01*
X143777Y115332D01*
X143884Y115385D01*
X143992Y115435D01*
X144102Y115481D01*
X144214Y115523D01*
X144327Y115562D01*
X144441Y115597D01*
X144556Y115628D01*
X144673Y115656D01*
X144790Y115679D01*
X144907Y115699D01*
X145026Y115715D01*
X145145Y115727D01*
X145264Y115735D01*
X145383Y115739D01*
X145503Y115739D01*
X145622Y115735D01*
X145741Y115727D01*
X145860Y115715D01*
X145979Y115699D01*
X146096Y115679D01*
X146213Y115656D01*
X146330Y115628D01*
X146445Y115597D01*
X146559Y115562D01*
X146672Y115523D01*
X146784Y115481D01*
X146894Y115435D01*
X147002Y115385D01*
X147109Y115332D01*
X147214Y115275D01*
X147318Y115215D01*
X147419Y115151D01*
X147517Y115084D01*
X147614Y115014D01*
X147708Y114940D01*
X147800Y114864D01*
X147889Y114784D01*
X147976Y114702D01*
X148060Y114617D01*
X148141Y114529D01*
X148218Y114439D01*
X148293Y114346D01*
X148365Y114250D01*
X148434Y114152D01*
X148499Y114052D01*
X148561Y113950D01*
X148620Y113846D01*
X148675Y113740D01*
X148726Y113632D01*
X148774Y113523D01*
X148819Y113412D01*
X148859Y113300D01*
X148896Y113186D01*
X148929Y113071D01*
X148959Y112956D01*
X148984Y112839D01*
X149006Y112722D01*
X149023Y112603D01*
X149037Y112485D01*
X149047Y112366D01*
X149053Y112246D01*
X149055Y112127D01*
X149055Y110321D01*
X141830Y110321D01*
X158086Y104902D02*
X162602Y104902D01*
X158086Y104902D02*
X157985Y104904D01*
X157884Y104910D01*
X157783Y104919D01*
X157682Y104932D01*
X157582Y104949D01*
X157483Y104970D01*
X157385Y104994D01*
X157288Y105022D01*
X157191Y105054D01*
X157096Y105089D01*
X157003Y105128D01*
X156911Y105170D01*
X156820Y105216D01*
X156732Y105265D01*
X156645Y105317D01*
X156560Y105373D01*
X156477Y105431D01*
X156397Y105493D01*
X156319Y105558D01*
X156243Y105625D01*
X156170Y105695D01*
X156100Y105768D01*
X156033Y105844D01*
X155968Y105922D01*
X155906Y106002D01*
X155848Y106085D01*
X155792Y106170D01*
X155740Y106257D01*
X155691Y106345D01*
X155645Y106436D01*
X155603Y106528D01*
X155564Y106621D01*
X155529Y106716D01*
X155497Y106813D01*
X155469Y106910D01*
X155445Y107008D01*
X155424Y107107D01*
X155407Y107207D01*
X155394Y107308D01*
X155385Y107409D01*
X155379Y107510D01*
X155377Y107611D01*
X155377Y112127D01*
X155378Y112127D02*
X155380Y112246D01*
X155386Y112366D01*
X155396Y112485D01*
X155410Y112603D01*
X155427Y112722D01*
X155449Y112839D01*
X155474Y112956D01*
X155504Y113071D01*
X155537Y113186D01*
X155574Y113300D01*
X155614Y113412D01*
X155659Y113523D01*
X155707Y113632D01*
X155758Y113740D01*
X155813Y113846D01*
X155872Y113950D01*
X155934Y114052D01*
X155999Y114152D01*
X156068Y114250D01*
X156140Y114346D01*
X156215Y114439D01*
X156292Y114529D01*
X156373Y114617D01*
X156457Y114702D01*
X156544Y114784D01*
X156633Y114864D01*
X156725Y114940D01*
X156819Y115014D01*
X156916Y115084D01*
X157014Y115151D01*
X157115Y115215D01*
X157219Y115275D01*
X157324Y115332D01*
X157431Y115385D01*
X157539Y115435D01*
X157649Y115481D01*
X157761Y115523D01*
X157874Y115562D01*
X157988Y115597D01*
X158103Y115628D01*
X158220Y115656D01*
X158337Y115679D01*
X158454Y115699D01*
X158573Y115715D01*
X158692Y115727D01*
X158811Y115735D01*
X158930Y115739D01*
X159050Y115739D01*
X159169Y115735D01*
X159288Y115727D01*
X159407Y115715D01*
X159526Y115699D01*
X159643Y115679D01*
X159760Y115656D01*
X159877Y115628D01*
X159992Y115597D01*
X160106Y115562D01*
X160219Y115523D01*
X160331Y115481D01*
X160441Y115435D01*
X160549Y115385D01*
X160656Y115332D01*
X160761Y115275D01*
X160865Y115215D01*
X160966Y115151D01*
X161064Y115084D01*
X161161Y115014D01*
X161255Y114940D01*
X161347Y114864D01*
X161436Y114784D01*
X161523Y114702D01*
X161607Y114617D01*
X161688Y114529D01*
X161765Y114439D01*
X161840Y114346D01*
X161912Y114250D01*
X161981Y114152D01*
X162046Y114052D01*
X162108Y113950D01*
X162167Y113846D01*
X162222Y113740D01*
X162273Y113632D01*
X162321Y113523D01*
X162366Y113412D01*
X162406Y113300D01*
X162443Y113186D01*
X162476Y113071D01*
X162506Y112956D01*
X162531Y112839D01*
X162553Y112722D01*
X162570Y112603D01*
X162584Y112485D01*
X162594Y112366D01*
X162600Y112246D01*
X162602Y112127D01*
X162602Y110321D01*
X155377Y110321D01*
X169161Y107611D02*
X169161Y121158D01*
X169161Y107611D02*
X169163Y107510D01*
X169169Y107409D01*
X169178Y107308D01*
X169191Y107207D01*
X169208Y107107D01*
X169229Y107008D01*
X169253Y106910D01*
X169281Y106813D01*
X169313Y106716D01*
X169348Y106621D01*
X169387Y106528D01*
X169429Y106436D01*
X169475Y106345D01*
X169524Y106257D01*
X169576Y106170D01*
X169632Y106085D01*
X169690Y106002D01*
X169752Y105922D01*
X169817Y105844D01*
X169884Y105768D01*
X169954Y105695D01*
X170027Y105625D01*
X170103Y105558D01*
X170181Y105493D01*
X170261Y105431D01*
X170344Y105373D01*
X170429Y105317D01*
X170516Y105265D01*
X170604Y105216D01*
X170695Y105170D01*
X170787Y105128D01*
X170880Y105089D01*
X170975Y105054D01*
X171072Y105022D01*
X171169Y104994D01*
X171267Y104970D01*
X171366Y104949D01*
X171466Y104932D01*
X171567Y104919D01*
X171668Y104910D01*
X171769Y104904D01*
X171870Y104902D01*
X177855Y99483D02*
X177855Y115739D01*
X182371Y115739D01*
X182475Y115737D01*
X182578Y115731D01*
X182682Y115721D01*
X182785Y115707D01*
X182887Y115689D01*
X182988Y115668D01*
X183089Y115642D01*
X183188Y115613D01*
X183287Y115580D01*
X183384Y115543D01*
X183479Y115502D01*
X183573Y115458D01*
X183665Y115410D01*
X183755Y115359D01*
X183844Y115304D01*
X183930Y115246D01*
X184013Y115184D01*
X184095Y115120D01*
X184173Y115052D01*
X184249Y114982D01*
X184323Y114909D01*
X184393Y114832D01*
X184461Y114754D01*
X184525Y114672D01*
X184587Y114589D01*
X184645Y114503D01*
X184700Y114414D01*
X184751Y114324D01*
X184799Y114232D01*
X184843Y114138D01*
X184884Y114043D01*
X184921Y113946D01*
X184954Y113847D01*
X184983Y113748D01*
X185009Y113647D01*
X185030Y113546D01*
X185048Y113444D01*
X185062Y113341D01*
X185072Y113237D01*
X185078Y113134D01*
X185080Y113030D01*
X185080Y107611D01*
X185078Y107510D01*
X185072Y107409D01*
X185063Y107308D01*
X185050Y107207D01*
X185033Y107107D01*
X185012Y107008D01*
X184988Y106910D01*
X184960Y106813D01*
X184928Y106716D01*
X184893Y106621D01*
X184854Y106528D01*
X184812Y106436D01*
X184766Y106345D01*
X184717Y106256D01*
X184665Y106170D01*
X184609Y106085D01*
X184551Y106002D01*
X184489Y105922D01*
X184424Y105844D01*
X184357Y105768D01*
X184287Y105695D01*
X184214Y105625D01*
X184138Y105558D01*
X184060Y105493D01*
X183980Y105431D01*
X183897Y105373D01*
X183812Y105317D01*
X183726Y105265D01*
X183637Y105216D01*
X183546Y105170D01*
X183454Y105128D01*
X183361Y105089D01*
X183266Y105054D01*
X183169Y105022D01*
X183072Y104994D01*
X182974Y104970D01*
X182875Y104949D01*
X182775Y104932D01*
X182674Y104919D01*
X182573Y104910D01*
X182472Y104904D01*
X182371Y104902D01*
X177855Y104902D01*
X194417Y111224D02*
X198481Y111224D01*
X194417Y111224D02*
X194305Y111222D01*
X194194Y111216D01*
X194083Y111206D01*
X193972Y111193D01*
X193862Y111175D01*
X193753Y111153D01*
X193644Y111128D01*
X193536Y111099D01*
X193430Y111066D01*
X193324Y111029D01*
X193220Y110989D01*
X193118Y110945D01*
X193017Y110897D01*
X192918Y110846D01*
X192820Y110791D01*
X192725Y110733D01*
X192632Y110672D01*
X192541Y110607D01*
X192452Y110539D01*
X192366Y110468D01*
X192283Y110395D01*
X192202Y110318D01*
X192123Y110238D01*
X192048Y110156D01*
X191976Y110071D01*
X191906Y109984D01*
X191840Y109894D01*
X191777Y109802D01*
X191717Y109707D01*
X191661Y109611D01*
X191608Y109513D01*
X191559Y109413D01*
X191513Y109311D01*
X191471Y109208D01*
X191432Y109103D01*
X191397Y108997D01*
X191366Y108890D01*
X191339Y108782D01*
X191315Y108673D01*
X191296Y108563D01*
X191280Y108453D01*
X191268Y108342D01*
X191260Y108230D01*
X191256Y108119D01*
X191256Y108007D01*
X191260Y107896D01*
X191268Y107784D01*
X191280Y107673D01*
X191296Y107563D01*
X191315Y107453D01*
X191339Y107344D01*
X191366Y107236D01*
X191397Y107129D01*
X191432Y107023D01*
X191471Y106918D01*
X191513Y106815D01*
X191559Y106713D01*
X191608Y106613D01*
X191661Y106515D01*
X191717Y106419D01*
X191777Y106324D01*
X191840Y106232D01*
X191906Y106142D01*
X191976Y106055D01*
X192048Y105970D01*
X192123Y105888D01*
X192202Y105808D01*
X192283Y105731D01*
X192366Y105658D01*
X192452Y105587D01*
X192541Y105519D01*
X192632Y105454D01*
X192725Y105393D01*
X192820Y105335D01*
X192918Y105280D01*
X193017Y105229D01*
X193118Y105181D01*
X193220Y105137D01*
X193324Y105097D01*
X193430Y105060D01*
X193536Y105027D01*
X193644Y104998D01*
X193753Y104973D01*
X193862Y104951D01*
X193972Y104933D01*
X194083Y104920D01*
X194194Y104910D01*
X194305Y104904D01*
X194417Y104902D01*
X198481Y104902D01*
X198481Y113030D01*
X198480Y113030D02*
X198478Y113131D01*
X198472Y113232D01*
X198463Y113333D01*
X198450Y113434D01*
X198433Y113534D01*
X198412Y113633D01*
X198388Y113731D01*
X198360Y113828D01*
X198328Y113925D01*
X198293Y114020D01*
X198254Y114113D01*
X198212Y114205D01*
X198166Y114296D01*
X198117Y114385D01*
X198065Y114471D01*
X198009Y114556D01*
X197951Y114639D01*
X197889Y114719D01*
X197824Y114797D01*
X197757Y114873D01*
X197687Y114946D01*
X197614Y115016D01*
X197538Y115083D01*
X197460Y115148D01*
X197380Y115210D01*
X197297Y115268D01*
X197212Y115324D01*
X197126Y115376D01*
X197037Y115425D01*
X196946Y115471D01*
X196854Y115513D01*
X196761Y115552D01*
X196666Y115587D01*
X196569Y115619D01*
X196472Y115647D01*
X196374Y115671D01*
X196275Y115692D01*
X196175Y115709D01*
X196074Y115722D01*
X195973Y115731D01*
X195872Y115737D01*
X195771Y115739D01*
X192159Y115739D01*
X204100Y115739D02*
X209518Y115739D01*
X205906Y121158D02*
X205906Y107611D01*
X205908Y107510D01*
X205914Y107409D01*
X205923Y107308D01*
X205936Y107207D01*
X205953Y107107D01*
X205974Y107008D01*
X205998Y106910D01*
X206026Y106813D01*
X206058Y106716D01*
X206093Y106621D01*
X206132Y106528D01*
X206174Y106436D01*
X206220Y106345D01*
X206269Y106257D01*
X206321Y106170D01*
X206377Y106085D01*
X206435Y106002D01*
X206497Y105922D01*
X206562Y105844D01*
X206629Y105768D01*
X206699Y105695D01*
X206772Y105625D01*
X206848Y105558D01*
X206926Y105493D01*
X207006Y105431D01*
X207089Y105373D01*
X207174Y105317D01*
X207261Y105265D01*
X207349Y105216D01*
X207440Y105170D01*
X207532Y105128D01*
X207625Y105089D01*
X207720Y105054D01*
X207817Y105022D01*
X207914Y104994D01*
X208012Y104970D01*
X208111Y104949D01*
X208211Y104932D01*
X208312Y104919D01*
X208413Y104910D01*
X208514Y104904D01*
X208615Y104902D01*
X209518Y104902D01*
X218006Y104902D02*
X222522Y104902D01*
X218006Y104902D02*
X217905Y104904D01*
X217804Y104910D01*
X217703Y104919D01*
X217602Y104932D01*
X217502Y104949D01*
X217403Y104970D01*
X217305Y104994D01*
X217208Y105022D01*
X217111Y105054D01*
X217016Y105089D01*
X216923Y105128D01*
X216831Y105170D01*
X216740Y105216D01*
X216652Y105265D01*
X216565Y105317D01*
X216480Y105373D01*
X216397Y105431D01*
X216317Y105493D01*
X216239Y105558D01*
X216163Y105625D01*
X216090Y105695D01*
X216020Y105768D01*
X215953Y105844D01*
X215888Y105922D01*
X215826Y106002D01*
X215768Y106085D01*
X215712Y106170D01*
X215660Y106257D01*
X215611Y106345D01*
X215565Y106436D01*
X215523Y106528D01*
X215484Y106621D01*
X215449Y106716D01*
X215417Y106813D01*
X215389Y106910D01*
X215365Y107008D01*
X215344Y107107D01*
X215327Y107207D01*
X215314Y107308D01*
X215305Y107409D01*
X215299Y107510D01*
X215297Y107611D01*
X215297Y112127D01*
X215299Y112246D01*
X215305Y112366D01*
X215315Y112485D01*
X215329Y112603D01*
X215346Y112722D01*
X215368Y112839D01*
X215393Y112956D01*
X215423Y113071D01*
X215456Y113186D01*
X215493Y113300D01*
X215533Y113412D01*
X215578Y113523D01*
X215626Y113632D01*
X215677Y113740D01*
X215732Y113846D01*
X215791Y113950D01*
X215853Y114052D01*
X215918Y114152D01*
X215987Y114250D01*
X216059Y114346D01*
X216134Y114439D01*
X216211Y114529D01*
X216292Y114617D01*
X216376Y114702D01*
X216463Y114784D01*
X216552Y114864D01*
X216644Y114940D01*
X216738Y115014D01*
X216835Y115084D01*
X216933Y115151D01*
X217034Y115215D01*
X217138Y115275D01*
X217243Y115332D01*
X217350Y115385D01*
X217458Y115435D01*
X217568Y115481D01*
X217680Y115523D01*
X217793Y115562D01*
X217907Y115597D01*
X218022Y115628D01*
X218139Y115656D01*
X218256Y115679D01*
X218373Y115699D01*
X218492Y115715D01*
X218611Y115727D01*
X218730Y115735D01*
X218849Y115739D01*
X218969Y115739D01*
X219088Y115735D01*
X219207Y115727D01*
X219326Y115715D01*
X219445Y115699D01*
X219562Y115679D01*
X219679Y115656D01*
X219796Y115628D01*
X219911Y115597D01*
X220025Y115562D01*
X220138Y115523D01*
X220250Y115481D01*
X220360Y115435D01*
X220468Y115385D01*
X220575Y115332D01*
X220680Y115275D01*
X220784Y115215D01*
X220885Y115151D01*
X220983Y115084D01*
X221080Y115014D01*
X221174Y114940D01*
X221266Y114864D01*
X221355Y114784D01*
X221442Y114702D01*
X221526Y114617D01*
X221607Y114529D01*
X221684Y114439D01*
X221759Y114346D01*
X221831Y114250D01*
X221900Y114152D01*
X221965Y114052D01*
X222027Y113950D01*
X222086Y113846D01*
X222141Y113740D01*
X222192Y113632D01*
X222240Y113523D01*
X222285Y113412D01*
X222325Y113300D01*
X222362Y113186D01*
X222395Y113071D01*
X222425Y112956D01*
X222450Y112839D01*
X222472Y112722D01*
X222489Y112603D01*
X222503Y112485D01*
X222513Y112366D01*
X222519Y112246D01*
X222521Y112127D01*
X222522Y112127D02*
X222522Y110321D01*
X215297Y110321D01*
X229081Y107611D02*
X229081Y121158D01*
X229081Y107611D02*
X229083Y107510D01*
X229089Y107409D01*
X229098Y107308D01*
X229111Y107207D01*
X229128Y107107D01*
X229149Y107008D01*
X229173Y106910D01*
X229201Y106813D01*
X229233Y106716D01*
X229268Y106621D01*
X229307Y106528D01*
X229349Y106436D01*
X229395Y106345D01*
X229444Y106257D01*
X229496Y106170D01*
X229552Y106085D01*
X229610Y106002D01*
X229672Y105922D01*
X229737Y105844D01*
X229804Y105768D01*
X229874Y105695D01*
X229947Y105625D01*
X230023Y105558D01*
X230101Y105493D01*
X230181Y105431D01*
X230264Y105373D01*
X230349Y105317D01*
X230436Y105265D01*
X230524Y105216D01*
X230615Y105170D01*
X230707Y105128D01*
X230800Y105089D01*
X230895Y105054D01*
X230992Y105022D01*
X231089Y104994D01*
X231187Y104970D01*
X231286Y104949D01*
X231386Y104932D01*
X231487Y104919D01*
X231588Y104910D01*
X231689Y104904D01*
X231790Y104902D01*
X237320Y113030D02*
X237324Y113350D01*
X237335Y113669D01*
X237354Y113989D01*
X237381Y114307D01*
X237415Y114625D01*
X237457Y114942D01*
X237507Y115258D01*
X237564Y115573D01*
X237628Y115886D01*
X237700Y116198D01*
X237779Y116508D01*
X237866Y116815D01*
X237960Y117121D01*
X238061Y117424D01*
X238170Y117725D01*
X238285Y118023D01*
X238408Y118319D01*
X238538Y118611D01*
X238675Y118900D01*
X238674Y118901D02*
X238713Y119009D01*
X238756Y119116D01*
X238802Y119221D01*
X238853Y119325D01*
X238906Y119427D01*
X238963Y119527D01*
X239024Y119625D01*
X239088Y119720D01*
X239155Y119814D01*
X239226Y119905D01*
X239299Y119994D01*
X239376Y120080D01*
X239455Y120163D01*
X239537Y120244D01*
X239622Y120322D01*
X239710Y120396D01*
X239800Y120468D01*
X239892Y120536D01*
X239987Y120602D01*
X240084Y120664D01*
X240183Y120722D01*
X240285Y120778D01*
X240387Y120829D01*
X240492Y120877D01*
X240598Y120922D01*
X240706Y120963D01*
X240815Y121000D01*
X240925Y121033D01*
X241037Y121062D01*
X241149Y121088D01*
X241262Y121110D01*
X241376Y121127D01*
X241490Y121141D01*
X241605Y121151D01*
X241720Y121157D01*
X241835Y121159D01*
X241835Y121158D02*
X241950Y121156D01*
X242065Y121150D01*
X242180Y121140D01*
X242294Y121126D01*
X242408Y121109D01*
X242521Y121087D01*
X242633Y121061D01*
X242745Y121032D01*
X242855Y120999D01*
X242964Y120962D01*
X243072Y120921D01*
X243178Y120876D01*
X243283Y120828D01*
X243385Y120777D01*
X243486Y120721D01*
X243586Y120663D01*
X243683Y120601D01*
X243777Y120536D01*
X243870Y120467D01*
X243960Y120395D01*
X244048Y120321D01*
X244133Y120243D01*
X244215Y120162D01*
X244294Y120079D01*
X244371Y119993D01*
X244444Y119904D01*
X244515Y119813D01*
X244582Y119719D01*
X244646Y119624D01*
X244707Y119526D01*
X244764Y119426D01*
X244817Y119324D01*
X244868Y119220D01*
X244914Y119115D01*
X244957Y119008D01*
X244996Y118900D01*
X244995Y118900D02*
X245132Y118611D01*
X245262Y118319D01*
X245385Y118023D01*
X245500Y117725D01*
X245609Y117424D01*
X245710Y117121D01*
X245804Y116815D01*
X245891Y116508D01*
X245970Y116198D01*
X246042Y115886D01*
X246106Y115573D01*
X246163Y115258D01*
X246213Y114942D01*
X246255Y114625D01*
X246289Y114307D01*
X246316Y113989D01*
X246335Y113669D01*
X246346Y113350D01*
X246350Y113030D01*
X237320Y113030D02*
X237324Y112710D01*
X237335Y112391D01*
X237354Y112071D01*
X237381Y111753D01*
X237415Y111435D01*
X237457Y111118D01*
X237507Y110802D01*
X237564Y110487D01*
X237628Y110174D01*
X237700Y109862D01*
X237779Y109552D01*
X237866Y109245D01*
X237960Y108939D01*
X238061Y108636D01*
X238170Y108335D01*
X238285Y108037D01*
X238408Y107741D01*
X238538Y107449D01*
X238675Y107160D01*
X238674Y107160D02*
X238713Y107052D01*
X238756Y106945D01*
X238802Y106840D01*
X238853Y106736D01*
X238906Y106634D01*
X238963Y106534D01*
X239024Y106436D01*
X239088Y106341D01*
X239155Y106247D01*
X239226Y106156D01*
X239299Y106067D01*
X239376Y105981D01*
X239455Y105898D01*
X239537Y105817D01*
X239622Y105739D01*
X239710Y105665D01*
X239800Y105593D01*
X239893Y105524D01*
X239987Y105459D01*
X240084Y105397D01*
X240184Y105339D01*
X240285Y105283D01*
X240387Y105232D01*
X240492Y105184D01*
X240598Y105139D01*
X240706Y105098D01*
X240815Y105061D01*
X240925Y105028D01*
X241037Y104999D01*
X241149Y104973D01*
X241262Y104951D01*
X241376Y104934D01*
X241490Y104920D01*
X241605Y104910D01*
X241720Y104904D01*
X241835Y104902D01*
X244995Y107160D02*
X245132Y107449D01*
X245262Y107741D01*
X245385Y108037D01*
X245500Y108335D01*
X245609Y108636D01*
X245710Y108939D01*
X245804Y109245D01*
X245891Y109552D01*
X245970Y109862D01*
X246042Y110174D01*
X246106Y110487D01*
X246163Y110802D01*
X246213Y111118D01*
X246255Y111435D01*
X246289Y111753D01*
X246316Y112071D01*
X246335Y112391D01*
X246346Y112710D01*
X246350Y113030D01*
X244996Y107160D02*
X244957Y107052D01*
X244914Y106945D01*
X244868Y106840D01*
X244817Y106736D01*
X244764Y106634D01*
X244707Y106534D01*
X244646Y106436D01*
X244582Y106341D01*
X244515Y106247D01*
X244444Y106156D01*
X244371Y106067D01*
X244294Y105981D01*
X244215Y105898D01*
X244133Y105817D01*
X244048Y105739D01*
X243960Y105665D01*
X243870Y105593D01*
X243777Y105524D01*
X243683Y105459D01*
X243586Y105397D01*
X243486Y105339D01*
X243385Y105283D01*
X243282Y105232D01*
X243178Y105184D01*
X243072Y105139D01*
X242964Y105098D01*
X242855Y105061D01*
X242745Y105028D01*
X242633Y104999D01*
X242521Y104973D01*
X242408Y104951D01*
X242294Y104934D01*
X242180Y104920D01*
X242065Y104910D01*
X241950Y104904D01*
X241835Y104902D01*
X238223Y108514D02*
X245448Y117546D01*
X252951Y117546D02*
X257466Y121158D01*
X257466Y104902D01*
X252951Y104902D02*
X261982Y104902D01*
X268582Y113030D02*
X268586Y113350D01*
X268597Y113669D01*
X268616Y113989D01*
X268643Y114307D01*
X268677Y114625D01*
X268719Y114942D01*
X268769Y115258D01*
X268826Y115573D01*
X268890Y115886D01*
X268962Y116198D01*
X269041Y116508D01*
X269128Y116815D01*
X269222Y117121D01*
X269323Y117424D01*
X269432Y117725D01*
X269547Y118023D01*
X269670Y118319D01*
X269800Y118611D01*
X269937Y118900D01*
X269936Y118901D02*
X269975Y119009D01*
X270018Y119116D01*
X270064Y119221D01*
X270115Y119325D01*
X270168Y119427D01*
X270225Y119527D01*
X270286Y119625D01*
X270350Y119720D01*
X270417Y119814D01*
X270488Y119905D01*
X270561Y119994D01*
X270638Y120080D01*
X270717Y120163D01*
X270799Y120244D01*
X270884Y120322D01*
X270972Y120396D01*
X271062Y120468D01*
X271154Y120536D01*
X271249Y120602D01*
X271346Y120664D01*
X271445Y120722D01*
X271547Y120778D01*
X271649Y120829D01*
X271754Y120877D01*
X271860Y120922D01*
X271968Y120963D01*
X272077Y121000D01*
X272187Y121033D01*
X272299Y121062D01*
X272411Y121088D01*
X272524Y121110D01*
X272638Y121127D01*
X272752Y121141D01*
X272867Y121151D01*
X272982Y121157D01*
X273097Y121159D01*
X273097Y121158D02*
X273212Y121156D01*
X273327Y121150D01*
X273442Y121140D01*
X273556Y121126D01*
X273670Y121109D01*
X273783Y121087D01*
X273895Y121061D01*
X274007Y121032D01*
X274117Y120999D01*
X274226Y120962D01*
X274334Y120921D01*
X274440Y120876D01*
X274545Y120828D01*
X274647Y120777D01*
X274748Y120721D01*
X274848Y120663D01*
X274945Y120601D01*
X275039Y120536D01*
X275132Y120467D01*
X275222Y120395D01*
X275310Y120321D01*
X275395Y120243D01*
X275477Y120162D01*
X275556Y120079D01*
X275633Y119993D01*
X275706Y119904D01*
X275777Y119813D01*
X275844Y119719D01*
X275908Y119624D01*
X275969Y119526D01*
X276026Y119426D01*
X276079Y119324D01*
X276130Y119220D01*
X276176Y119115D01*
X276219Y119008D01*
X276258Y118900D01*
X276395Y118611D01*
X276525Y118319D01*
X276648Y118023D01*
X276763Y117725D01*
X276872Y117424D01*
X276973Y117121D01*
X277067Y116815D01*
X277154Y116508D01*
X277233Y116198D01*
X277305Y115886D01*
X277369Y115573D01*
X277426Y115258D01*
X277476Y114942D01*
X277518Y114625D01*
X277552Y114307D01*
X277579Y113989D01*
X277598Y113669D01*
X277609Y113350D01*
X277613Y113030D01*
X268582Y113030D02*
X268586Y112710D01*
X268597Y112391D01*
X268616Y112071D01*
X268643Y111753D01*
X268677Y111435D01*
X268719Y111118D01*
X268769Y110802D01*
X268826Y110487D01*
X268890Y110174D01*
X268962Y109862D01*
X269041Y109552D01*
X269128Y109245D01*
X269222Y108939D01*
X269323Y108636D01*
X269432Y108335D01*
X269547Y108037D01*
X269670Y107741D01*
X269800Y107449D01*
X269937Y107160D01*
X269936Y107160D02*
X269975Y107052D01*
X270018Y106945D01*
X270064Y106840D01*
X270115Y106736D01*
X270168Y106634D01*
X270225Y106534D01*
X270286Y106436D01*
X270350Y106341D01*
X270417Y106247D01*
X270488Y106156D01*
X270561Y106067D01*
X270638Y105981D01*
X270717Y105898D01*
X270799Y105817D01*
X270884Y105739D01*
X270972Y105665D01*
X271062Y105593D01*
X271155Y105524D01*
X271249Y105459D01*
X271346Y105397D01*
X271446Y105339D01*
X271547Y105283D01*
X271649Y105232D01*
X271754Y105184D01*
X271860Y105139D01*
X271968Y105098D01*
X272077Y105061D01*
X272187Y105028D01*
X272299Y104999D01*
X272411Y104973D01*
X272524Y104951D01*
X272638Y104934D01*
X272752Y104920D01*
X272867Y104910D01*
X272982Y104904D01*
X273097Y104902D01*
X276258Y107160D02*
X276395Y107449D01*
X276525Y107741D01*
X276648Y108037D01*
X276763Y108335D01*
X276872Y108636D01*
X276973Y108939D01*
X277067Y109245D01*
X277154Y109552D01*
X277233Y109862D01*
X277305Y110174D01*
X277369Y110487D01*
X277426Y110802D01*
X277476Y111118D01*
X277518Y111435D01*
X277552Y111753D01*
X277579Y112071D01*
X277598Y112391D01*
X277609Y112710D01*
X277613Y113030D01*
X276258Y107160D02*
X276219Y107052D01*
X276176Y106945D01*
X276130Y106840D01*
X276079Y106736D01*
X276026Y106634D01*
X275969Y106534D01*
X275908Y106436D01*
X275844Y106341D01*
X275777Y106247D01*
X275706Y106156D01*
X275633Y106067D01*
X275556Y105981D01*
X275477Y105898D01*
X275395Y105817D01*
X275310Y105739D01*
X275222Y105665D01*
X275132Y105593D01*
X275039Y105524D01*
X274945Y105459D01*
X274848Y105397D01*
X274748Y105339D01*
X274647Y105283D01*
X274544Y105232D01*
X274440Y105184D01*
X274334Y105139D01*
X274226Y105098D01*
X274117Y105061D01*
X274007Y105028D01*
X273895Y104999D01*
X273783Y104973D01*
X273670Y104951D01*
X273556Y104934D01*
X273442Y104920D01*
X273327Y104910D01*
X273212Y104904D01*
X273097Y104902D01*
X269485Y108514D02*
X276710Y117546D01*
X284213Y113933D02*
X289632Y113933D01*
X289750Y113931D01*
X289868Y113925D01*
X289986Y113916D01*
X290103Y113902D01*
X290220Y113885D01*
X290337Y113864D01*
X290452Y113839D01*
X290567Y113810D01*
X290681Y113777D01*
X290793Y113741D01*
X290904Y113701D01*
X291014Y113658D01*
X291123Y113611D01*
X291230Y113561D01*
X291335Y113506D01*
X291438Y113449D01*
X291539Y113388D01*
X291639Y113324D01*
X291736Y113257D01*
X291831Y113187D01*
X291923Y113113D01*
X292014Y113037D01*
X292101Y112957D01*
X292186Y112875D01*
X292268Y112790D01*
X292348Y112703D01*
X292424Y112612D01*
X292498Y112520D01*
X292568Y112425D01*
X292635Y112328D01*
X292699Y112228D01*
X292760Y112127D01*
X292817Y112024D01*
X292872Y111919D01*
X292922Y111812D01*
X292969Y111703D01*
X293012Y111593D01*
X293052Y111482D01*
X293088Y111370D01*
X293121Y111256D01*
X293150Y111141D01*
X293175Y111026D01*
X293196Y110909D01*
X293213Y110792D01*
X293227Y110675D01*
X293236Y110557D01*
X293242Y110439D01*
X293244Y110321D01*
X293244Y109418D01*
X293245Y109418D02*
X293243Y109285D01*
X293237Y109153D01*
X293227Y109021D01*
X293214Y108889D01*
X293196Y108757D01*
X293175Y108627D01*
X293150Y108496D01*
X293121Y108367D01*
X293088Y108239D01*
X293052Y108111D01*
X293012Y107985D01*
X292968Y107860D01*
X292920Y107736D01*
X292869Y107614D01*
X292814Y107493D01*
X292756Y107374D01*
X292694Y107256D01*
X292629Y107141D01*
X292560Y107027D01*
X292489Y106916D01*
X292413Y106807D01*
X292335Y106700D01*
X292254Y106595D01*
X292169Y106493D01*
X292082Y106393D01*
X291992Y106296D01*
X291899Y106201D01*
X291803Y106110D01*
X291705Y106021D01*
X291604Y105935D01*
X291500Y105852D01*
X291394Y105772D01*
X291286Y105696D01*
X291176Y105622D01*
X291063Y105552D01*
X290949Y105485D01*
X290832Y105422D01*
X290714Y105362D01*
X290594Y105305D01*
X290472Y105252D01*
X290349Y105203D01*
X290225Y105157D01*
X290099Y105115D01*
X289972Y105077D01*
X289844Y105042D01*
X289715Y105011D01*
X289586Y104984D01*
X289455Y104961D01*
X289324Y104941D01*
X289192Y104926D01*
X289060Y104914D01*
X288928Y104906D01*
X288795Y104902D01*
X288663Y104902D01*
X288530Y104906D01*
X288398Y104914D01*
X288266Y104926D01*
X288134Y104941D01*
X288003Y104961D01*
X287872Y104984D01*
X287743Y105011D01*
X287614Y105042D01*
X287486Y105077D01*
X287359Y105115D01*
X287233Y105157D01*
X287109Y105203D01*
X286986Y105252D01*
X286864Y105305D01*
X286744Y105362D01*
X286626Y105422D01*
X286509Y105485D01*
X286395Y105552D01*
X286282Y105622D01*
X286172Y105696D01*
X286064Y105772D01*
X285958Y105852D01*
X285854Y105935D01*
X285753Y106021D01*
X285655Y106110D01*
X285559Y106201D01*
X285466Y106296D01*
X285376Y106393D01*
X285289Y106493D01*
X285204Y106595D01*
X285123Y106700D01*
X285045Y106807D01*
X284969Y106916D01*
X284898Y107027D01*
X284829Y107141D01*
X284764Y107256D01*
X284702Y107374D01*
X284644Y107493D01*
X284589Y107614D01*
X284538Y107736D01*
X284490Y107860D01*
X284446Y107985D01*
X284406Y108111D01*
X284370Y108239D01*
X284337Y108367D01*
X284308Y108496D01*
X284283Y108627D01*
X284262Y108757D01*
X284244Y108889D01*
X284231Y109021D01*
X284221Y109153D01*
X284215Y109285D01*
X284213Y109418D01*
X284213Y113933D01*
X284215Y114110D01*
X284222Y114288D01*
X284233Y114465D01*
X284248Y114641D01*
X284267Y114817D01*
X284291Y114993D01*
X284319Y115168D01*
X284352Y115343D01*
X284389Y115516D01*
X284430Y115689D01*
X284475Y115860D01*
X284524Y116030D01*
X284578Y116199D01*
X284635Y116367D01*
X284697Y116533D01*
X284763Y116698D01*
X284833Y116861D01*
X284907Y117022D01*
X284984Y117181D01*
X285066Y117339D01*
X285152Y117494D01*
X285241Y117647D01*
X285334Y117798D01*
X285431Y117947D01*
X285531Y118093D01*
X285635Y118237D01*
X285742Y118378D01*
X285853Y118516D01*
X285967Y118652D01*
X286085Y118785D01*
X286205Y118915D01*
X286329Y119042D01*
X286456Y119166D01*
X286586Y119286D01*
X286719Y119404D01*
X286854Y119518D01*
X286993Y119629D01*
X287134Y119736D01*
X287278Y119840D01*
X287424Y119940D01*
X287573Y120037D01*
X287724Y120130D01*
X287877Y120219D01*
X288032Y120305D01*
X288190Y120387D01*
X288349Y120464D01*
X288510Y120538D01*
X288673Y120608D01*
X288838Y120674D01*
X289004Y120736D01*
X289172Y120793D01*
X289341Y120847D01*
X289511Y120896D01*
X289682Y120941D01*
X289855Y120982D01*
X290028Y121019D01*
X290203Y121052D01*
X290378Y121080D01*
X290554Y121104D01*
X290730Y121123D01*
X290906Y121138D01*
X291083Y121149D01*
X291261Y121156D01*
X291438Y121158D01*
X299844Y117546D02*
X304360Y121158D01*
X304360Y104902D01*
X308875Y104902D02*
X299844Y104902D01*
X319088Y112127D02*
X324507Y112127D01*
X319088Y112127D02*
X318970Y112129D01*
X318852Y112135D01*
X318734Y112144D01*
X318617Y112158D01*
X318500Y112175D01*
X318383Y112196D01*
X318268Y112221D01*
X318153Y112250D01*
X318039Y112283D01*
X317927Y112319D01*
X317816Y112359D01*
X317706Y112402D01*
X317597Y112449D01*
X317490Y112499D01*
X317385Y112554D01*
X317282Y112611D01*
X317181Y112672D01*
X317081Y112736D01*
X316984Y112803D01*
X316889Y112873D01*
X316797Y112947D01*
X316706Y113023D01*
X316619Y113103D01*
X316534Y113185D01*
X316452Y113270D01*
X316372Y113357D01*
X316296Y113448D01*
X316222Y113540D01*
X316152Y113635D01*
X316085Y113732D01*
X316021Y113832D01*
X315960Y113933D01*
X315903Y114036D01*
X315848Y114141D01*
X315798Y114248D01*
X315751Y114357D01*
X315708Y114467D01*
X315668Y114578D01*
X315632Y114690D01*
X315599Y114804D01*
X315570Y114919D01*
X315545Y115034D01*
X315524Y115151D01*
X315507Y115268D01*
X315493Y115385D01*
X315484Y115503D01*
X315478Y115621D01*
X315476Y115739D01*
X315476Y116642D01*
X315475Y116642D02*
X315477Y116775D01*
X315483Y116907D01*
X315493Y117039D01*
X315506Y117171D01*
X315524Y117303D01*
X315545Y117433D01*
X315570Y117564D01*
X315599Y117693D01*
X315632Y117821D01*
X315668Y117949D01*
X315708Y118075D01*
X315752Y118200D01*
X315800Y118324D01*
X315851Y118446D01*
X315906Y118567D01*
X315964Y118686D01*
X316026Y118804D01*
X316091Y118919D01*
X316160Y119033D01*
X316231Y119144D01*
X316307Y119253D01*
X316385Y119360D01*
X316466Y119465D01*
X316551Y119567D01*
X316638Y119667D01*
X316728Y119764D01*
X316821Y119859D01*
X316917Y119950D01*
X317015Y120039D01*
X317116Y120125D01*
X317220Y120208D01*
X317326Y120288D01*
X317434Y120364D01*
X317544Y120438D01*
X317657Y120508D01*
X317771Y120575D01*
X317888Y120638D01*
X318006Y120698D01*
X318126Y120755D01*
X318248Y120808D01*
X318371Y120857D01*
X318495Y120903D01*
X318621Y120945D01*
X318748Y120983D01*
X318876Y121018D01*
X319005Y121049D01*
X319134Y121076D01*
X319265Y121099D01*
X319396Y121119D01*
X319528Y121134D01*
X319660Y121146D01*
X319792Y121154D01*
X319925Y121158D01*
X320057Y121158D01*
X320190Y121154D01*
X320322Y121146D01*
X320454Y121134D01*
X320586Y121119D01*
X320717Y121099D01*
X320848Y121076D01*
X320977Y121049D01*
X321106Y121018D01*
X321234Y120983D01*
X321361Y120945D01*
X321487Y120903D01*
X321611Y120857D01*
X321734Y120808D01*
X321856Y120755D01*
X321976Y120698D01*
X322094Y120638D01*
X322211Y120575D01*
X322325Y120508D01*
X322438Y120438D01*
X322548Y120364D01*
X322656Y120288D01*
X322762Y120208D01*
X322866Y120125D01*
X322967Y120039D01*
X323065Y119950D01*
X323161Y119859D01*
X323254Y119764D01*
X323344Y119667D01*
X323431Y119567D01*
X323516Y119465D01*
X323597Y119360D01*
X323675Y119253D01*
X323751Y119144D01*
X323822Y119033D01*
X323891Y118919D01*
X323956Y118804D01*
X324018Y118686D01*
X324076Y118567D01*
X324131Y118446D01*
X324182Y118324D01*
X324230Y118200D01*
X324274Y118075D01*
X324314Y117949D01*
X324350Y117821D01*
X324383Y117693D01*
X324412Y117564D01*
X324437Y117433D01*
X324458Y117303D01*
X324476Y117171D01*
X324489Y117039D01*
X324499Y116907D01*
X324505Y116775D01*
X324507Y116642D01*
X324507Y112127D01*
X324505Y111952D01*
X324499Y111778D01*
X324488Y111604D01*
X324473Y111430D01*
X324454Y111256D01*
X324431Y111083D01*
X324404Y110911D01*
X324372Y110739D01*
X324337Y110568D01*
X324297Y110398D01*
X324253Y110229D01*
X324205Y110061D01*
X324153Y109894D01*
X324097Y109729D01*
X324037Y109565D01*
X323974Y109402D01*
X323906Y109242D01*
X323834Y109082D01*
X323759Y108925D01*
X323679Y108769D01*
X323596Y108616D01*
X323510Y108464D01*
X323419Y108315D01*
X323325Y108168D01*
X323228Y108023D01*
X323127Y107880D01*
X323023Y107740D01*
X322915Y107603D01*
X322804Y107468D01*
X322690Y107336D01*
X322573Y107207D01*
X322452Y107080D01*
X322329Y106957D01*
X322202Y106836D01*
X322073Y106719D01*
X321941Y106605D01*
X321806Y106494D01*
X321669Y106386D01*
X321529Y106282D01*
X321386Y106181D01*
X321241Y106084D01*
X321094Y105990D01*
X320945Y105899D01*
X320793Y105813D01*
X320640Y105730D01*
X320484Y105650D01*
X320327Y105575D01*
X320167Y105503D01*
X320007Y105435D01*
X319844Y105372D01*
X319680Y105312D01*
X319515Y105256D01*
X319348Y105204D01*
X319180Y105156D01*
X319011Y105112D01*
X318841Y105072D01*
X318670Y105037D01*
X318498Y105005D01*
X318326Y104978D01*
X318153Y104955D01*
X317979Y104936D01*
X317805Y104921D01*
X317631Y104910D01*
X317457Y104904D01*
X317282Y104902D01*
X334719Y112127D02*
X340138Y112127D01*
X334719Y112127D02*
X334601Y112129D01*
X334483Y112135D01*
X334365Y112144D01*
X334248Y112158D01*
X334131Y112175D01*
X334014Y112196D01*
X333899Y112221D01*
X333784Y112250D01*
X333670Y112283D01*
X333558Y112319D01*
X333447Y112359D01*
X333337Y112402D01*
X333228Y112449D01*
X333121Y112499D01*
X333016Y112554D01*
X332913Y112611D01*
X332812Y112672D01*
X332712Y112736D01*
X332615Y112803D01*
X332520Y112873D01*
X332428Y112947D01*
X332337Y113023D01*
X332250Y113103D01*
X332165Y113185D01*
X332083Y113270D01*
X332003Y113357D01*
X331927Y113448D01*
X331853Y113540D01*
X331783Y113635D01*
X331716Y113732D01*
X331652Y113832D01*
X331591Y113933D01*
X331534Y114036D01*
X331479Y114141D01*
X331429Y114248D01*
X331382Y114357D01*
X331339Y114467D01*
X331299Y114578D01*
X331263Y114690D01*
X331230Y114804D01*
X331201Y114919D01*
X331176Y115034D01*
X331155Y115151D01*
X331138Y115268D01*
X331124Y115385D01*
X331115Y115503D01*
X331109Y115621D01*
X331107Y115739D01*
X331107Y116642D01*
X331106Y116642D02*
X331108Y116775D01*
X331114Y116907D01*
X331124Y117039D01*
X331137Y117171D01*
X331155Y117303D01*
X331176Y117433D01*
X331201Y117564D01*
X331230Y117693D01*
X331263Y117821D01*
X331299Y117949D01*
X331339Y118075D01*
X331383Y118200D01*
X331431Y118324D01*
X331482Y118446D01*
X331537Y118567D01*
X331595Y118686D01*
X331657Y118804D01*
X331722Y118919D01*
X331791Y119033D01*
X331862Y119144D01*
X331938Y119253D01*
X332016Y119360D01*
X332097Y119465D01*
X332182Y119567D01*
X332269Y119667D01*
X332359Y119764D01*
X332452Y119859D01*
X332548Y119950D01*
X332646Y120039D01*
X332747Y120125D01*
X332851Y120208D01*
X332957Y120288D01*
X333065Y120364D01*
X333175Y120438D01*
X333288Y120508D01*
X333402Y120575D01*
X333519Y120638D01*
X333637Y120698D01*
X333757Y120755D01*
X333879Y120808D01*
X334002Y120857D01*
X334126Y120903D01*
X334252Y120945D01*
X334379Y120983D01*
X334507Y121018D01*
X334636Y121049D01*
X334765Y121076D01*
X334896Y121099D01*
X335027Y121119D01*
X335159Y121134D01*
X335291Y121146D01*
X335423Y121154D01*
X335556Y121158D01*
X335688Y121158D01*
X335821Y121154D01*
X335953Y121146D01*
X336085Y121134D01*
X336217Y121119D01*
X336348Y121099D01*
X336479Y121076D01*
X336608Y121049D01*
X336737Y121018D01*
X336865Y120983D01*
X336992Y120945D01*
X337118Y120903D01*
X337242Y120857D01*
X337365Y120808D01*
X337487Y120755D01*
X337607Y120698D01*
X337725Y120638D01*
X337842Y120575D01*
X337956Y120508D01*
X338069Y120438D01*
X338179Y120364D01*
X338287Y120288D01*
X338393Y120208D01*
X338497Y120125D01*
X338598Y120039D01*
X338696Y119950D01*
X338792Y119859D01*
X338885Y119764D01*
X338975Y119667D01*
X339062Y119567D01*
X339147Y119465D01*
X339228Y119360D01*
X339306Y119253D01*
X339382Y119144D01*
X339453Y119033D01*
X339522Y118919D01*
X339587Y118804D01*
X339649Y118686D01*
X339707Y118567D01*
X339762Y118446D01*
X339813Y118324D01*
X339861Y118200D01*
X339905Y118075D01*
X339945Y117949D01*
X339981Y117821D01*
X340014Y117693D01*
X340043Y117564D01*
X340068Y117433D01*
X340089Y117303D01*
X340107Y117171D01*
X340120Y117039D01*
X340130Y116907D01*
X340136Y116775D01*
X340138Y116642D01*
X340138Y112127D01*
X340136Y111952D01*
X340130Y111778D01*
X340119Y111604D01*
X340104Y111430D01*
X340085Y111256D01*
X340062Y111083D01*
X340035Y110911D01*
X340003Y110739D01*
X339968Y110568D01*
X339928Y110398D01*
X339884Y110229D01*
X339836Y110061D01*
X339784Y109894D01*
X339728Y109729D01*
X339668Y109565D01*
X339605Y109402D01*
X339537Y109242D01*
X339465Y109082D01*
X339390Y108925D01*
X339310Y108769D01*
X339227Y108616D01*
X339141Y108464D01*
X339050Y108315D01*
X338956Y108168D01*
X338859Y108023D01*
X338758Y107880D01*
X338654Y107740D01*
X338546Y107603D01*
X338435Y107468D01*
X338321Y107336D01*
X338204Y107207D01*
X338083Y107080D01*
X337960Y106957D01*
X337833Y106836D01*
X337704Y106719D01*
X337572Y106605D01*
X337437Y106494D01*
X337300Y106386D01*
X337160Y106282D01*
X337017Y106181D01*
X336872Y106084D01*
X336725Y105990D01*
X336576Y105899D01*
X336424Y105813D01*
X336271Y105730D01*
X336115Y105650D01*
X335958Y105575D01*
X335798Y105503D01*
X335638Y105435D01*
X335475Y105372D01*
X335311Y105312D01*
X335146Y105256D01*
X334979Y105204D01*
X334811Y105156D01*
X334642Y105112D01*
X334472Y105072D01*
X334301Y105037D01*
X334129Y105005D01*
X333957Y104978D01*
X333784Y104955D01*
X333610Y104936D01*
X333436Y104921D01*
X333262Y104910D01*
X333088Y104904D01*
X332913Y104902D01*
X346738Y104902D02*
X352157Y104902D01*
X352275Y104904D01*
X352393Y104910D01*
X352511Y104919D01*
X352628Y104933D01*
X352745Y104950D01*
X352862Y104971D01*
X352977Y104996D01*
X353092Y105025D01*
X353206Y105058D01*
X353318Y105094D01*
X353429Y105134D01*
X353539Y105177D01*
X353648Y105224D01*
X353755Y105274D01*
X353860Y105329D01*
X353963Y105386D01*
X354064Y105447D01*
X354164Y105511D01*
X354261Y105578D01*
X354356Y105648D01*
X354448Y105722D01*
X354539Y105798D01*
X354626Y105878D01*
X354711Y105960D01*
X354793Y106045D01*
X354873Y106132D01*
X354949Y106223D01*
X355023Y106315D01*
X355093Y106410D01*
X355160Y106507D01*
X355224Y106607D01*
X355285Y106708D01*
X355342Y106811D01*
X355397Y106916D01*
X355447Y107023D01*
X355494Y107132D01*
X355537Y107242D01*
X355577Y107353D01*
X355613Y107465D01*
X355646Y107579D01*
X355675Y107694D01*
X355700Y107809D01*
X355721Y107926D01*
X355738Y108043D01*
X355752Y108160D01*
X355761Y108278D01*
X355767Y108396D01*
X355769Y108514D01*
X355769Y110321D01*
X355767Y110439D01*
X355761Y110557D01*
X355752Y110675D01*
X355738Y110792D01*
X355721Y110909D01*
X355700Y111026D01*
X355675Y111141D01*
X355646Y111256D01*
X355613Y111370D01*
X355577Y111482D01*
X355537Y111593D01*
X355494Y111703D01*
X355447Y111812D01*
X355397Y111919D01*
X355342Y112024D01*
X355285Y112127D01*
X355224Y112228D01*
X355160Y112328D01*
X355093Y112425D01*
X355023Y112520D01*
X354949Y112612D01*
X354873Y112703D01*
X354793Y112790D01*
X354711Y112875D01*
X354626Y112957D01*
X354539Y113037D01*
X354448Y113113D01*
X354356Y113187D01*
X354261Y113257D01*
X354164Y113324D01*
X354064Y113388D01*
X353963Y113449D01*
X353860Y113506D01*
X353755Y113561D01*
X353648Y113611D01*
X353539Y113658D01*
X353429Y113701D01*
X353318Y113741D01*
X353206Y113777D01*
X353092Y113810D01*
X352977Y113839D01*
X352862Y113864D01*
X352745Y113885D01*
X352628Y113902D01*
X352511Y113916D01*
X352393Y113925D01*
X352275Y113931D01*
X352157Y113933D01*
X346738Y113933D01*
X346738Y121158D01*
X355769Y121158D01*
X370532Y118449D02*
X373241Y118449D01*
X370532Y118448D02*
X370428Y118446D01*
X370325Y118440D01*
X370221Y118430D01*
X370118Y118416D01*
X370016Y118398D01*
X369915Y118377D01*
X369814Y118351D01*
X369715Y118322D01*
X369616Y118289D01*
X369519Y118252D01*
X369424Y118211D01*
X369330Y118167D01*
X369238Y118119D01*
X369148Y118068D01*
X369059Y118013D01*
X368973Y117955D01*
X368890Y117893D01*
X368808Y117829D01*
X368730Y117761D01*
X368654Y117691D01*
X368580Y117618D01*
X368510Y117541D01*
X368442Y117463D01*
X368378Y117381D01*
X368316Y117298D01*
X368258Y117212D01*
X368203Y117123D01*
X368152Y117033D01*
X368104Y116941D01*
X368060Y116847D01*
X368019Y116752D01*
X367982Y116655D01*
X367949Y116556D01*
X367920Y116457D01*
X367894Y116356D01*
X367873Y116255D01*
X367855Y116153D01*
X367841Y116050D01*
X367831Y115946D01*
X367825Y115843D01*
X367823Y115739D01*
X367823Y110321D01*
X367825Y110218D01*
X367831Y110116D01*
X367840Y110014D01*
X367854Y109912D01*
X367871Y109811D01*
X367893Y109711D01*
X367918Y109612D01*
X367946Y109513D01*
X367979Y109416D01*
X368015Y109320D01*
X368054Y109225D01*
X368098Y109132D01*
X368144Y109041D01*
X368195Y108952D01*
X368248Y108864D01*
X368305Y108779D01*
X368365Y108696D01*
X368428Y108615D01*
X368494Y108536D01*
X368563Y108461D01*
X368635Y108387D01*
X368709Y108317D01*
X368786Y108249D01*
X368866Y108185D01*
X368948Y108123D01*
X369032Y108065D01*
X369119Y108010D01*
X369207Y107958D01*
X369298Y107910D01*
X369390Y107865D01*
X369483Y107823D01*
X369579Y107785D01*
X369675Y107751D01*
X369773Y107720D01*
X369872Y107694D01*
X369972Y107670D01*
X370073Y107651D01*
X370174Y107636D01*
X370276Y107624D01*
X370378Y107616D01*
X370481Y107612D01*
X370583Y107612D01*
X370686Y107616D01*
X370788Y107624D01*
X370890Y107636D01*
X370991Y107651D01*
X371092Y107670D01*
X371192Y107694D01*
X371291Y107720D01*
X371389Y107751D01*
X371485Y107785D01*
X371581Y107823D01*
X371674Y107865D01*
X371766Y107910D01*
X371857Y107958D01*
X371945Y108010D01*
X372032Y108065D01*
X372116Y108123D01*
X372198Y108185D01*
X372278Y108249D01*
X372355Y108317D01*
X372429Y108387D01*
X372501Y108461D01*
X372570Y108536D01*
X372636Y108615D01*
X372699Y108696D01*
X372759Y108779D01*
X372816Y108864D01*
X372869Y108952D01*
X372920Y109041D01*
X372966Y109132D01*
X373010Y109225D01*
X373049Y109320D01*
X373085Y109416D01*
X373118Y109513D01*
X373146Y109612D01*
X373171Y109711D01*
X373193Y109811D01*
X373210Y109912D01*
X373224Y110014D01*
X373233Y110116D01*
X373239Y110218D01*
X373241Y110321D01*
X373241Y109869D02*
X373241Y118449D01*
X373241Y109869D02*
X373243Y109776D01*
X373249Y109683D01*
X373258Y109590D01*
X373272Y109497D01*
X373289Y109406D01*
X373310Y109315D01*
X373335Y109225D01*
X373363Y109136D01*
X373395Y109048D01*
X373431Y108962D01*
X373470Y108877D01*
X373513Y108794D01*
X373559Y108713D01*
X373609Y108634D01*
X373661Y108557D01*
X373717Y108482D01*
X373776Y108410D01*
X373838Y108340D01*
X373902Y108272D01*
X373970Y108208D01*
X374040Y108146D01*
X374112Y108087D01*
X374187Y108031D01*
X374264Y107979D01*
X374343Y107929D01*
X374424Y107883D01*
X374507Y107840D01*
X374592Y107801D01*
X374678Y107765D01*
X374766Y107733D01*
X374855Y107705D01*
X374945Y107680D01*
X375036Y107659D01*
X375127Y107642D01*
X375220Y107628D01*
X375313Y107619D01*
X375406Y107613D01*
X375499Y107611D01*
X375592Y107613D01*
X375685Y107619D01*
X375778Y107628D01*
X375871Y107642D01*
X375962Y107659D01*
X376053Y107680D01*
X376143Y107705D01*
X376232Y107733D01*
X376320Y107765D01*
X376406Y107801D01*
X376491Y107840D01*
X376574Y107883D01*
X376655Y107929D01*
X376734Y107979D01*
X376811Y108031D01*
X376886Y108087D01*
X376958Y108146D01*
X377028Y108208D01*
X377096Y108272D01*
X377160Y108340D01*
X377222Y108410D01*
X377281Y108482D01*
X377337Y108557D01*
X377389Y108634D01*
X377439Y108713D01*
X377485Y108794D01*
X377528Y108877D01*
X377567Y108962D01*
X377603Y109048D01*
X377635Y109136D01*
X377663Y109225D01*
X377688Y109315D01*
X377709Y109406D01*
X377726Y109497D01*
X377740Y109590D01*
X377749Y109683D01*
X377755Y109776D01*
X377757Y109869D01*
X377757Y116642D01*
X377755Y116818D01*
X377748Y116994D01*
X377738Y117169D01*
X377723Y117345D01*
X377704Y117520D01*
X377680Y117694D01*
X377652Y117868D01*
X377620Y118041D01*
X377584Y118213D01*
X377544Y118384D01*
X377499Y118554D01*
X377451Y118724D01*
X377398Y118891D01*
X377341Y119058D01*
X377280Y119223D01*
X377215Y119387D01*
X377147Y119548D01*
X377074Y119709D01*
X376997Y119867D01*
X376917Y120024D01*
X376833Y120178D01*
X376745Y120330D01*
X376653Y120481D01*
X376558Y120629D01*
X376459Y120774D01*
X376356Y120917D01*
X376251Y121058D01*
X376141Y121196D01*
X376029Y121331D01*
X375913Y121463D01*
X375794Y121593D01*
X375672Y121720D01*
X375547Y121843D01*
X375419Y121964D01*
X375287Y122081D01*
X375154Y122195D01*
X375017Y122306D01*
X374878Y122414D01*
X374736Y122518D01*
X374592Y122619D01*
X374445Y122716D01*
X374296Y122809D01*
X374145Y122899D01*
X373991Y122985D01*
X373836Y123067D01*
X373678Y123146D01*
X373519Y123221D01*
X373358Y123292D01*
X373195Y123358D01*
X373031Y123421D01*
X372865Y123480D01*
X372698Y123535D01*
X372529Y123585D01*
X372359Y123632D01*
X372189Y123674D01*
X372017Y123713D01*
X371844Y123747D01*
X371671Y123777D01*
X371497Y123802D01*
X371322Y123824D01*
X371147Y123841D01*
X370972Y123854D01*
X370796Y123862D01*
X370620Y123866D01*
X370444Y123866D01*
X370268Y123862D01*
X370092Y123854D01*
X369917Y123841D01*
X369742Y123824D01*
X369567Y123802D01*
X369393Y123777D01*
X369220Y123747D01*
X369047Y123713D01*
X368875Y123674D01*
X368705Y123632D01*
X368535Y123585D01*
X368366Y123535D01*
X368199Y123480D01*
X368033Y123421D01*
X367869Y123358D01*
X367706Y123292D01*
X367545Y123221D01*
X367386Y123146D01*
X367228Y123067D01*
X367073Y122985D01*
X366920Y122899D01*
X366768Y122809D01*
X366619Y122716D01*
X366472Y122619D01*
X366328Y122518D01*
X366186Y122414D01*
X366047Y122306D01*
X365910Y122195D01*
X365777Y122081D01*
X365645Y121964D01*
X365517Y121843D01*
X365392Y121720D01*
X365270Y121593D01*
X365151Y121463D01*
X365035Y121331D01*
X364923Y121196D01*
X364813Y121058D01*
X364708Y120917D01*
X364605Y120774D01*
X364506Y120629D01*
X364411Y120481D01*
X364319Y120330D01*
X364231Y120178D01*
X364147Y120024D01*
X364067Y119867D01*
X363990Y119709D01*
X363917Y119548D01*
X363849Y119387D01*
X363784Y119223D01*
X363723Y119058D01*
X363666Y118891D01*
X363613Y118724D01*
X363565Y118554D01*
X363520Y118384D01*
X363480Y118213D01*
X363444Y118041D01*
X363412Y117868D01*
X363384Y117694D01*
X363360Y117520D01*
X363341Y117345D01*
X363326Y117169D01*
X363316Y116994D01*
X363309Y116818D01*
X363307Y116642D01*
X363307Y108966D01*
X363308Y108966D02*
X363310Y108802D01*
X363316Y108637D01*
X363326Y108473D01*
X363340Y108309D01*
X363358Y108146D01*
X363380Y107983D01*
X363405Y107820D01*
X363435Y107659D01*
X363469Y107498D01*
X363506Y107338D01*
X363548Y107178D01*
X363593Y107020D01*
X363642Y106863D01*
X363695Y106708D01*
X363751Y106553D01*
X363812Y106400D01*
X363876Y106249D01*
X363943Y106099D01*
X364014Y105951D01*
X364089Y105804D01*
X364168Y105660D01*
X364249Y105517D01*
X364335Y105376D01*
X364423Y105238D01*
X364515Y105101D01*
X364611Y104967D01*
X364709Y104836D01*
X364811Y104706D01*
X364915Y104580D01*
X365023Y104455D01*
X365134Y104334D01*
X365248Y104215D01*
X365364Y104099D01*
X365483Y103986D01*
X365605Y103875D01*
X365730Y103768D01*
X365857Y103664D01*
X365987Y103563D01*
X366119Y103465D01*
X366253Y103370D01*
X366390Y103278D01*
X366529Y103190D01*
X366670Y103106D01*
X366813Y103024D01*
X366958Y102947D01*
X367104Y102872D01*
X367253Y102802D01*
X367403Y102734D01*
X367555Y102671D01*
X367708Y102611D01*
X367862Y102555D01*
X368018Y102503D01*
X368176Y102455D01*
X368334Y102410D01*
X368493Y102369D01*
X368653Y102332D01*
X368814Y102299D01*
X368976Y102270D01*
X369139Y102245D01*
X369302Y102224D01*
X369465Y102206D01*
X369629Y102193D01*
X387792Y104902D02*
X392308Y104902D01*
X387792Y104902D02*
X387691Y104904D01*
X387590Y104910D01*
X387489Y104919D01*
X387388Y104932D01*
X387288Y104949D01*
X387189Y104970D01*
X387091Y104994D01*
X386994Y105022D01*
X386897Y105054D01*
X386802Y105089D01*
X386709Y105128D01*
X386617Y105170D01*
X386526Y105216D01*
X386438Y105265D01*
X386351Y105317D01*
X386266Y105373D01*
X386183Y105431D01*
X386103Y105493D01*
X386025Y105558D01*
X385949Y105625D01*
X385876Y105695D01*
X385806Y105768D01*
X385739Y105844D01*
X385674Y105922D01*
X385612Y106002D01*
X385554Y106085D01*
X385498Y106170D01*
X385446Y106257D01*
X385397Y106345D01*
X385351Y106436D01*
X385309Y106528D01*
X385270Y106621D01*
X385235Y106716D01*
X385203Y106813D01*
X385175Y106910D01*
X385151Y107008D01*
X385130Y107107D01*
X385113Y107207D01*
X385100Y107308D01*
X385091Y107409D01*
X385085Y107510D01*
X385083Y107611D01*
X385083Y113030D01*
X385085Y113131D01*
X385091Y113232D01*
X385100Y113333D01*
X385113Y113434D01*
X385130Y113534D01*
X385151Y113633D01*
X385175Y113731D01*
X385203Y113828D01*
X385235Y113925D01*
X385270Y114020D01*
X385309Y114113D01*
X385351Y114205D01*
X385397Y114296D01*
X385446Y114385D01*
X385498Y114471D01*
X385554Y114556D01*
X385612Y114639D01*
X385674Y114719D01*
X385739Y114797D01*
X385806Y114873D01*
X385876Y114946D01*
X385949Y115016D01*
X386025Y115083D01*
X386103Y115148D01*
X386183Y115210D01*
X386266Y115268D01*
X386351Y115324D01*
X386438Y115376D01*
X386526Y115425D01*
X386617Y115471D01*
X386709Y115513D01*
X386802Y115552D01*
X386897Y115587D01*
X386994Y115619D01*
X387091Y115647D01*
X387189Y115671D01*
X387288Y115692D01*
X387388Y115709D01*
X387489Y115722D01*
X387590Y115731D01*
X387691Y115737D01*
X387792Y115739D01*
X392308Y115739D01*
X392308Y102193D01*
X392307Y102193D02*
X392305Y102089D01*
X392299Y101986D01*
X392289Y101882D01*
X392275Y101779D01*
X392257Y101677D01*
X392236Y101576D01*
X392210Y101475D01*
X392181Y101376D01*
X392148Y101277D01*
X392111Y101180D01*
X392070Y101085D01*
X392026Y100991D01*
X391978Y100899D01*
X391927Y100809D01*
X391872Y100720D01*
X391814Y100634D01*
X391752Y100551D01*
X391688Y100469D01*
X391620Y100391D01*
X391550Y100315D01*
X391477Y100241D01*
X391400Y100171D01*
X391322Y100103D01*
X391240Y100039D01*
X391157Y99977D01*
X391071Y99919D01*
X390982Y99864D01*
X390892Y99813D01*
X390800Y99765D01*
X390706Y99721D01*
X390611Y99680D01*
X390514Y99643D01*
X390415Y99610D01*
X390316Y99581D01*
X390215Y99555D01*
X390114Y99534D01*
X390012Y99516D01*
X389909Y99502D01*
X389805Y99492D01*
X389702Y99486D01*
X389598Y99484D01*
X389598Y99483D02*
X385986Y99483D01*
X400023Y104902D02*
X400023Y115739D01*
X408151Y115739D01*
X408252Y115737D01*
X408353Y115731D01*
X408454Y115722D01*
X408555Y115709D01*
X408655Y115692D01*
X408754Y115671D01*
X408852Y115647D01*
X408949Y115619D01*
X409046Y115587D01*
X409141Y115552D01*
X409234Y115513D01*
X409326Y115471D01*
X409417Y115425D01*
X409506Y115376D01*
X409592Y115324D01*
X409677Y115268D01*
X409760Y115210D01*
X409840Y115148D01*
X409918Y115083D01*
X409994Y115016D01*
X410067Y114946D01*
X410137Y114873D01*
X410204Y114797D01*
X410269Y114719D01*
X410331Y114639D01*
X410389Y114556D01*
X410445Y114471D01*
X410497Y114385D01*
X410546Y114296D01*
X410592Y114205D01*
X410634Y114113D01*
X410673Y114020D01*
X410708Y113925D01*
X410740Y113828D01*
X410768Y113731D01*
X410792Y113633D01*
X410813Y113534D01*
X410830Y113434D01*
X410843Y113333D01*
X410852Y113232D01*
X410858Y113131D01*
X410860Y113030D01*
X410861Y113030D02*
X410861Y104902D01*
X405442Y104902D02*
X405442Y115739D01*
X421069Y111224D02*
X425133Y111224D01*
X421069Y111224D02*
X420957Y111222D01*
X420846Y111216D01*
X420735Y111206D01*
X420624Y111193D01*
X420514Y111175D01*
X420405Y111153D01*
X420296Y111128D01*
X420188Y111099D01*
X420082Y111066D01*
X419976Y111029D01*
X419872Y110989D01*
X419770Y110945D01*
X419669Y110897D01*
X419570Y110846D01*
X419472Y110791D01*
X419377Y110733D01*
X419284Y110672D01*
X419193Y110607D01*
X419104Y110539D01*
X419018Y110468D01*
X418935Y110395D01*
X418854Y110318D01*
X418775Y110238D01*
X418700Y110156D01*
X418628Y110071D01*
X418558Y109984D01*
X418492Y109894D01*
X418429Y109802D01*
X418369Y109707D01*
X418313Y109611D01*
X418260Y109513D01*
X418211Y109413D01*
X418165Y109311D01*
X418123Y109208D01*
X418084Y109103D01*
X418049Y108997D01*
X418018Y108890D01*
X417991Y108782D01*
X417967Y108673D01*
X417948Y108563D01*
X417932Y108453D01*
X417920Y108342D01*
X417912Y108230D01*
X417908Y108119D01*
X417908Y108007D01*
X417912Y107896D01*
X417920Y107784D01*
X417932Y107673D01*
X417948Y107563D01*
X417967Y107453D01*
X417991Y107344D01*
X418018Y107236D01*
X418049Y107129D01*
X418084Y107023D01*
X418123Y106918D01*
X418165Y106815D01*
X418211Y106713D01*
X418260Y106613D01*
X418313Y106515D01*
X418369Y106419D01*
X418429Y106324D01*
X418492Y106232D01*
X418558Y106142D01*
X418628Y106055D01*
X418700Y105970D01*
X418775Y105888D01*
X418854Y105808D01*
X418935Y105731D01*
X419018Y105658D01*
X419104Y105587D01*
X419193Y105519D01*
X419284Y105454D01*
X419377Y105393D01*
X419472Y105335D01*
X419570Y105280D01*
X419669Y105229D01*
X419770Y105181D01*
X419872Y105137D01*
X419976Y105097D01*
X420082Y105060D01*
X420188Y105027D01*
X420296Y104998D01*
X420405Y104973D01*
X420514Y104951D01*
X420624Y104933D01*
X420735Y104920D01*
X420846Y104910D01*
X420957Y104904D01*
X421069Y104902D01*
X425133Y104902D01*
X425133Y113030D01*
X425131Y113131D01*
X425125Y113232D01*
X425116Y113333D01*
X425103Y113434D01*
X425086Y113534D01*
X425065Y113633D01*
X425041Y113731D01*
X425013Y113828D01*
X424981Y113925D01*
X424946Y114020D01*
X424907Y114113D01*
X424865Y114205D01*
X424819Y114296D01*
X424770Y114385D01*
X424718Y114471D01*
X424662Y114556D01*
X424604Y114639D01*
X424542Y114719D01*
X424477Y114797D01*
X424410Y114873D01*
X424340Y114946D01*
X424267Y115016D01*
X424191Y115083D01*
X424113Y115148D01*
X424033Y115210D01*
X423950Y115268D01*
X423865Y115324D01*
X423779Y115376D01*
X423690Y115425D01*
X423599Y115471D01*
X423507Y115513D01*
X423414Y115552D01*
X423319Y115587D01*
X423222Y115619D01*
X423125Y115647D01*
X423027Y115671D01*
X422928Y115692D01*
X422828Y115709D01*
X422727Y115722D01*
X422626Y115731D01*
X422525Y115737D01*
X422424Y115739D01*
X418812Y115739D01*
X432015Y115739D02*
X432015Y104902D01*
X431563Y120255D02*
X431563Y121158D01*
X432466Y121158D01*
X432466Y120255D01*
X431563Y120255D01*
X438539Y121158D02*
X438539Y107611D01*
X438541Y107510D01*
X438547Y107409D01*
X438556Y107308D01*
X438569Y107207D01*
X438586Y107107D01*
X438607Y107008D01*
X438631Y106910D01*
X438659Y106813D01*
X438691Y106716D01*
X438726Y106621D01*
X438765Y106528D01*
X438807Y106436D01*
X438853Y106345D01*
X438902Y106257D01*
X438954Y106170D01*
X439010Y106085D01*
X439068Y106002D01*
X439130Y105922D01*
X439195Y105844D01*
X439262Y105768D01*
X439332Y105695D01*
X439405Y105625D01*
X439481Y105558D01*
X439559Y105493D01*
X439639Y105431D01*
X439722Y105373D01*
X439807Y105317D01*
X439894Y105265D01*
X439982Y105216D01*
X440073Y105170D01*
X440165Y105128D01*
X440258Y105089D01*
X440353Y105054D01*
X440450Y105022D01*
X440547Y104994D01*
X440645Y104970D01*
X440744Y104949D01*
X440844Y104932D01*
X440945Y104919D01*
X441046Y104910D01*
X441147Y104904D01*
X441248Y104902D01*
X446153Y104902D02*
X446153Y105805D01*
X447056Y105805D01*
X447056Y104902D01*
X446153Y104902D01*
X455618Y104902D02*
X459231Y104902D01*
X455618Y104902D02*
X455517Y104904D01*
X455416Y104910D01*
X455315Y104919D01*
X455214Y104932D01*
X455114Y104949D01*
X455015Y104970D01*
X454917Y104994D01*
X454820Y105022D01*
X454723Y105054D01*
X454628Y105089D01*
X454535Y105128D01*
X454443Y105170D01*
X454352Y105216D01*
X454264Y105265D01*
X454177Y105317D01*
X454092Y105373D01*
X454009Y105431D01*
X453929Y105493D01*
X453851Y105558D01*
X453775Y105625D01*
X453702Y105695D01*
X453632Y105768D01*
X453565Y105844D01*
X453500Y105922D01*
X453438Y106002D01*
X453380Y106085D01*
X453324Y106170D01*
X453272Y106257D01*
X453223Y106345D01*
X453177Y106436D01*
X453135Y106528D01*
X453096Y106621D01*
X453061Y106716D01*
X453029Y106813D01*
X453001Y106910D01*
X452977Y107008D01*
X452956Y107107D01*
X452939Y107207D01*
X452926Y107308D01*
X452917Y107409D01*
X452911Y107510D01*
X452909Y107611D01*
X452909Y113030D01*
X452911Y113131D01*
X452917Y113232D01*
X452926Y113333D01*
X452939Y113434D01*
X452956Y113534D01*
X452977Y113633D01*
X453001Y113731D01*
X453029Y113828D01*
X453061Y113925D01*
X453096Y114020D01*
X453135Y114113D01*
X453177Y114205D01*
X453223Y114296D01*
X453272Y114385D01*
X453324Y114471D01*
X453380Y114556D01*
X453438Y114639D01*
X453500Y114719D01*
X453565Y114797D01*
X453632Y114873D01*
X453702Y114946D01*
X453775Y115016D01*
X453851Y115083D01*
X453929Y115148D01*
X454009Y115210D01*
X454092Y115268D01*
X454177Y115324D01*
X454264Y115376D01*
X454352Y115425D01*
X454443Y115471D01*
X454535Y115513D01*
X454628Y115552D01*
X454723Y115587D01*
X454820Y115619D01*
X454917Y115647D01*
X455015Y115671D01*
X455114Y115692D01*
X455214Y115709D01*
X455315Y115722D01*
X455416Y115731D01*
X455517Y115737D01*
X455618Y115739D01*
X459231Y115739D01*
X464875Y112127D02*
X464875Y108514D01*
X464876Y112127D02*
X464878Y112246D01*
X464884Y112366D01*
X464894Y112485D01*
X464908Y112603D01*
X464925Y112722D01*
X464947Y112839D01*
X464972Y112956D01*
X465002Y113071D01*
X465035Y113186D01*
X465072Y113300D01*
X465112Y113412D01*
X465157Y113523D01*
X465205Y113632D01*
X465256Y113740D01*
X465311Y113846D01*
X465370Y113950D01*
X465432Y114052D01*
X465497Y114152D01*
X465566Y114250D01*
X465638Y114346D01*
X465713Y114439D01*
X465790Y114529D01*
X465871Y114617D01*
X465955Y114702D01*
X466042Y114784D01*
X466131Y114864D01*
X466223Y114940D01*
X466317Y115014D01*
X466414Y115084D01*
X466512Y115151D01*
X466613Y115215D01*
X466717Y115275D01*
X466822Y115332D01*
X466929Y115385D01*
X467037Y115435D01*
X467147Y115481D01*
X467259Y115523D01*
X467372Y115562D01*
X467486Y115597D01*
X467601Y115628D01*
X467718Y115656D01*
X467835Y115679D01*
X467952Y115699D01*
X468071Y115715D01*
X468190Y115727D01*
X468309Y115735D01*
X468428Y115739D01*
X468548Y115739D01*
X468667Y115735D01*
X468786Y115727D01*
X468905Y115715D01*
X469024Y115699D01*
X469141Y115679D01*
X469258Y115656D01*
X469375Y115628D01*
X469490Y115597D01*
X469604Y115562D01*
X469717Y115523D01*
X469829Y115481D01*
X469939Y115435D01*
X470047Y115385D01*
X470154Y115332D01*
X470259Y115275D01*
X470363Y115215D01*
X470464Y115151D01*
X470562Y115084D01*
X470659Y115014D01*
X470753Y114940D01*
X470845Y114864D01*
X470934Y114784D01*
X471021Y114702D01*
X471105Y114617D01*
X471186Y114529D01*
X471263Y114439D01*
X471338Y114346D01*
X471410Y114250D01*
X471479Y114152D01*
X471544Y114052D01*
X471606Y113950D01*
X471665Y113846D01*
X471720Y113740D01*
X471771Y113632D01*
X471819Y113523D01*
X471864Y113412D01*
X471904Y113300D01*
X471941Y113186D01*
X471974Y113071D01*
X472004Y112956D01*
X472029Y112839D01*
X472051Y112722D01*
X472068Y112603D01*
X472082Y112485D01*
X472092Y112366D01*
X472098Y112246D01*
X472100Y112127D01*
X472100Y108514D01*
X472098Y108395D01*
X472092Y108275D01*
X472082Y108156D01*
X472068Y108038D01*
X472051Y107919D01*
X472029Y107802D01*
X472004Y107685D01*
X471974Y107570D01*
X471941Y107455D01*
X471904Y107341D01*
X471864Y107229D01*
X471819Y107118D01*
X471771Y107009D01*
X471720Y106901D01*
X471665Y106795D01*
X471606Y106691D01*
X471544Y106589D01*
X471479Y106489D01*
X471410Y106391D01*
X471338Y106295D01*
X471263Y106202D01*
X471186Y106112D01*
X471105Y106024D01*
X471021Y105939D01*
X470934Y105857D01*
X470845Y105777D01*
X470753Y105701D01*
X470659Y105627D01*
X470562Y105557D01*
X470464Y105490D01*
X470363Y105426D01*
X470259Y105366D01*
X470154Y105309D01*
X470047Y105256D01*
X469939Y105206D01*
X469829Y105160D01*
X469717Y105118D01*
X469604Y105079D01*
X469490Y105044D01*
X469375Y105013D01*
X469258Y104985D01*
X469141Y104962D01*
X469024Y104942D01*
X468905Y104926D01*
X468786Y104914D01*
X468667Y104906D01*
X468548Y104902D01*
X468428Y104902D01*
X468309Y104906D01*
X468190Y104914D01*
X468071Y104926D01*
X467952Y104942D01*
X467835Y104962D01*
X467718Y104985D01*
X467601Y105013D01*
X467486Y105044D01*
X467372Y105079D01*
X467259Y105118D01*
X467147Y105160D01*
X467037Y105206D01*
X466929Y105256D01*
X466822Y105309D01*
X466717Y105366D01*
X466613Y105426D01*
X466512Y105490D01*
X466414Y105557D01*
X466317Y105627D01*
X466223Y105701D01*
X466131Y105777D01*
X466042Y105857D01*
X465955Y105939D01*
X465871Y106024D01*
X465790Y106112D01*
X465713Y106202D01*
X465638Y106295D01*
X465566Y106391D01*
X465497Y106489D01*
X465432Y106589D01*
X465370Y106691D01*
X465311Y106795D01*
X465256Y106901D01*
X465205Y107009D01*
X465157Y107118D01*
X465112Y107229D01*
X465072Y107341D01*
X465035Y107455D01*
X465002Y107570D01*
X464972Y107685D01*
X464947Y107802D01*
X464925Y107919D01*
X464908Y108038D01*
X464894Y108156D01*
X464884Y108275D01*
X464878Y108395D01*
X464876Y108514D01*
X479221Y104902D02*
X479221Y115739D01*
X487349Y115739D01*
X487450Y115737D01*
X487551Y115731D01*
X487652Y115722D01*
X487753Y115709D01*
X487853Y115692D01*
X487952Y115671D01*
X488050Y115647D01*
X488147Y115619D01*
X488244Y115587D01*
X488339Y115552D01*
X488432Y115513D01*
X488524Y115471D01*
X488615Y115425D01*
X488704Y115376D01*
X488790Y115324D01*
X488875Y115268D01*
X488958Y115210D01*
X489038Y115148D01*
X489116Y115083D01*
X489192Y115016D01*
X489265Y114946D01*
X489335Y114873D01*
X489402Y114797D01*
X489467Y114719D01*
X489529Y114639D01*
X489587Y114556D01*
X489643Y114471D01*
X489695Y114385D01*
X489744Y114296D01*
X489790Y114205D01*
X489832Y114113D01*
X489871Y114020D01*
X489906Y113925D01*
X489938Y113828D01*
X489966Y113731D01*
X489990Y113633D01*
X490011Y113534D01*
X490028Y113434D01*
X490041Y113333D01*
X490050Y113232D01*
X490056Y113131D01*
X490058Y113030D01*
X490059Y113030D02*
X490059Y104902D01*
X484640Y104902D02*
X484640Y115739D01*
X134987Y78232D02*
X130471Y78232D01*
X130370Y78234D01*
X130269Y78240D01*
X130168Y78249D01*
X130067Y78262D01*
X129967Y78279D01*
X129868Y78300D01*
X129770Y78324D01*
X129673Y78352D01*
X129576Y78384D01*
X129481Y78419D01*
X129388Y78458D01*
X129296Y78500D01*
X129205Y78546D01*
X129117Y78595D01*
X129030Y78647D01*
X128945Y78703D01*
X128862Y78761D01*
X128782Y78823D01*
X128704Y78888D01*
X128628Y78955D01*
X128555Y79025D01*
X128485Y79098D01*
X128418Y79174D01*
X128353Y79252D01*
X128291Y79332D01*
X128233Y79415D01*
X128177Y79500D01*
X128125Y79587D01*
X128076Y79675D01*
X128030Y79766D01*
X127988Y79858D01*
X127949Y79951D01*
X127914Y80046D01*
X127882Y80143D01*
X127854Y80240D01*
X127830Y80338D01*
X127809Y80437D01*
X127792Y80537D01*
X127779Y80638D01*
X127770Y80739D01*
X127764Y80840D01*
X127762Y80941D01*
X127762Y86360D01*
X127764Y86461D01*
X127770Y86562D01*
X127779Y86663D01*
X127792Y86764D01*
X127809Y86864D01*
X127830Y86963D01*
X127854Y87061D01*
X127882Y87158D01*
X127914Y87255D01*
X127949Y87350D01*
X127988Y87443D01*
X128030Y87535D01*
X128076Y87626D01*
X128125Y87715D01*
X128177Y87801D01*
X128233Y87886D01*
X128291Y87969D01*
X128353Y88049D01*
X128418Y88127D01*
X128485Y88203D01*
X128555Y88276D01*
X128628Y88346D01*
X128704Y88413D01*
X128782Y88478D01*
X128862Y88540D01*
X128945Y88598D01*
X129030Y88654D01*
X129117Y88706D01*
X129205Y88755D01*
X129296Y88801D01*
X129388Y88843D01*
X129481Y88882D01*
X129576Y88917D01*
X129673Y88949D01*
X129770Y88977D01*
X129868Y89001D01*
X129967Y89022D01*
X130067Y89039D01*
X130168Y89052D01*
X130269Y89061D01*
X130370Y89067D01*
X130471Y89069D01*
X134987Y89069D01*
X134987Y75523D01*
X134985Y75419D01*
X134979Y75316D01*
X134969Y75212D01*
X134955Y75109D01*
X134937Y75007D01*
X134916Y74906D01*
X134890Y74805D01*
X134861Y74706D01*
X134828Y74607D01*
X134791Y74510D01*
X134750Y74415D01*
X134706Y74321D01*
X134658Y74229D01*
X134607Y74139D01*
X134552Y74050D01*
X134494Y73964D01*
X134432Y73881D01*
X134368Y73799D01*
X134300Y73721D01*
X134230Y73645D01*
X134157Y73571D01*
X134080Y73501D01*
X134002Y73433D01*
X133920Y73369D01*
X133837Y73307D01*
X133751Y73249D01*
X133662Y73194D01*
X133572Y73143D01*
X133480Y73095D01*
X133386Y73051D01*
X133291Y73010D01*
X133194Y72973D01*
X133095Y72940D01*
X132996Y72911D01*
X132895Y72885D01*
X132794Y72864D01*
X132692Y72846D01*
X132589Y72832D01*
X132485Y72822D01*
X132382Y72816D01*
X132278Y72814D01*
X132278Y72813D02*
X128665Y72813D01*
X141869Y78232D02*
X141869Y89069D01*
X141417Y93585D02*
X141417Y94488D01*
X142320Y94488D01*
X142320Y93585D01*
X141417Y93585D01*
X146859Y89069D02*
X152277Y89069D01*
X148665Y94488D02*
X148665Y80941D01*
X148667Y80840D01*
X148673Y80739D01*
X148682Y80638D01*
X148695Y80537D01*
X148712Y80437D01*
X148733Y80338D01*
X148757Y80240D01*
X148785Y80143D01*
X148817Y80046D01*
X148852Y79951D01*
X148891Y79858D01*
X148933Y79766D01*
X148979Y79675D01*
X149028Y79587D01*
X149080Y79500D01*
X149136Y79415D01*
X149194Y79332D01*
X149256Y79252D01*
X149321Y79174D01*
X149388Y79098D01*
X149458Y79025D01*
X149531Y78955D01*
X149607Y78888D01*
X149685Y78823D01*
X149765Y78761D01*
X149848Y78703D01*
X149933Y78647D01*
X150020Y78595D01*
X150108Y78546D01*
X150199Y78500D01*
X150291Y78458D01*
X150384Y78419D01*
X150479Y78384D01*
X150576Y78352D01*
X150673Y78324D01*
X150771Y78300D01*
X150870Y78279D01*
X150970Y78262D01*
X151071Y78249D01*
X151172Y78240D01*
X151273Y78234D01*
X151374Y78232D01*
X152277Y78232D01*
X158577Y78232D02*
X158577Y94488D01*
X158577Y89069D02*
X163092Y89069D01*
X163196Y89067D01*
X163299Y89061D01*
X163403Y89051D01*
X163506Y89037D01*
X163608Y89019D01*
X163709Y88998D01*
X163810Y88972D01*
X163909Y88943D01*
X164008Y88910D01*
X164105Y88873D01*
X164200Y88832D01*
X164294Y88788D01*
X164386Y88740D01*
X164476Y88689D01*
X164565Y88634D01*
X164651Y88576D01*
X164734Y88514D01*
X164816Y88450D01*
X164894Y88382D01*
X164970Y88312D01*
X165044Y88239D01*
X165114Y88162D01*
X165182Y88084D01*
X165246Y88002D01*
X165308Y87919D01*
X165366Y87833D01*
X165421Y87744D01*
X165472Y87654D01*
X165520Y87562D01*
X165564Y87468D01*
X165605Y87373D01*
X165642Y87276D01*
X165675Y87177D01*
X165704Y87078D01*
X165730Y86977D01*
X165751Y86876D01*
X165769Y86774D01*
X165783Y86671D01*
X165793Y86567D01*
X165799Y86464D01*
X165801Y86360D01*
X165802Y86360D02*
X165802Y78232D01*
X173166Y80941D02*
X173166Y89069D01*
X173166Y80941D02*
X173168Y80840D01*
X173174Y80739D01*
X173183Y80638D01*
X173196Y80537D01*
X173213Y80437D01*
X173234Y80338D01*
X173258Y80240D01*
X173286Y80143D01*
X173318Y80046D01*
X173353Y79951D01*
X173392Y79858D01*
X173434Y79766D01*
X173480Y79675D01*
X173529Y79587D01*
X173581Y79500D01*
X173637Y79415D01*
X173695Y79332D01*
X173757Y79252D01*
X173822Y79174D01*
X173889Y79098D01*
X173959Y79025D01*
X174032Y78955D01*
X174108Y78888D01*
X174186Y78823D01*
X174266Y78761D01*
X174349Y78703D01*
X174434Y78647D01*
X174521Y78595D01*
X174609Y78546D01*
X174700Y78500D01*
X174792Y78458D01*
X174885Y78419D01*
X174980Y78384D01*
X175077Y78352D01*
X175174Y78324D01*
X175272Y78300D01*
X175371Y78279D01*
X175471Y78262D01*
X175572Y78249D01*
X175673Y78240D01*
X175774Y78234D01*
X175875Y78232D01*
X180391Y78232D01*
X180391Y89069D01*
X187828Y94488D02*
X187828Y78232D01*
X192344Y78232D01*
X192448Y78234D01*
X192551Y78240D01*
X192655Y78250D01*
X192758Y78264D01*
X192860Y78282D01*
X192961Y78303D01*
X193062Y78329D01*
X193161Y78358D01*
X193260Y78391D01*
X193357Y78428D01*
X193452Y78469D01*
X193546Y78513D01*
X193638Y78561D01*
X193728Y78612D01*
X193817Y78667D01*
X193903Y78725D01*
X193986Y78787D01*
X194068Y78851D01*
X194146Y78919D01*
X194222Y78989D01*
X194296Y79062D01*
X194366Y79139D01*
X194434Y79217D01*
X194498Y79299D01*
X194560Y79382D01*
X194618Y79468D01*
X194673Y79557D01*
X194724Y79647D01*
X194772Y79739D01*
X194816Y79833D01*
X194857Y79928D01*
X194894Y80025D01*
X194927Y80124D01*
X194956Y80223D01*
X194982Y80324D01*
X195003Y80425D01*
X195021Y80527D01*
X195035Y80630D01*
X195045Y80734D01*
X195051Y80837D01*
X195053Y80941D01*
X195053Y86360D01*
X195051Y86461D01*
X195045Y86562D01*
X195036Y86663D01*
X195023Y86764D01*
X195006Y86864D01*
X194985Y86963D01*
X194961Y87061D01*
X194933Y87158D01*
X194901Y87255D01*
X194866Y87350D01*
X194827Y87443D01*
X194785Y87535D01*
X194739Y87626D01*
X194690Y87715D01*
X194638Y87801D01*
X194582Y87886D01*
X194524Y87969D01*
X194462Y88049D01*
X194397Y88127D01*
X194330Y88203D01*
X194260Y88276D01*
X194187Y88346D01*
X194111Y88413D01*
X194033Y88478D01*
X193953Y88540D01*
X193870Y88598D01*
X193785Y88654D01*
X193699Y88706D01*
X193610Y88755D01*
X193519Y88801D01*
X193427Y88843D01*
X193334Y88882D01*
X193239Y88917D01*
X193142Y88949D01*
X193045Y88977D01*
X192947Y89001D01*
X192848Y89022D01*
X192748Y89039D01*
X192647Y89052D01*
X192546Y89061D01*
X192445Y89067D01*
X192344Y89069D01*
X187828Y89069D01*
X200816Y79135D02*
X200816Y78232D01*
X200816Y79135D02*
X201719Y79135D01*
X201719Y78232D01*
X200816Y78232D01*
X210281Y78232D02*
X213894Y78232D01*
X210281Y78232D02*
X210180Y78234D01*
X210079Y78240D01*
X209978Y78249D01*
X209877Y78262D01*
X209777Y78279D01*
X209678Y78300D01*
X209580Y78324D01*
X209483Y78352D01*
X209386Y78384D01*
X209291Y78419D01*
X209198Y78458D01*
X209106Y78500D01*
X209015Y78546D01*
X208927Y78595D01*
X208840Y78647D01*
X208755Y78703D01*
X208672Y78761D01*
X208592Y78823D01*
X208514Y78888D01*
X208438Y78955D01*
X208365Y79025D01*
X208295Y79098D01*
X208228Y79174D01*
X208163Y79252D01*
X208101Y79332D01*
X208043Y79415D01*
X207987Y79500D01*
X207935Y79587D01*
X207886Y79675D01*
X207840Y79766D01*
X207798Y79858D01*
X207759Y79951D01*
X207724Y80046D01*
X207692Y80143D01*
X207664Y80240D01*
X207640Y80338D01*
X207619Y80437D01*
X207602Y80537D01*
X207589Y80638D01*
X207580Y80739D01*
X207574Y80840D01*
X207572Y80941D01*
X207572Y86360D01*
X207574Y86461D01*
X207580Y86562D01*
X207589Y86663D01*
X207602Y86764D01*
X207619Y86864D01*
X207640Y86963D01*
X207664Y87061D01*
X207692Y87158D01*
X207724Y87255D01*
X207759Y87350D01*
X207798Y87443D01*
X207840Y87535D01*
X207886Y87626D01*
X207935Y87715D01*
X207987Y87801D01*
X208043Y87886D01*
X208101Y87969D01*
X208163Y88049D01*
X208228Y88127D01*
X208295Y88203D01*
X208365Y88276D01*
X208438Y88346D01*
X208514Y88413D01*
X208592Y88478D01*
X208672Y88540D01*
X208755Y88598D01*
X208840Y88654D01*
X208927Y88706D01*
X209015Y88755D01*
X209106Y88801D01*
X209198Y88843D01*
X209291Y88882D01*
X209386Y88917D01*
X209483Y88949D01*
X209580Y88977D01*
X209678Y89001D01*
X209777Y89022D01*
X209877Y89039D01*
X209978Y89052D01*
X210079Y89061D01*
X210180Y89067D01*
X210281Y89069D01*
X213894Y89069D01*
X219538Y85457D02*
X219538Y81844D01*
X219539Y85457D02*
X219541Y85576D01*
X219547Y85696D01*
X219557Y85815D01*
X219571Y85933D01*
X219588Y86052D01*
X219610Y86169D01*
X219635Y86286D01*
X219665Y86401D01*
X219698Y86516D01*
X219735Y86630D01*
X219775Y86742D01*
X219820Y86853D01*
X219868Y86962D01*
X219919Y87070D01*
X219974Y87176D01*
X220033Y87280D01*
X220095Y87382D01*
X220160Y87482D01*
X220229Y87580D01*
X220301Y87676D01*
X220376Y87769D01*
X220453Y87859D01*
X220534Y87947D01*
X220618Y88032D01*
X220705Y88114D01*
X220794Y88194D01*
X220886Y88270D01*
X220980Y88344D01*
X221077Y88414D01*
X221175Y88481D01*
X221276Y88545D01*
X221380Y88605D01*
X221485Y88662D01*
X221592Y88715D01*
X221700Y88765D01*
X221810Y88811D01*
X221922Y88853D01*
X222035Y88892D01*
X222149Y88927D01*
X222264Y88958D01*
X222381Y88986D01*
X222498Y89009D01*
X222615Y89029D01*
X222734Y89045D01*
X222853Y89057D01*
X222972Y89065D01*
X223091Y89069D01*
X223211Y89069D01*
X223330Y89065D01*
X223449Y89057D01*
X223568Y89045D01*
X223687Y89029D01*
X223804Y89009D01*
X223921Y88986D01*
X224038Y88958D01*
X224153Y88927D01*
X224267Y88892D01*
X224380Y88853D01*
X224492Y88811D01*
X224602Y88765D01*
X224710Y88715D01*
X224817Y88662D01*
X224922Y88605D01*
X225026Y88545D01*
X225127Y88481D01*
X225225Y88414D01*
X225322Y88344D01*
X225416Y88270D01*
X225508Y88194D01*
X225597Y88114D01*
X225684Y88032D01*
X225768Y87947D01*
X225849Y87859D01*
X225926Y87769D01*
X226001Y87676D01*
X226073Y87580D01*
X226142Y87482D01*
X226207Y87382D01*
X226269Y87280D01*
X226328Y87176D01*
X226383Y87070D01*
X226434Y86962D01*
X226482Y86853D01*
X226527Y86742D01*
X226567Y86630D01*
X226604Y86516D01*
X226637Y86401D01*
X226667Y86286D01*
X226692Y86169D01*
X226714Y86052D01*
X226731Y85933D01*
X226745Y85815D01*
X226755Y85696D01*
X226761Y85576D01*
X226763Y85457D01*
X226763Y81844D01*
X226761Y81725D01*
X226755Y81605D01*
X226745Y81486D01*
X226731Y81368D01*
X226714Y81249D01*
X226692Y81132D01*
X226667Y81015D01*
X226637Y80900D01*
X226604Y80785D01*
X226567Y80671D01*
X226527Y80559D01*
X226482Y80448D01*
X226434Y80339D01*
X226383Y80231D01*
X226328Y80125D01*
X226269Y80021D01*
X226207Y79919D01*
X226142Y79819D01*
X226073Y79721D01*
X226001Y79625D01*
X225926Y79532D01*
X225849Y79442D01*
X225768Y79354D01*
X225684Y79269D01*
X225597Y79187D01*
X225508Y79107D01*
X225416Y79031D01*
X225322Y78957D01*
X225225Y78887D01*
X225127Y78820D01*
X225026Y78756D01*
X224922Y78696D01*
X224817Y78639D01*
X224710Y78586D01*
X224602Y78536D01*
X224492Y78490D01*
X224380Y78448D01*
X224267Y78409D01*
X224153Y78374D01*
X224038Y78343D01*
X223921Y78315D01*
X223804Y78292D01*
X223687Y78272D01*
X223568Y78256D01*
X223449Y78244D01*
X223330Y78236D01*
X223211Y78232D01*
X223091Y78232D01*
X222972Y78236D01*
X222853Y78244D01*
X222734Y78256D01*
X222615Y78272D01*
X222498Y78292D01*
X222381Y78315D01*
X222264Y78343D01*
X222149Y78374D01*
X222035Y78409D01*
X221922Y78448D01*
X221810Y78490D01*
X221700Y78536D01*
X221592Y78586D01*
X221485Y78639D01*
X221380Y78696D01*
X221276Y78756D01*
X221175Y78820D01*
X221077Y78887D01*
X220980Y78957D01*
X220886Y79031D01*
X220794Y79107D01*
X220705Y79187D01*
X220618Y79269D01*
X220534Y79354D01*
X220453Y79442D01*
X220376Y79532D01*
X220301Y79625D01*
X220229Y79721D01*
X220160Y79819D01*
X220095Y79919D01*
X220033Y80021D01*
X219974Y80125D01*
X219919Y80231D01*
X219868Y80339D01*
X219820Y80448D01*
X219775Y80559D01*
X219735Y80671D01*
X219698Y80785D01*
X219665Y80900D01*
X219635Y81015D01*
X219610Y81132D01*
X219588Y81249D01*
X219571Y81368D01*
X219557Y81486D01*
X219547Y81605D01*
X219541Y81725D01*
X219539Y81844D01*
X233884Y78232D02*
X233884Y89069D01*
X242012Y89069D01*
X242113Y89067D01*
X242214Y89061D01*
X242315Y89052D01*
X242416Y89039D01*
X242516Y89022D01*
X242615Y89001D01*
X242713Y88977D01*
X242810Y88949D01*
X242907Y88917D01*
X243002Y88882D01*
X243095Y88843D01*
X243187Y88801D01*
X243278Y88755D01*
X243367Y88706D01*
X243453Y88654D01*
X243538Y88598D01*
X243621Y88540D01*
X243701Y88478D01*
X243779Y88413D01*
X243855Y88346D01*
X243928Y88276D01*
X243998Y88203D01*
X244065Y88127D01*
X244130Y88049D01*
X244192Y87969D01*
X244250Y87886D01*
X244306Y87801D01*
X244358Y87715D01*
X244407Y87626D01*
X244453Y87535D01*
X244495Y87443D01*
X244534Y87350D01*
X244569Y87255D01*
X244601Y87158D01*
X244629Y87061D01*
X244653Y86963D01*
X244674Y86864D01*
X244691Y86764D01*
X244704Y86663D01*
X244713Y86562D01*
X244719Y86461D01*
X244721Y86360D01*
X244722Y86360D02*
X244722Y78232D01*
X239303Y78232D02*
X239303Y89069D01*
X251322Y76426D02*
X258547Y96294D01*
X265008Y94488D02*
X265008Y78232D01*
X274039Y78232D02*
X265008Y94488D01*
X274039Y94488D02*
X274039Y78232D01*
X283731Y78232D02*
X288246Y78232D01*
X283731Y78232D02*
X283630Y78234D01*
X283529Y78240D01*
X283428Y78249D01*
X283327Y78262D01*
X283227Y78279D01*
X283128Y78300D01*
X283030Y78324D01*
X282933Y78352D01*
X282836Y78384D01*
X282741Y78419D01*
X282648Y78458D01*
X282556Y78500D01*
X282465Y78546D01*
X282377Y78595D01*
X282290Y78647D01*
X282205Y78703D01*
X282122Y78761D01*
X282042Y78823D01*
X281964Y78888D01*
X281888Y78955D01*
X281815Y79025D01*
X281745Y79098D01*
X281678Y79174D01*
X281613Y79252D01*
X281551Y79332D01*
X281493Y79415D01*
X281437Y79500D01*
X281385Y79587D01*
X281336Y79675D01*
X281290Y79766D01*
X281248Y79858D01*
X281209Y79951D01*
X281174Y80046D01*
X281142Y80143D01*
X281114Y80240D01*
X281090Y80338D01*
X281069Y80437D01*
X281052Y80537D01*
X281039Y80638D01*
X281030Y80739D01*
X281024Y80840D01*
X281022Y80941D01*
X281021Y80941D02*
X281021Y85457D01*
X281022Y85457D02*
X281024Y85576D01*
X281030Y85696D01*
X281040Y85815D01*
X281054Y85933D01*
X281071Y86052D01*
X281093Y86169D01*
X281118Y86286D01*
X281148Y86401D01*
X281181Y86516D01*
X281218Y86630D01*
X281258Y86742D01*
X281303Y86853D01*
X281351Y86962D01*
X281402Y87070D01*
X281457Y87176D01*
X281516Y87280D01*
X281578Y87382D01*
X281643Y87482D01*
X281712Y87580D01*
X281784Y87676D01*
X281859Y87769D01*
X281936Y87859D01*
X282017Y87947D01*
X282101Y88032D01*
X282188Y88114D01*
X282277Y88194D01*
X282369Y88270D01*
X282463Y88344D01*
X282560Y88414D01*
X282658Y88481D01*
X282759Y88545D01*
X282863Y88605D01*
X282968Y88662D01*
X283075Y88715D01*
X283183Y88765D01*
X283293Y88811D01*
X283405Y88853D01*
X283518Y88892D01*
X283632Y88927D01*
X283747Y88958D01*
X283864Y88986D01*
X283981Y89009D01*
X284098Y89029D01*
X284217Y89045D01*
X284336Y89057D01*
X284455Y89065D01*
X284574Y89069D01*
X284694Y89069D01*
X284813Y89065D01*
X284932Y89057D01*
X285051Y89045D01*
X285170Y89029D01*
X285287Y89009D01*
X285404Y88986D01*
X285521Y88958D01*
X285636Y88927D01*
X285750Y88892D01*
X285863Y88853D01*
X285975Y88811D01*
X286085Y88765D01*
X286193Y88715D01*
X286300Y88662D01*
X286405Y88605D01*
X286509Y88545D01*
X286610Y88481D01*
X286708Y88414D01*
X286805Y88344D01*
X286899Y88270D01*
X286991Y88194D01*
X287080Y88114D01*
X287167Y88032D01*
X287251Y87947D01*
X287332Y87859D01*
X287409Y87769D01*
X287484Y87676D01*
X287556Y87580D01*
X287625Y87482D01*
X287690Y87382D01*
X287752Y87280D01*
X287811Y87176D01*
X287866Y87070D01*
X287917Y86962D01*
X287965Y86853D01*
X288010Y86742D01*
X288050Y86630D01*
X288087Y86516D01*
X288120Y86401D01*
X288150Y86286D01*
X288175Y86169D01*
X288197Y86052D01*
X288214Y85933D01*
X288228Y85815D01*
X288238Y85696D01*
X288244Y85576D01*
X288246Y85457D01*
X288246Y83651D01*
X281021Y83651D01*
X297278Y78232D02*
X301793Y78232D01*
X297278Y78232D02*
X297177Y78234D01*
X297076Y78240D01*
X296975Y78249D01*
X296874Y78262D01*
X296774Y78279D01*
X296675Y78300D01*
X296577Y78324D01*
X296480Y78352D01*
X296383Y78384D01*
X296288Y78419D01*
X296195Y78458D01*
X296103Y78500D01*
X296012Y78546D01*
X295924Y78595D01*
X295837Y78647D01*
X295752Y78703D01*
X295669Y78761D01*
X295589Y78823D01*
X295511Y78888D01*
X295435Y78955D01*
X295362Y79025D01*
X295292Y79098D01*
X295225Y79174D01*
X295160Y79252D01*
X295098Y79332D01*
X295040Y79415D01*
X294984Y79500D01*
X294932Y79587D01*
X294883Y79675D01*
X294837Y79766D01*
X294795Y79858D01*
X294756Y79951D01*
X294721Y80046D01*
X294689Y80143D01*
X294661Y80240D01*
X294637Y80338D01*
X294616Y80437D01*
X294599Y80537D01*
X294586Y80638D01*
X294577Y80739D01*
X294571Y80840D01*
X294569Y80941D01*
X294568Y80941D02*
X294568Y85457D01*
X294569Y85457D02*
X294571Y85576D01*
X294577Y85696D01*
X294587Y85815D01*
X294601Y85933D01*
X294618Y86052D01*
X294640Y86169D01*
X294665Y86286D01*
X294695Y86401D01*
X294728Y86516D01*
X294765Y86630D01*
X294805Y86742D01*
X294850Y86853D01*
X294898Y86962D01*
X294949Y87070D01*
X295004Y87176D01*
X295063Y87280D01*
X295125Y87382D01*
X295190Y87482D01*
X295259Y87580D01*
X295331Y87676D01*
X295406Y87769D01*
X295483Y87859D01*
X295564Y87947D01*
X295648Y88032D01*
X295735Y88114D01*
X295824Y88194D01*
X295916Y88270D01*
X296010Y88344D01*
X296107Y88414D01*
X296205Y88481D01*
X296306Y88545D01*
X296410Y88605D01*
X296515Y88662D01*
X296622Y88715D01*
X296730Y88765D01*
X296840Y88811D01*
X296952Y88853D01*
X297065Y88892D01*
X297179Y88927D01*
X297294Y88958D01*
X297411Y88986D01*
X297528Y89009D01*
X297645Y89029D01*
X297764Y89045D01*
X297883Y89057D01*
X298002Y89065D01*
X298121Y89069D01*
X298241Y89069D01*
X298360Y89065D01*
X298479Y89057D01*
X298598Y89045D01*
X298717Y89029D01*
X298834Y89009D01*
X298951Y88986D01*
X299068Y88958D01*
X299183Y88927D01*
X299297Y88892D01*
X299410Y88853D01*
X299522Y88811D01*
X299632Y88765D01*
X299740Y88715D01*
X299847Y88662D01*
X299952Y88605D01*
X300056Y88545D01*
X300157Y88481D01*
X300255Y88414D01*
X300352Y88344D01*
X300446Y88270D01*
X300538Y88194D01*
X300627Y88114D01*
X300714Y88032D01*
X300798Y87947D01*
X300879Y87859D01*
X300956Y87769D01*
X301031Y87676D01*
X301103Y87580D01*
X301172Y87482D01*
X301237Y87382D01*
X301299Y87280D01*
X301358Y87176D01*
X301413Y87070D01*
X301464Y86962D01*
X301512Y86853D01*
X301557Y86742D01*
X301597Y86630D01*
X301634Y86516D01*
X301667Y86401D01*
X301697Y86286D01*
X301722Y86169D01*
X301744Y86052D01*
X301761Y85933D01*
X301775Y85815D01*
X301785Y85696D01*
X301791Y85576D01*
X301793Y85457D01*
X301793Y83651D01*
X294568Y83651D01*
X308352Y80941D02*
X308352Y94488D01*
X308353Y80941D02*
X308355Y80840D01*
X308361Y80739D01*
X308370Y80638D01*
X308383Y80537D01*
X308400Y80437D01*
X308421Y80338D01*
X308445Y80240D01*
X308473Y80143D01*
X308505Y80046D01*
X308540Y79951D01*
X308579Y79858D01*
X308621Y79766D01*
X308667Y79675D01*
X308716Y79587D01*
X308768Y79500D01*
X308824Y79415D01*
X308882Y79332D01*
X308944Y79252D01*
X309009Y79174D01*
X309076Y79098D01*
X309146Y79025D01*
X309219Y78955D01*
X309295Y78888D01*
X309373Y78823D01*
X309453Y78761D01*
X309536Y78703D01*
X309621Y78647D01*
X309708Y78595D01*
X309796Y78546D01*
X309887Y78500D01*
X309979Y78458D01*
X310072Y78419D01*
X310167Y78384D01*
X310264Y78352D01*
X310361Y78324D01*
X310459Y78300D01*
X310558Y78279D01*
X310658Y78262D01*
X310759Y78249D01*
X310860Y78240D01*
X310961Y78234D01*
X311062Y78232D01*
X316591Y90876D02*
X321107Y94488D01*
X321107Y78232D01*
X325622Y78232D02*
X316591Y78232D01*
X332222Y87263D02*
X337641Y87263D01*
X337759Y87261D01*
X337877Y87255D01*
X337995Y87246D01*
X338112Y87232D01*
X338229Y87215D01*
X338346Y87194D01*
X338461Y87169D01*
X338576Y87140D01*
X338690Y87107D01*
X338802Y87071D01*
X338913Y87031D01*
X339023Y86988D01*
X339132Y86941D01*
X339239Y86891D01*
X339344Y86836D01*
X339447Y86779D01*
X339548Y86718D01*
X339648Y86654D01*
X339745Y86587D01*
X339840Y86517D01*
X339932Y86443D01*
X340023Y86367D01*
X340110Y86287D01*
X340195Y86205D01*
X340277Y86120D01*
X340357Y86033D01*
X340433Y85942D01*
X340507Y85850D01*
X340577Y85755D01*
X340644Y85658D01*
X340708Y85558D01*
X340769Y85457D01*
X340826Y85354D01*
X340881Y85249D01*
X340931Y85142D01*
X340978Y85033D01*
X341021Y84923D01*
X341061Y84812D01*
X341097Y84700D01*
X341130Y84586D01*
X341159Y84471D01*
X341184Y84356D01*
X341205Y84239D01*
X341222Y84122D01*
X341236Y84005D01*
X341245Y83887D01*
X341251Y83769D01*
X341253Y83651D01*
X341253Y82748D01*
X341254Y82748D02*
X341252Y82615D01*
X341246Y82483D01*
X341236Y82351D01*
X341223Y82219D01*
X341205Y82087D01*
X341184Y81957D01*
X341159Y81826D01*
X341130Y81697D01*
X341097Y81569D01*
X341061Y81441D01*
X341021Y81315D01*
X340977Y81190D01*
X340929Y81066D01*
X340878Y80944D01*
X340823Y80823D01*
X340765Y80704D01*
X340703Y80586D01*
X340638Y80471D01*
X340569Y80357D01*
X340498Y80246D01*
X340422Y80137D01*
X340344Y80030D01*
X340263Y79925D01*
X340178Y79823D01*
X340091Y79723D01*
X340001Y79626D01*
X339908Y79531D01*
X339812Y79440D01*
X339714Y79351D01*
X339613Y79265D01*
X339509Y79182D01*
X339403Y79102D01*
X339295Y79026D01*
X339185Y78952D01*
X339072Y78882D01*
X338958Y78815D01*
X338841Y78752D01*
X338723Y78692D01*
X338603Y78635D01*
X338481Y78582D01*
X338358Y78533D01*
X338234Y78487D01*
X338108Y78445D01*
X337981Y78407D01*
X337853Y78372D01*
X337724Y78341D01*
X337595Y78314D01*
X337464Y78291D01*
X337333Y78271D01*
X337201Y78256D01*
X337069Y78244D01*
X336937Y78236D01*
X336804Y78232D01*
X336672Y78232D01*
X336539Y78236D01*
X336407Y78244D01*
X336275Y78256D01*
X336143Y78271D01*
X336012Y78291D01*
X335881Y78314D01*
X335752Y78341D01*
X335623Y78372D01*
X335495Y78407D01*
X335368Y78445D01*
X335242Y78487D01*
X335118Y78533D01*
X334995Y78582D01*
X334873Y78635D01*
X334753Y78692D01*
X334635Y78752D01*
X334518Y78815D01*
X334404Y78882D01*
X334291Y78952D01*
X334181Y79026D01*
X334073Y79102D01*
X333967Y79182D01*
X333863Y79265D01*
X333762Y79351D01*
X333664Y79440D01*
X333568Y79531D01*
X333475Y79626D01*
X333385Y79723D01*
X333298Y79823D01*
X333213Y79925D01*
X333132Y80030D01*
X333054Y80137D01*
X332978Y80246D01*
X332907Y80357D01*
X332838Y80471D01*
X332773Y80586D01*
X332711Y80704D01*
X332653Y80823D01*
X332598Y80944D01*
X332547Y81066D01*
X332499Y81190D01*
X332455Y81315D01*
X332415Y81441D01*
X332379Y81569D01*
X332346Y81697D01*
X332317Y81826D01*
X332292Y81957D01*
X332271Y82087D01*
X332253Y82219D01*
X332240Y82351D01*
X332230Y82483D01*
X332224Y82615D01*
X332222Y82748D01*
X332222Y87263D01*
X332224Y87440D01*
X332231Y87618D01*
X332242Y87795D01*
X332257Y87971D01*
X332276Y88147D01*
X332300Y88323D01*
X332328Y88498D01*
X332361Y88673D01*
X332398Y88846D01*
X332439Y89019D01*
X332484Y89190D01*
X332533Y89360D01*
X332587Y89529D01*
X332644Y89697D01*
X332706Y89863D01*
X332772Y90028D01*
X332842Y90191D01*
X332916Y90352D01*
X332993Y90511D01*
X333075Y90669D01*
X333161Y90824D01*
X333250Y90977D01*
X333343Y91128D01*
X333440Y91277D01*
X333540Y91423D01*
X333644Y91567D01*
X333751Y91708D01*
X333862Y91846D01*
X333976Y91982D01*
X334094Y92115D01*
X334214Y92245D01*
X334338Y92372D01*
X334465Y92496D01*
X334595Y92616D01*
X334728Y92734D01*
X334863Y92848D01*
X335002Y92959D01*
X335143Y93066D01*
X335287Y93170D01*
X335433Y93270D01*
X335582Y93367D01*
X335733Y93460D01*
X335886Y93549D01*
X336041Y93635D01*
X336199Y93717D01*
X336358Y93794D01*
X336519Y93868D01*
X336682Y93938D01*
X336847Y94004D01*
X337013Y94066D01*
X337181Y94123D01*
X337350Y94177D01*
X337520Y94226D01*
X337691Y94271D01*
X337864Y94312D01*
X338037Y94349D01*
X338212Y94382D01*
X338387Y94410D01*
X338563Y94434D01*
X338739Y94453D01*
X338915Y94468D01*
X339092Y94479D01*
X339270Y94486D01*
X339447Y94488D01*
X138599Y57884D02*
X127762Y57884D01*
X133181Y63302D02*
X133181Y52465D01*
X145338Y64206D02*
X149854Y67818D01*
X149854Y51562D01*
X145338Y51562D02*
X154370Y51562D01*
X169306Y55174D02*
X172919Y67818D01*
X169306Y55174D02*
X178337Y55174D01*
X175628Y58787D02*
X175628Y51562D01*
X184938Y59690D02*
X184942Y60010D01*
X184953Y60329D01*
X184972Y60649D01*
X184999Y60967D01*
X185033Y61285D01*
X185075Y61602D01*
X185125Y61918D01*
X185182Y62233D01*
X185246Y62546D01*
X185318Y62858D01*
X185397Y63168D01*
X185484Y63475D01*
X185578Y63781D01*
X185679Y64084D01*
X185788Y64385D01*
X185903Y64683D01*
X186026Y64979D01*
X186156Y65271D01*
X186293Y65560D01*
X186292Y65561D02*
X186331Y65669D01*
X186374Y65776D01*
X186420Y65881D01*
X186471Y65985D01*
X186524Y66087D01*
X186581Y66187D01*
X186642Y66285D01*
X186706Y66380D01*
X186773Y66474D01*
X186844Y66565D01*
X186917Y66654D01*
X186994Y66740D01*
X187073Y66823D01*
X187155Y66904D01*
X187240Y66982D01*
X187328Y67056D01*
X187418Y67128D01*
X187510Y67196D01*
X187605Y67262D01*
X187702Y67324D01*
X187801Y67382D01*
X187903Y67438D01*
X188005Y67489D01*
X188110Y67537D01*
X188216Y67582D01*
X188324Y67623D01*
X188433Y67660D01*
X188543Y67693D01*
X188655Y67722D01*
X188767Y67748D01*
X188880Y67770D01*
X188994Y67787D01*
X189108Y67801D01*
X189223Y67811D01*
X189338Y67817D01*
X189453Y67819D01*
X189453Y67818D02*
X189568Y67816D01*
X189683Y67810D01*
X189798Y67800D01*
X189912Y67786D01*
X190026Y67769D01*
X190139Y67747D01*
X190251Y67721D01*
X190363Y67692D01*
X190473Y67659D01*
X190582Y67622D01*
X190690Y67581D01*
X190796Y67536D01*
X190901Y67488D01*
X191003Y67437D01*
X191104Y67381D01*
X191204Y67323D01*
X191301Y67261D01*
X191395Y67196D01*
X191488Y67127D01*
X191578Y67055D01*
X191666Y66981D01*
X191751Y66903D01*
X191833Y66822D01*
X191912Y66739D01*
X191989Y66653D01*
X192062Y66564D01*
X192133Y66473D01*
X192200Y66379D01*
X192264Y66284D01*
X192325Y66186D01*
X192382Y66086D01*
X192435Y65984D01*
X192486Y65880D01*
X192532Y65775D01*
X192575Y65668D01*
X192614Y65560D01*
X192613Y65560D02*
X192750Y65271D01*
X192880Y64979D01*
X193003Y64683D01*
X193118Y64385D01*
X193227Y64084D01*
X193328Y63781D01*
X193422Y63475D01*
X193509Y63168D01*
X193588Y62858D01*
X193660Y62546D01*
X193724Y62233D01*
X193781Y61918D01*
X193831Y61602D01*
X193873Y61285D01*
X193907Y60967D01*
X193934Y60649D01*
X193953Y60329D01*
X193964Y60010D01*
X193968Y59690D01*
X184938Y59690D02*
X184942Y59370D01*
X184953Y59051D01*
X184972Y58731D01*
X184999Y58413D01*
X185033Y58095D01*
X185075Y57778D01*
X185125Y57462D01*
X185182Y57147D01*
X185246Y56834D01*
X185318Y56522D01*
X185397Y56212D01*
X185484Y55905D01*
X185578Y55599D01*
X185679Y55296D01*
X185788Y54995D01*
X185903Y54697D01*
X186026Y54401D01*
X186156Y54109D01*
X186293Y53820D01*
X186292Y53820D02*
X186331Y53712D01*
X186374Y53605D01*
X186420Y53500D01*
X186471Y53396D01*
X186524Y53294D01*
X186581Y53194D01*
X186642Y53096D01*
X186706Y53001D01*
X186773Y52907D01*
X186844Y52816D01*
X186917Y52727D01*
X186994Y52641D01*
X187073Y52558D01*
X187155Y52477D01*
X187240Y52399D01*
X187328Y52325D01*
X187418Y52253D01*
X187511Y52184D01*
X187605Y52119D01*
X187702Y52057D01*
X187802Y51999D01*
X187903Y51943D01*
X188005Y51892D01*
X188110Y51844D01*
X188216Y51799D01*
X188324Y51758D01*
X188433Y51721D01*
X188543Y51688D01*
X188655Y51659D01*
X188767Y51633D01*
X188880Y51611D01*
X188994Y51594D01*
X189108Y51580D01*
X189223Y51570D01*
X189338Y51564D01*
X189453Y51562D01*
X192613Y53820D02*
X192750Y54109D01*
X192880Y54401D01*
X193003Y54697D01*
X193118Y54995D01*
X193227Y55296D01*
X193328Y55599D01*
X193422Y55905D01*
X193509Y56212D01*
X193588Y56522D01*
X193660Y56834D01*
X193724Y57147D01*
X193781Y57462D01*
X193831Y57778D01*
X193873Y58095D01*
X193907Y58413D01*
X193934Y58731D01*
X193953Y59051D01*
X193964Y59370D01*
X193968Y59690D01*
X192614Y53820D02*
X192575Y53712D01*
X192532Y53605D01*
X192486Y53500D01*
X192435Y53396D01*
X192382Y53294D01*
X192325Y53194D01*
X192264Y53096D01*
X192200Y53001D01*
X192133Y52907D01*
X192062Y52816D01*
X191989Y52727D01*
X191912Y52641D01*
X191833Y52558D01*
X191751Y52477D01*
X191666Y52399D01*
X191578Y52325D01*
X191488Y52253D01*
X191395Y52184D01*
X191301Y52119D01*
X191204Y52057D01*
X191104Y51999D01*
X191003Y51943D01*
X190900Y51892D01*
X190796Y51844D01*
X190690Y51799D01*
X190582Y51758D01*
X190473Y51721D01*
X190363Y51688D01*
X190251Y51659D01*
X190139Y51633D01*
X190026Y51611D01*
X189912Y51594D01*
X189798Y51580D01*
X189683Y51570D01*
X189568Y51564D01*
X189453Y51562D01*
X185841Y55174D02*
X193065Y64206D01*
X200568Y56078D02*
X200570Y56211D01*
X200576Y56343D01*
X200586Y56475D01*
X200599Y56607D01*
X200617Y56739D01*
X200638Y56869D01*
X200663Y57000D01*
X200692Y57129D01*
X200725Y57257D01*
X200761Y57385D01*
X200801Y57511D01*
X200845Y57636D01*
X200893Y57760D01*
X200944Y57882D01*
X200999Y58003D01*
X201057Y58122D01*
X201119Y58240D01*
X201184Y58355D01*
X201253Y58469D01*
X201324Y58580D01*
X201400Y58689D01*
X201478Y58796D01*
X201559Y58901D01*
X201644Y59003D01*
X201731Y59103D01*
X201821Y59200D01*
X201914Y59295D01*
X202010Y59386D01*
X202108Y59475D01*
X202209Y59561D01*
X202313Y59644D01*
X202419Y59724D01*
X202527Y59800D01*
X202637Y59874D01*
X202750Y59944D01*
X202864Y60011D01*
X202981Y60074D01*
X203099Y60134D01*
X203219Y60191D01*
X203341Y60244D01*
X203464Y60293D01*
X203588Y60339D01*
X203714Y60381D01*
X203841Y60419D01*
X203969Y60454D01*
X204098Y60485D01*
X204227Y60512D01*
X204358Y60535D01*
X204489Y60555D01*
X204621Y60570D01*
X204753Y60582D01*
X204885Y60590D01*
X205018Y60594D01*
X205150Y60594D01*
X205283Y60590D01*
X205415Y60582D01*
X205547Y60570D01*
X205679Y60555D01*
X205810Y60535D01*
X205941Y60512D01*
X206070Y60485D01*
X206199Y60454D01*
X206327Y60419D01*
X206454Y60381D01*
X206580Y60339D01*
X206704Y60293D01*
X206827Y60244D01*
X206949Y60191D01*
X207069Y60134D01*
X207187Y60074D01*
X207304Y60011D01*
X207418Y59944D01*
X207531Y59874D01*
X207641Y59800D01*
X207749Y59724D01*
X207855Y59644D01*
X207959Y59561D01*
X208060Y59475D01*
X208158Y59386D01*
X208254Y59295D01*
X208347Y59200D01*
X208437Y59103D01*
X208524Y59003D01*
X208609Y58901D01*
X208690Y58796D01*
X208768Y58689D01*
X208844Y58580D01*
X208915Y58469D01*
X208984Y58355D01*
X209049Y58240D01*
X209111Y58122D01*
X209169Y58003D01*
X209224Y57882D01*
X209275Y57760D01*
X209323Y57636D01*
X209367Y57511D01*
X209407Y57385D01*
X209443Y57257D01*
X209476Y57129D01*
X209505Y57000D01*
X209530Y56869D01*
X209551Y56739D01*
X209569Y56607D01*
X209582Y56475D01*
X209592Y56343D01*
X209598Y56211D01*
X209600Y56078D01*
X209598Y55945D01*
X209592Y55813D01*
X209582Y55681D01*
X209569Y55549D01*
X209551Y55417D01*
X209530Y55287D01*
X209505Y55156D01*
X209476Y55027D01*
X209443Y54899D01*
X209407Y54771D01*
X209367Y54645D01*
X209323Y54520D01*
X209275Y54396D01*
X209224Y54274D01*
X209169Y54153D01*
X209111Y54034D01*
X209049Y53916D01*
X208984Y53801D01*
X208915Y53687D01*
X208844Y53576D01*
X208768Y53467D01*
X208690Y53360D01*
X208609Y53255D01*
X208524Y53153D01*
X208437Y53053D01*
X208347Y52956D01*
X208254Y52861D01*
X208158Y52770D01*
X208060Y52681D01*
X207959Y52595D01*
X207855Y52512D01*
X207749Y52432D01*
X207641Y52356D01*
X207531Y52282D01*
X207418Y52212D01*
X207304Y52145D01*
X207187Y52082D01*
X207069Y52022D01*
X206949Y51965D01*
X206827Y51912D01*
X206704Y51863D01*
X206580Y51817D01*
X206454Y51775D01*
X206327Y51737D01*
X206199Y51702D01*
X206070Y51671D01*
X205941Y51644D01*
X205810Y51621D01*
X205679Y51601D01*
X205547Y51586D01*
X205415Y51574D01*
X205283Y51566D01*
X205150Y51562D01*
X205018Y51562D01*
X204885Y51566D01*
X204753Y51574D01*
X204621Y51586D01*
X204489Y51601D01*
X204358Y51621D01*
X204227Y51644D01*
X204098Y51671D01*
X203969Y51702D01*
X203841Y51737D01*
X203714Y51775D01*
X203588Y51817D01*
X203464Y51863D01*
X203341Y51912D01*
X203219Y51965D01*
X203099Y52022D01*
X202981Y52082D01*
X202864Y52145D01*
X202750Y52212D01*
X202637Y52282D01*
X202527Y52356D01*
X202419Y52432D01*
X202313Y52512D01*
X202209Y52595D01*
X202108Y52681D01*
X202010Y52770D01*
X201914Y52861D01*
X201821Y52956D01*
X201731Y53053D01*
X201644Y53153D01*
X201559Y53255D01*
X201478Y53360D01*
X201400Y53467D01*
X201324Y53576D01*
X201253Y53687D01*
X201184Y53801D01*
X201119Y53916D01*
X201057Y54034D01*
X200999Y54153D01*
X200944Y54274D01*
X200893Y54396D01*
X200845Y54520D01*
X200801Y54645D01*
X200761Y54771D01*
X200725Y54899D01*
X200692Y55027D01*
X200663Y55156D01*
X200638Y55287D01*
X200617Y55417D01*
X200599Y55549D01*
X200586Y55681D01*
X200576Y55813D01*
X200570Y55945D01*
X200568Y56078D01*
X201472Y64206D02*
X201474Y64325D01*
X201480Y64445D01*
X201490Y64564D01*
X201504Y64682D01*
X201521Y64801D01*
X201543Y64918D01*
X201568Y65035D01*
X201598Y65150D01*
X201631Y65265D01*
X201668Y65379D01*
X201708Y65491D01*
X201753Y65602D01*
X201801Y65711D01*
X201852Y65819D01*
X201907Y65925D01*
X201966Y66029D01*
X202028Y66131D01*
X202093Y66231D01*
X202162Y66329D01*
X202234Y66425D01*
X202309Y66518D01*
X202386Y66608D01*
X202467Y66696D01*
X202551Y66781D01*
X202638Y66863D01*
X202727Y66943D01*
X202819Y67019D01*
X202913Y67093D01*
X203010Y67163D01*
X203108Y67230D01*
X203209Y67294D01*
X203313Y67354D01*
X203418Y67411D01*
X203525Y67464D01*
X203633Y67514D01*
X203743Y67560D01*
X203855Y67602D01*
X203968Y67641D01*
X204082Y67676D01*
X204197Y67707D01*
X204314Y67735D01*
X204431Y67758D01*
X204548Y67778D01*
X204667Y67794D01*
X204786Y67806D01*
X204905Y67814D01*
X205024Y67818D01*
X205144Y67818D01*
X205263Y67814D01*
X205382Y67806D01*
X205501Y67794D01*
X205620Y67778D01*
X205737Y67758D01*
X205854Y67735D01*
X205971Y67707D01*
X206086Y67676D01*
X206200Y67641D01*
X206313Y67602D01*
X206425Y67560D01*
X206535Y67514D01*
X206643Y67464D01*
X206750Y67411D01*
X206855Y67354D01*
X206959Y67294D01*
X207060Y67230D01*
X207158Y67163D01*
X207255Y67093D01*
X207349Y67019D01*
X207441Y66943D01*
X207530Y66863D01*
X207617Y66781D01*
X207701Y66696D01*
X207782Y66608D01*
X207859Y66518D01*
X207934Y66425D01*
X208006Y66329D01*
X208075Y66231D01*
X208140Y66131D01*
X208202Y66029D01*
X208261Y65925D01*
X208316Y65819D01*
X208367Y65711D01*
X208415Y65602D01*
X208460Y65491D01*
X208500Y65379D01*
X208537Y65265D01*
X208570Y65150D01*
X208600Y65035D01*
X208625Y64918D01*
X208647Y64801D01*
X208664Y64682D01*
X208678Y64564D01*
X208688Y64445D01*
X208694Y64325D01*
X208696Y64206D01*
X208694Y64087D01*
X208688Y63967D01*
X208678Y63848D01*
X208664Y63730D01*
X208647Y63611D01*
X208625Y63494D01*
X208600Y63377D01*
X208570Y63262D01*
X208537Y63147D01*
X208500Y63033D01*
X208460Y62921D01*
X208415Y62810D01*
X208367Y62701D01*
X208316Y62593D01*
X208261Y62487D01*
X208202Y62383D01*
X208140Y62281D01*
X208075Y62181D01*
X208006Y62083D01*
X207934Y61987D01*
X207859Y61894D01*
X207782Y61804D01*
X207701Y61716D01*
X207617Y61631D01*
X207530Y61549D01*
X207441Y61469D01*
X207349Y61393D01*
X207255Y61319D01*
X207158Y61249D01*
X207060Y61182D01*
X206959Y61118D01*
X206855Y61058D01*
X206750Y61001D01*
X206643Y60948D01*
X206535Y60898D01*
X206425Y60852D01*
X206313Y60810D01*
X206200Y60771D01*
X206086Y60736D01*
X205971Y60705D01*
X205854Y60677D01*
X205737Y60654D01*
X205620Y60634D01*
X205501Y60618D01*
X205382Y60606D01*
X205263Y60598D01*
X205144Y60594D01*
X205024Y60594D01*
X204905Y60598D01*
X204786Y60606D01*
X204667Y60618D01*
X204548Y60634D01*
X204431Y60654D01*
X204314Y60677D01*
X204197Y60705D01*
X204082Y60736D01*
X203968Y60771D01*
X203855Y60810D01*
X203743Y60852D01*
X203633Y60898D01*
X203525Y60948D01*
X203418Y61001D01*
X203313Y61058D01*
X203209Y61118D01*
X203108Y61182D01*
X203010Y61249D01*
X202913Y61319D01*
X202819Y61393D01*
X202727Y61469D01*
X202638Y61549D01*
X202551Y61631D01*
X202467Y61716D01*
X202386Y61804D01*
X202309Y61894D01*
X202234Y61987D01*
X202162Y62083D01*
X202093Y62181D01*
X202028Y62281D01*
X201966Y62383D01*
X201907Y62487D01*
X201852Y62593D01*
X201801Y62701D01*
X201753Y62810D01*
X201708Y62921D01*
X201668Y63033D01*
X201631Y63147D01*
X201598Y63262D01*
X201568Y63377D01*
X201543Y63494D01*
X201521Y63611D01*
X201504Y63730D01*
X201490Y63848D01*
X201480Y63967D01*
X201474Y64087D01*
X201472Y64206D01*
X224537Y66012D02*
X224537Y67818D01*
X233568Y67818D01*
X229052Y51562D01*
X240168Y59690D02*
X240172Y60010D01*
X240183Y60329D01*
X240202Y60649D01*
X240229Y60967D01*
X240263Y61285D01*
X240305Y61602D01*
X240355Y61918D01*
X240412Y62233D01*
X240476Y62546D01*
X240548Y62858D01*
X240627Y63168D01*
X240714Y63475D01*
X240808Y63781D01*
X240909Y64084D01*
X241018Y64385D01*
X241133Y64683D01*
X241256Y64979D01*
X241386Y65271D01*
X241523Y65560D01*
X241522Y65561D02*
X241561Y65669D01*
X241604Y65776D01*
X241650Y65881D01*
X241701Y65985D01*
X241754Y66087D01*
X241811Y66187D01*
X241872Y66285D01*
X241936Y66380D01*
X242003Y66474D01*
X242074Y66565D01*
X242147Y66654D01*
X242224Y66740D01*
X242303Y66823D01*
X242385Y66904D01*
X242470Y66982D01*
X242558Y67056D01*
X242648Y67128D01*
X242740Y67196D01*
X242835Y67262D01*
X242932Y67324D01*
X243031Y67382D01*
X243133Y67438D01*
X243235Y67489D01*
X243340Y67537D01*
X243446Y67582D01*
X243554Y67623D01*
X243663Y67660D01*
X243773Y67693D01*
X243885Y67722D01*
X243997Y67748D01*
X244110Y67770D01*
X244224Y67787D01*
X244338Y67801D01*
X244453Y67811D01*
X244568Y67817D01*
X244683Y67819D01*
X244683Y67818D02*
X244798Y67816D01*
X244913Y67810D01*
X245028Y67800D01*
X245142Y67786D01*
X245256Y67769D01*
X245369Y67747D01*
X245481Y67721D01*
X245593Y67692D01*
X245703Y67659D01*
X245812Y67622D01*
X245920Y67581D01*
X246026Y67536D01*
X246131Y67488D01*
X246233Y67437D01*
X246334Y67381D01*
X246434Y67323D01*
X246531Y67261D01*
X246625Y67196D01*
X246718Y67127D01*
X246808Y67055D01*
X246896Y66981D01*
X246981Y66903D01*
X247063Y66822D01*
X247142Y66739D01*
X247219Y66653D01*
X247292Y66564D01*
X247363Y66473D01*
X247430Y66379D01*
X247494Y66284D01*
X247555Y66186D01*
X247612Y66086D01*
X247665Y65984D01*
X247716Y65880D01*
X247762Y65775D01*
X247805Y65668D01*
X247844Y65560D01*
X247981Y65271D01*
X248111Y64979D01*
X248234Y64683D01*
X248349Y64385D01*
X248458Y64084D01*
X248559Y63781D01*
X248653Y63475D01*
X248740Y63168D01*
X248819Y62858D01*
X248891Y62546D01*
X248955Y62233D01*
X249012Y61918D01*
X249062Y61602D01*
X249104Y61285D01*
X249138Y60967D01*
X249165Y60649D01*
X249184Y60329D01*
X249195Y60010D01*
X249199Y59690D01*
X240168Y59690D02*
X240172Y59370D01*
X240183Y59051D01*
X240202Y58731D01*
X240229Y58413D01*
X240263Y58095D01*
X240305Y57778D01*
X240355Y57462D01*
X240412Y57147D01*
X240476Y56834D01*
X240548Y56522D01*
X240627Y56212D01*
X240714Y55905D01*
X240808Y55599D01*
X240909Y55296D01*
X241018Y54995D01*
X241133Y54697D01*
X241256Y54401D01*
X241386Y54109D01*
X241523Y53820D01*
X241522Y53820D02*
X241561Y53712D01*
X241604Y53605D01*
X241650Y53500D01*
X241701Y53396D01*
X241754Y53294D01*
X241811Y53194D01*
X241872Y53096D01*
X241936Y53001D01*
X242003Y52907D01*
X242074Y52816D01*
X242147Y52727D01*
X242224Y52641D01*
X242303Y52558D01*
X242385Y52477D01*
X242470Y52399D01*
X242558Y52325D01*
X242648Y52253D01*
X242741Y52184D01*
X242835Y52119D01*
X242932Y52057D01*
X243032Y51999D01*
X243133Y51943D01*
X243235Y51892D01*
X243340Y51844D01*
X243446Y51799D01*
X243554Y51758D01*
X243663Y51721D01*
X243773Y51688D01*
X243885Y51659D01*
X243997Y51633D01*
X244110Y51611D01*
X244224Y51594D01*
X244338Y51580D01*
X244453Y51570D01*
X244568Y51564D01*
X244683Y51562D01*
X247843Y53820D02*
X247980Y54109D01*
X248110Y54401D01*
X248233Y54697D01*
X248348Y54995D01*
X248457Y55296D01*
X248558Y55599D01*
X248652Y55905D01*
X248739Y56212D01*
X248818Y56522D01*
X248890Y56834D01*
X248954Y57147D01*
X249011Y57462D01*
X249061Y57778D01*
X249103Y58095D01*
X249137Y58413D01*
X249164Y58731D01*
X249183Y59051D01*
X249194Y59370D01*
X249198Y59690D01*
X247844Y53820D02*
X247805Y53712D01*
X247762Y53605D01*
X247716Y53500D01*
X247665Y53396D01*
X247612Y53294D01*
X247555Y53194D01*
X247494Y53096D01*
X247430Y53001D01*
X247363Y52907D01*
X247292Y52816D01*
X247219Y52727D01*
X247142Y52641D01*
X247063Y52558D01*
X246981Y52477D01*
X246896Y52399D01*
X246808Y52325D01*
X246718Y52253D01*
X246625Y52184D01*
X246531Y52119D01*
X246434Y52057D01*
X246334Y51999D01*
X246233Y51943D01*
X246130Y51892D01*
X246026Y51844D01*
X245920Y51799D01*
X245812Y51758D01*
X245703Y51721D01*
X245593Y51688D01*
X245481Y51659D01*
X245369Y51633D01*
X245256Y51611D01*
X245142Y51594D01*
X245028Y51580D01*
X244913Y51570D01*
X244798Y51564D01*
X244683Y51562D01*
X241071Y55174D02*
X248296Y64206D01*
X255799Y56078D02*
X255801Y56211D01*
X255807Y56343D01*
X255817Y56475D01*
X255830Y56607D01*
X255848Y56739D01*
X255869Y56869D01*
X255894Y57000D01*
X255923Y57129D01*
X255956Y57257D01*
X255992Y57385D01*
X256032Y57511D01*
X256076Y57636D01*
X256124Y57760D01*
X256175Y57882D01*
X256230Y58003D01*
X256288Y58122D01*
X256350Y58240D01*
X256415Y58355D01*
X256484Y58469D01*
X256555Y58580D01*
X256631Y58689D01*
X256709Y58796D01*
X256790Y58901D01*
X256875Y59003D01*
X256962Y59103D01*
X257052Y59200D01*
X257145Y59295D01*
X257241Y59386D01*
X257339Y59475D01*
X257440Y59561D01*
X257544Y59644D01*
X257650Y59724D01*
X257758Y59800D01*
X257868Y59874D01*
X257981Y59944D01*
X258095Y60011D01*
X258212Y60074D01*
X258330Y60134D01*
X258450Y60191D01*
X258572Y60244D01*
X258695Y60293D01*
X258819Y60339D01*
X258945Y60381D01*
X259072Y60419D01*
X259200Y60454D01*
X259329Y60485D01*
X259458Y60512D01*
X259589Y60535D01*
X259720Y60555D01*
X259852Y60570D01*
X259984Y60582D01*
X260116Y60590D01*
X260249Y60594D01*
X260381Y60594D01*
X260514Y60590D01*
X260646Y60582D01*
X260778Y60570D01*
X260910Y60555D01*
X261041Y60535D01*
X261172Y60512D01*
X261301Y60485D01*
X261430Y60454D01*
X261558Y60419D01*
X261685Y60381D01*
X261811Y60339D01*
X261935Y60293D01*
X262058Y60244D01*
X262180Y60191D01*
X262300Y60134D01*
X262418Y60074D01*
X262535Y60011D01*
X262649Y59944D01*
X262762Y59874D01*
X262872Y59800D01*
X262980Y59724D01*
X263086Y59644D01*
X263190Y59561D01*
X263291Y59475D01*
X263389Y59386D01*
X263485Y59295D01*
X263578Y59200D01*
X263668Y59103D01*
X263755Y59003D01*
X263840Y58901D01*
X263921Y58796D01*
X263999Y58689D01*
X264075Y58580D01*
X264146Y58469D01*
X264215Y58355D01*
X264280Y58240D01*
X264342Y58122D01*
X264400Y58003D01*
X264455Y57882D01*
X264506Y57760D01*
X264554Y57636D01*
X264598Y57511D01*
X264638Y57385D01*
X264674Y57257D01*
X264707Y57129D01*
X264736Y57000D01*
X264761Y56869D01*
X264782Y56739D01*
X264800Y56607D01*
X264813Y56475D01*
X264823Y56343D01*
X264829Y56211D01*
X264831Y56078D01*
X264829Y55945D01*
X264823Y55813D01*
X264813Y55681D01*
X264800Y55549D01*
X264782Y55417D01*
X264761Y55287D01*
X264736Y55156D01*
X264707Y55027D01*
X264674Y54899D01*
X264638Y54771D01*
X264598Y54645D01*
X264554Y54520D01*
X264506Y54396D01*
X264455Y54274D01*
X264400Y54153D01*
X264342Y54034D01*
X264280Y53916D01*
X264215Y53801D01*
X264146Y53687D01*
X264075Y53576D01*
X263999Y53467D01*
X263921Y53360D01*
X263840Y53255D01*
X263755Y53153D01*
X263668Y53053D01*
X263578Y52956D01*
X263485Y52861D01*
X263389Y52770D01*
X263291Y52681D01*
X263190Y52595D01*
X263086Y52512D01*
X262980Y52432D01*
X262872Y52356D01*
X262762Y52282D01*
X262649Y52212D01*
X262535Y52145D01*
X262418Y52082D01*
X262300Y52022D01*
X262180Y51965D01*
X262058Y51912D01*
X261935Y51863D01*
X261811Y51817D01*
X261685Y51775D01*
X261558Y51737D01*
X261430Y51702D01*
X261301Y51671D01*
X261172Y51644D01*
X261041Y51621D01*
X260910Y51601D01*
X260778Y51586D01*
X260646Y51574D01*
X260514Y51566D01*
X260381Y51562D01*
X260249Y51562D01*
X260116Y51566D01*
X259984Y51574D01*
X259852Y51586D01*
X259720Y51601D01*
X259589Y51621D01*
X259458Y51644D01*
X259329Y51671D01*
X259200Y51702D01*
X259072Y51737D01*
X258945Y51775D01*
X258819Y51817D01*
X258695Y51863D01*
X258572Y51912D01*
X258450Y51965D01*
X258330Y52022D01*
X258212Y52082D01*
X258095Y52145D01*
X257981Y52212D01*
X257868Y52282D01*
X257758Y52356D01*
X257650Y52432D01*
X257544Y52512D01*
X257440Y52595D01*
X257339Y52681D01*
X257241Y52770D01*
X257145Y52861D01*
X257052Y52956D01*
X256962Y53053D01*
X256875Y53153D01*
X256790Y53255D01*
X256709Y53360D01*
X256631Y53467D01*
X256555Y53576D01*
X256484Y53687D01*
X256415Y53801D01*
X256350Y53916D01*
X256288Y54034D01*
X256230Y54153D01*
X256175Y54274D01*
X256124Y54396D01*
X256076Y54520D01*
X256032Y54645D01*
X255992Y54771D01*
X255956Y54899D01*
X255923Y55027D01*
X255894Y55156D01*
X255869Y55287D01*
X255848Y55417D01*
X255830Y55549D01*
X255817Y55681D01*
X255807Y55813D01*
X255801Y55945D01*
X255799Y56078D01*
X256703Y64206D02*
X256705Y64325D01*
X256711Y64445D01*
X256721Y64564D01*
X256735Y64682D01*
X256752Y64801D01*
X256774Y64918D01*
X256799Y65035D01*
X256829Y65150D01*
X256862Y65265D01*
X256899Y65379D01*
X256939Y65491D01*
X256984Y65602D01*
X257032Y65711D01*
X257083Y65819D01*
X257138Y65925D01*
X257197Y66029D01*
X257259Y66131D01*
X257324Y66231D01*
X257393Y66329D01*
X257465Y66425D01*
X257540Y66518D01*
X257617Y66608D01*
X257698Y66696D01*
X257782Y66781D01*
X257869Y66863D01*
X257958Y66943D01*
X258050Y67019D01*
X258144Y67093D01*
X258241Y67163D01*
X258339Y67230D01*
X258440Y67294D01*
X258544Y67354D01*
X258649Y67411D01*
X258756Y67464D01*
X258864Y67514D01*
X258974Y67560D01*
X259086Y67602D01*
X259199Y67641D01*
X259313Y67676D01*
X259428Y67707D01*
X259545Y67735D01*
X259662Y67758D01*
X259779Y67778D01*
X259898Y67794D01*
X260017Y67806D01*
X260136Y67814D01*
X260255Y67818D01*
X260375Y67818D01*
X260494Y67814D01*
X260613Y67806D01*
X260732Y67794D01*
X260851Y67778D01*
X260968Y67758D01*
X261085Y67735D01*
X261202Y67707D01*
X261317Y67676D01*
X261431Y67641D01*
X261544Y67602D01*
X261656Y67560D01*
X261766Y67514D01*
X261874Y67464D01*
X261981Y67411D01*
X262086Y67354D01*
X262190Y67294D01*
X262291Y67230D01*
X262389Y67163D01*
X262486Y67093D01*
X262580Y67019D01*
X262672Y66943D01*
X262761Y66863D01*
X262848Y66781D01*
X262932Y66696D01*
X263013Y66608D01*
X263090Y66518D01*
X263165Y66425D01*
X263237Y66329D01*
X263306Y66231D01*
X263371Y66131D01*
X263433Y66029D01*
X263492Y65925D01*
X263547Y65819D01*
X263598Y65711D01*
X263646Y65602D01*
X263691Y65491D01*
X263731Y65379D01*
X263768Y65265D01*
X263801Y65150D01*
X263831Y65035D01*
X263856Y64918D01*
X263878Y64801D01*
X263895Y64682D01*
X263909Y64564D01*
X263919Y64445D01*
X263925Y64325D01*
X263927Y64206D01*
X263925Y64087D01*
X263919Y63967D01*
X263909Y63848D01*
X263895Y63730D01*
X263878Y63611D01*
X263856Y63494D01*
X263831Y63377D01*
X263801Y63262D01*
X263768Y63147D01*
X263731Y63033D01*
X263691Y62921D01*
X263646Y62810D01*
X263598Y62701D01*
X263547Y62593D01*
X263492Y62487D01*
X263433Y62383D01*
X263371Y62281D01*
X263306Y62181D01*
X263237Y62083D01*
X263165Y61987D01*
X263090Y61894D01*
X263013Y61804D01*
X262932Y61716D01*
X262848Y61631D01*
X262761Y61549D01*
X262672Y61469D01*
X262580Y61393D01*
X262486Y61319D01*
X262389Y61249D01*
X262291Y61182D01*
X262190Y61118D01*
X262086Y61058D01*
X261981Y61001D01*
X261874Y60948D01*
X261766Y60898D01*
X261656Y60852D01*
X261544Y60810D01*
X261431Y60771D01*
X261317Y60736D01*
X261202Y60705D01*
X261085Y60677D01*
X260968Y60654D01*
X260851Y60634D01*
X260732Y60618D01*
X260613Y60606D01*
X260494Y60598D01*
X260375Y60594D01*
X260255Y60594D01*
X260136Y60598D01*
X260017Y60606D01*
X259898Y60618D01*
X259779Y60634D01*
X259662Y60654D01*
X259545Y60677D01*
X259428Y60705D01*
X259313Y60736D01*
X259199Y60771D01*
X259086Y60810D01*
X258974Y60852D01*
X258864Y60898D01*
X258756Y60948D01*
X258649Y61001D01*
X258544Y61058D01*
X258440Y61118D01*
X258339Y61182D01*
X258241Y61249D01*
X258144Y61319D01*
X258050Y61393D01*
X257958Y61469D01*
X257869Y61549D01*
X257782Y61631D01*
X257698Y61716D01*
X257617Y61804D01*
X257540Y61894D01*
X257465Y61987D01*
X257393Y62083D01*
X257324Y62181D01*
X257259Y62281D01*
X257197Y62383D01*
X257138Y62487D01*
X257083Y62593D01*
X257032Y62701D01*
X256984Y62810D01*
X256939Y62921D01*
X256899Y63033D01*
X256862Y63147D01*
X256829Y63262D01*
X256799Y63377D01*
X256774Y63494D01*
X256752Y63611D01*
X256735Y63730D01*
X256721Y63848D01*
X256711Y63967D01*
X256705Y64087D01*
X256703Y64206D01*
X279767Y60593D02*
X285185Y60593D01*
X285303Y60591D01*
X285421Y60585D01*
X285539Y60576D01*
X285656Y60562D01*
X285773Y60545D01*
X285890Y60524D01*
X286005Y60499D01*
X286120Y60470D01*
X286234Y60437D01*
X286346Y60401D01*
X286457Y60361D01*
X286567Y60318D01*
X286676Y60271D01*
X286783Y60221D01*
X286888Y60166D01*
X286991Y60109D01*
X287092Y60048D01*
X287192Y59984D01*
X287289Y59917D01*
X287384Y59847D01*
X287476Y59773D01*
X287567Y59697D01*
X287654Y59617D01*
X287739Y59535D01*
X287821Y59450D01*
X287901Y59363D01*
X287977Y59272D01*
X288051Y59180D01*
X288121Y59085D01*
X288188Y58988D01*
X288252Y58888D01*
X288313Y58787D01*
X288370Y58684D01*
X288425Y58579D01*
X288475Y58472D01*
X288522Y58363D01*
X288565Y58253D01*
X288605Y58142D01*
X288641Y58030D01*
X288674Y57916D01*
X288703Y57801D01*
X288728Y57686D01*
X288749Y57569D01*
X288766Y57452D01*
X288780Y57335D01*
X288789Y57217D01*
X288795Y57099D01*
X288797Y56981D01*
X288798Y56981D02*
X288798Y56078D01*
X288796Y55945D01*
X288790Y55813D01*
X288780Y55681D01*
X288767Y55549D01*
X288749Y55417D01*
X288728Y55287D01*
X288703Y55156D01*
X288674Y55027D01*
X288641Y54899D01*
X288605Y54771D01*
X288565Y54645D01*
X288521Y54520D01*
X288473Y54396D01*
X288422Y54274D01*
X288367Y54153D01*
X288309Y54034D01*
X288247Y53916D01*
X288182Y53801D01*
X288113Y53687D01*
X288042Y53576D01*
X287966Y53467D01*
X287888Y53360D01*
X287807Y53255D01*
X287722Y53153D01*
X287635Y53053D01*
X287545Y52956D01*
X287452Y52861D01*
X287356Y52770D01*
X287258Y52681D01*
X287157Y52595D01*
X287053Y52512D01*
X286947Y52432D01*
X286839Y52356D01*
X286729Y52282D01*
X286616Y52212D01*
X286502Y52145D01*
X286385Y52082D01*
X286267Y52022D01*
X286147Y51965D01*
X286025Y51912D01*
X285902Y51863D01*
X285778Y51817D01*
X285652Y51775D01*
X285525Y51737D01*
X285397Y51702D01*
X285268Y51671D01*
X285139Y51644D01*
X285008Y51621D01*
X284877Y51601D01*
X284745Y51586D01*
X284613Y51574D01*
X284481Y51566D01*
X284348Y51562D01*
X284216Y51562D01*
X284083Y51566D01*
X283951Y51574D01*
X283819Y51586D01*
X283687Y51601D01*
X283556Y51621D01*
X283425Y51644D01*
X283296Y51671D01*
X283167Y51702D01*
X283039Y51737D01*
X282912Y51775D01*
X282786Y51817D01*
X282662Y51863D01*
X282539Y51912D01*
X282417Y51965D01*
X282297Y52022D01*
X282179Y52082D01*
X282062Y52145D01*
X281948Y52212D01*
X281835Y52282D01*
X281725Y52356D01*
X281617Y52432D01*
X281511Y52512D01*
X281407Y52595D01*
X281306Y52681D01*
X281208Y52770D01*
X281112Y52861D01*
X281019Y52956D01*
X280929Y53053D01*
X280842Y53153D01*
X280757Y53255D01*
X280676Y53360D01*
X280598Y53467D01*
X280522Y53576D01*
X280451Y53687D01*
X280382Y53801D01*
X280317Y53916D01*
X280255Y54034D01*
X280197Y54153D01*
X280142Y54274D01*
X280091Y54396D01*
X280043Y54520D01*
X279999Y54645D01*
X279959Y54771D01*
X279923Y54899D01*
X279890Y55027D01*
X279861Y55156D01*
X279836Y55287D01*
X279815Y55417D01*
X279797Y55549D01*
X279784Y55681D01*
X279774Y55813D01*
X279768Y55945D01*
X279766Y56078D01*
X279767Y56078D02*
X279767Y60593D01*
X279769Y60770D01*
X279776Y60948D01*
X279787Y61125D01*
X279802Y61301D01*
X279821Y61477D01*
X279845Y61653D01*
X279873Y61828D01*
X279906Y62003D01*
X279943Y62176D01*
X279984Y62349D01*
X280029Y62520D01*
X280078Y62690D01*
X280132Y62859D01*
X280189Y63027D01*
X280251Y63193D01*
X280317Y63358D01*
X280387Y63521D01*
X280461Y63682D01*
X280538Y63841D01*
X280620Y63999D01*
X280706Y64154D01*
X280795Y64307D01*
X280888Y64458D01*
X280985Y64607D01*
X281085Y64753D01*
X281189Y64897D01*
X281296Y65038D01*
X281407Y65176D01*
X281521Y65312D01*
X281639Y65445D01*
X281759Y65575D01*
X281883Y65702D01*
X282010Y65826D01*
X282140Y65946D01*
X282273Y66064D01*
X282408Y66178D01*
X282547Y66289D01*
X282688Y66396D01*
X282832Y66500D01*
X282978Y66600D01*
X283127Y66697D01*
X283278Y66790D01*
X283431Y66879D01*
X283586Y66965D01*
X283744Y67047D01*
X283903Y67124D01*
X284064Y67198D01*
X284227Y67268D01*
X284392Y67334D01*
X284558Y67396D01*
X284726Y67453D01*
X284895Y67507D01*
X285065Y67556D01*
X285236Y67601D01*
X285409Y67642D01*
X285582Y67679D01*
X285757Y67712D01*
X285932Y67740D01*
X286108Y67764D01*
X286284Y67783D01*
X286460Y67798D01*
X286637Y67809D01*
X286815Y67816D01*
X286992Y67818D01*
X299010Y58787D02*
X304429Y58787D01*
X299010Y58787D02*
X298892Y58789D01*
X298774Y58795D01*
X298656Y58804D01*
X298539Y58818D01*
X298422Y58835D01*
X298305Y58856D01*
X298190Y58881D01*
X298075Y58910D01*
X297961Y58943D01*
X297849Y58979D01*
X297738Y59019D01*
X297628Y59062D01*
X297519Y59109D01*
X297412Y59159D01*
X297307Y59214D01*
X297204Y59271D01*
X297103Y59332D01*
X297003Y59396D01*
X296906Y59463D01*
X296811Y59533D01*
X296719Y59607D01*
X296628Y59683D01*
X296541Y59763D01*
X296456Y59845D01*
X296374Y59930D01*
X296294Y60017D01*
X296218Y60108D01*
X296144Y60200D01*
X296074Y60295D01*
X296007Y60392D01*
X295943Y60492D01*
X295882Y60593D01*
X295825Y60696D01*
X295770Y60801D01*
X295720Y60908D01*
X295673Y61017D01*
X295630Y61127D01*
X295590Y61238D01*
X295554Y61350D01*
X295521Y61464D01*
X295492Y61579D01*
X295467Y61694D01*
X295446Y61811D01*
X295429Y61928D01*
X295415Y62045D01*
X295406Y62163D01*
X295400Y62281D01*
X295398Y62399D01*
X295398Y63302D01*
X295400Y63435D01*
X295406Y63567D01*
X295416Y63699D01*
X295429Y63831D01*
X295447Y63963D01*
X295468Y64093D01*
X295493Y64224D01*
X295522Y64353D01*
X295555Y64481D01*
X295591Y64609D01*
X295631Y64735D01*
X295675Y64860D01*
X295723Y64984D01*
X295774Y65106D01*
X295829Y65227D01*
X295887Y65346D01*
X295949Y65464D01*
X296014Y65579D01*
X296083Y65693D01*
X296154Y65804D01*
X296230Y65913D01*
X296308Y66020D01*
X296389Y66125D01*
X296474Y66227D01*
X296561Y66327D01*
X296651Y66424D01*
X296744Y66519D01*
X296840Y66610D01*
X296938Y66699D01*
X297039Y66785D01*
X297143Y66868D01*
X297249Y66948D01*
X297357Y67024D01*
X297467Y67098D01*
X297580Y67168D01*
X297694Y67235D01*
X297811Y67298D01*
X297929Y67358D01*
X298049Y67415D01*
X298171Y67468D01*
X298294Y67517D01*
X298418Y67563D01*
X298544Y67605D01*
X298671Y67643D01*
X298799Y67678D01*
X298928Y67709D01*
X299057Y67736D01*
X299188Y67759D01*
X299319Y67779D01*
X299451Y67794D01*
X299583Y67806D01*
X299715Y67814D01*
X299848Y67818D01*
X299980Y67818D01*
X300113Y67814D01*
X300245Y67806D01*
X300377Y67794D01*
X300509Y67779D01*
X300640Y67759D01*
X300771Y67736D01*
X300900Y67709D01*
X301029Y67678D01*
X301157Y67643D01*
X301284Y67605D01*
X301410Y67563D01*
X301534Y67517D01*
X301657Y67468D01*
X301779Y67415D01*
X301899Y67358D01*
X302017Y67298D01*
X302134Y67235D01*
X302248Y67168D01*
X302361Y67098D01*
X302471Y67024D01*
X302579Y66948D01*
X302685Y66868D01*
X302789Y66785D01*
X302890Y66699D01*
X302988Y66610D01*
X303084Y66519D01*
X303177Y66424D01*
X303267Y66327D01*
X303354Y66227D01*
X303439Y66125D01*
X303520Y66020D01*
X303598Y65913D01*
X303674Y65804D01*
X303745Y65693D01*
X303814Y65579D01*
X303879Y65464D01*
X303941Y65346D01*
X303999Y65227D01*
X304054Y65106D01*
X304105Y64984D01*
X304153Y64860D01*
X304197Y64735D01*
X304237Y64609D01*
X304273Y64481D01*
X304306Y64353D01*
X304335Y64224D01*
X304360Y64093D01*
X304381Y63963D01*
X304399Y63831D01*
X304412Y63699D01*
X304422Y63567D01*
X304428Y63435D01*
X304430Y63302D01*
X304429Y63302D02*
X304429Y58787D01*
X304427Y58612D01*
X304421Y58438D01*
X304410Y58264D01*
X304395Y58090D01*
X304376Y57916D01*
X304353Y57743D01*
X304326Y57571D01*
X304294Y57399D01*
X304259Y57228D01*
X304219Y57058D01*
X304175Y56889D01*
X304127Y56721D01*
X304075Y56554D01*
X304019Y56389D01*
X303959Y56225D01*
X303896Y56062D01*
X303828Y55902D01*
X303756Y55742D01*
X303681Y55585D01*
X303601Y55429D01*
X303518Y55276D01*
X303432Y55124D01*
X303341Y54975D01*
X303247Y54828D01*
X303150Y54683D01*
X303049Y54540D01*
X302945Y54400D01*
X302837Y54263D01*
X302726Y54128D01*
X302612Y53996D01*
X302495Y53867D01*
X302374Y53740D01*
X302251Y53617D01*
X302124Y53496D01*
X301995Y53379D01*
X301863Y53265D01*
X301728Y53154D01*
X301591Y53046D01*
X301451Y52942D01*
X301308Y52841D01*
X301163Y52744D01*
X301016Y52650D01*
X300867Y52559D01*
X300715Y52473D01*
X300562Y52390D01*
X300406Y52310D01*
X300249Y52235D01*
X300089Y52163D01*
X299929Y52095D01*
X299766Y52032D01*
X299602Y51972D01*
X299437Y51916D01*
X299270Y51864D01*
X299102Y51816D01*
X298933Y51772D01*
X298763Y51732D01*
X298592Y51697D01*
X298420Y51665D01*
X298248Y51638D01*
X298075Y51615D01*
X297901Y51596D01*
X297727Y51581D01*
X297553Y51570D01*
X297379Y51564D01*
X297204Y51562D01*
X311029Y66012D02*
X311029Y67818D01*
X320060Y67818D01*
X315545Y51562D01*
X326660Y51562D02*
X331176Y51562D01*
X331309Y51564D01*
X331441Y51570D01*
X331573Y51580D01*
X331705Y51593D01*
X331837Y51611D01*
X331967Y51632D01*
X332098Y51657D01*
X332227Y51686D01*
X332355Y51719D01*
X332483Y51755D01*
X332609Y51795D01*
X332734Y51839D01*
X332858Y51887D01*
X332980Y51938D01*
X333101Y51993D01*
X333220Y52051D01*
X333338Y52113D01*
X333453Y52178D01*
X333567Y52247D01*
X333678Y52318D01*
X333787Y52394D01*
X333894Y52472D01*
X333999Y52553D01*
X334101Y52638D01*
X334201Y52725D01*
X334298Y52815D01*
X334393Y52908D01*
X334484Y53004D01*
X334573Y53102D01*
X334659Y53203D01*
X334742Y53307D01*
X334822Y53413D01*
X334898Y53521D01*
X334972Y53631D01*
X335042Y53744D01*
X335109Y53858D01*
X335172Y53975D01*
X335232Y54093D01*
X335289Y54213D01*
X335342Y54335D01*
X335391Y54458D01*
X335437Y54582D01*
X335479Y54708D01*
X335517Y54835D01*
X335552Y54963D01*
X335583Y55092D01*
X335610Y55221D01*
X335633Y55352D01*
X335653Y55483D01*
X335668Y55615D01*
X335680Y55747D01*
X335688Y55879D01*
X335692Y56012D01*
X335692Y56144D01*
X335688Y56277D01*
X335680Y56409D01*
X335668Y56541D01*
X335653Y56673D01*
X335633Y56804D01*
X335610Y56935D01*
X335583Y57064D01*
X335552Y57193D01*
X335517Y57321D01*
X335479Y57448D01*
X335437Y57574D01*
X335391Y57698D01*
X335342Y57821D01*
X335289Y57943D01*
X335232Y58063D01*
X335172Y58181D01*
X335109Y58298D01*
X335042Y58412D01*
X334972Y58525D01*
X334898Y58635D01*
X334822Y58743D01*
X334742Y58849D01*
X334659Y58953D01*
X334573Y59054D01*
X334484Y59152D01*
X334393Y59248D01*
X334298Y59341D01*
X334201Y59431D01*
X334101Y59518D01*
X333999Y59603D01*
X333894Y59684D01*
X333787Y59762D01*
X333678Y59838D01*
X333567Y59909D01*
X333453Y59978D01*
X333338Y60043D01*
X333220Y60105D01*
X333101Y60163D01*
X332980Y60218D01*
X332858Y60269D01*
X332734Y60317D01*
X332609Y60361D01*
X332483Y60401D01*
X332355Y60437D01*
X332227Y60470D01*
X332098Y60499D01*
X331967Y60524D01*
X331837Y60545D01*
X331705Y60563D01*
X331573Y60576D01*
X331441Y60586D01*
X331309Y60592D01*
X331176Y60594D01*
X332079Y67818D02*
X326660Y67818D01*
X332079Y67818D02*
X332198Y67816D01*
X332318Y67810D01*
X332437Y67800D01*
X332555Y67786D01*
X332674Y67769D01*
X332791Y67747D01*
X332908Y67722D01*
X333023Y67692D01*
X333138Y67659D01*
X333252Y67622D01*
X333364Y67582D01*
X333475Y67537D01*
X333584Y67489D01*
X333692Y67438D01*
X333798Y67383D01*
X333902Y67324D01*
X334004Y67262D01*
X334104Y67197D01*
X334202Y67128D01*
X334298Y67056D01*
X334391Y66981D01*
X334481Y66904D01*
X334569Y66823D01*
X334654Y66739D01*
X334736Y66652D01*
X334816Y66563D01*
X334892Y66471D01*
X334966Y66377D01*
X335036Y66280D01*
X335103Y66182D01*
X335167Y66081D01*
X335227Y65977D01*
X335284Y65872D01*
X335337Y65765D01*
X335387Y65657D01*
X335433Y65547D01*
X335475Y65435D01*
X335514Y65322D01*
X335549Y65208D01*
X335580Y65093D01*
X335608Y64976D01*
X335631Y64859D01*
X335651Y64742D01*
X335667Y64623D01*
X335679Y64504D01*
X335687Y64385D01*
X335691Y64266D01*
X335691Y64146D01*
X335687Y64027D01*
X335679Y63908D01*
X335667Y63789D01*
X335651Y63670D01*
X335631Y63553D01*
X335608Y63436D01*
X335580Y63319D01*
X335549Y63204D01*
X335514Y63090D01*
X335475Y62977D01*
X335433Y62865D01*
X335387Y62755D01*
X335337Y62647D01*
X335284Y62540D01*
X335227Y62435D01*
X335167Y62331D01*
X335103Y62230D01*
X335036Y62132D01*
X334966Y62035D01*
X334892Y61941D01*
X334816Y61849D01*
X334736Y61760D01*
X334654Y61673D01*
X334569Y61589D01*
X334481Y61508D01*
X334391Y61431D01*
X334298Y61356D01*
X334202Y61284D01*
X334104Y61215D01*
X334004Y61150D01*
X333902Y61088D01*
X333798Y61029D01*
X333692Y60974D01*
X333584Y60923D01*
X333475Y60875D01*
X333364Y60830D01*
X333252Y60790D01*
X333138Y60753D01*
X333023Y60720D01*
X332908Y60690D01*
X332791Y60665D01*
X332674Y60643D01*
X332555Y60626D01*
X332437Y60612D01*
X332318Y60602D01*
X332198Y60596D01*
X332079Y60594D01*
X332079Y60593D02*
X328467Y60593D01*
D11*
X26797Y268097D02*
X26797Y300863D01*
X45000Y268097D01*
X45000Y300863D01*
X59859Y268097D02*
X68961Y268097D01*
X59859Y268097D02*
X59714Y268099D01*
X59568Y268105D01*
X59423Y268114D01*
X59279Y268128D01*
X59134Y268145D01*
X58990Y268167D01*
X58847Y268192D01*
X58705Y268220D01*
X58563Y268253D01*
X58422Y268289D01*
X58282Y268330D01*
X58144Y268373D01*
X58006Y268421D01*
X57870Y268472D01*
X57736Y268527D01*
X57602Y268585D01*
X57471Y268647D01*
X57341Y268712D01*
X57213Y268781D01*
X57087Y268853D01*
X56962Y268929D01*
X56840Y269007D01*
X56720Y269089D01*
X56602Y269174D01*
X56487Y269263D01*
X56374Y269354D01*
X56263Y269448D01*
X56155Y269545D01*
X56049Y269645D01*
X55946Y269748D01*
X55846Y269854D01*
X55749Y269962D01*
X55655Y270073D01*
X55564Y270186D01*
X55475Y270301D01*
X55390Y270419D01*
X55308Y270539D01*
X55230Y270661D01*
X55154Y270786D01*
X55082Y270912D01*
X55013Y271040D01*
X54948Y271170D01*
X54886Y271301D01*
X54828Y271435D01*
X54773Y271569D01*
X54722Y271705D01*
X54674Y271843D01*
X54631Y271981D01*
X54590Y272121D01*
X54554Y272262D01*
X54521Y272404D01*
X54493Y272546D01*
X54468Y272689D01*
X54446Y272833D01*
X54429Y272978D01*
X54415Y273122D01*
X54406Y273267D01*
X54400Y273413D01*
X54398Y273558D01*
X54398Y282660D01*
X54399Y282660D02*
X54401Y282837D01*
X54408Y283014D01*
X54418Y283191D01*
X54434Y283368D01*
X54453Y283544D01*
X54477Y283720D01*
X54505Y283895D01*
X54537Y284070D01*
X54573Y284243D01*
X54614Y284416D01*
X54659Y284587D01*
X54708Y284758D01*
X54761Y284927D01*
X54818Y285095D01*
X54879Y285261D01*
X54945Y285426D01*
X55014Y285589D01*
X55087Y285750D01*
X55165Y285910D01*
X55246Y286068D01*
X55331Y286223D01*
X55419Y286377D01*
X55512Y286528D01*
X55608Y286677D01*
X55707Y286824D01*
X55810Y286968D01*
X55917Y287110D01*
X56027Y287249D01*
X56141Y287385D01*
X56257Y287519D01*
X56377Y287649D01*
X56500Y287777D01*
X56626Y287902D01*
X56756Y288023D01*
X56888Y288141D01*
X57023Y288257D01*
X57160Y288368D01*
X57301Y288477D01*
X57443Y288582D01*
X57589Y288683D01*
X57737Y288781D01*
X57887Y288875D01*
X58040Y288966D01*
X58194Y289052D01*
X58351Y289135D01*
X58509Y289214D01*
X58670Y289290D01*
X58832Y289361D01*
X58996Y289428D01*
X59162Y289492D01*
X59329Y289551D01*
X59498Y289606D01*
X59667Y289657D01*
X59838Y289704D01*
X60010Y289747D01*
X60184Y289786D01*
X60358Y289820D01*
X60532Y289850D01*
X60708Y289876D01*
X60884Y289897D01*
X61060Y289915D01*
X61237Y289928D01*
X61414Y289936D01*
X61591Y289940D01*
X61769Y289940D01*
X61946Y289936D01*
X62123Y289928D01*
X62300Y289915D01*
X62476Y289897D01*
X62652Y289876D01*
X62828Y289850D01*
X63002Y289820D01*
X63176Y289786D01*
X63350Y289747D01*
X63522Y289704D01*
X63693Y289657D01*
X63862Y289606D01*
X64031Y289551D01*
X64198Y289492D01*
X64364Y289428D01*
X64528Y289361D01*
X64690Y289290D01*
X64851Y289214D01*
X65009Y289135D01*
X65166Y289052D01*
X65321Y288966D01*
X65473Y288875D01*
X65623Y288781D01*
X65771Y288683D01*
X65917Y288582D01*
X66059Y288477D01*
X66200Y288368D01*
X66337Y288257D01*
X66472Y288141D01*
X66604Y288023D01*
X66734Y287902D01*
X66860Y287777D01*
X66983Y287649D01*
X67103Y287519D01*
X67219Y287385D01*
X67333Y287249D01*
X67443Y287110D01*
X67550Y286968D01*
X67653Y286824D01*
X67752Y286677D01*
X67848Y286528D01*
X67941Y286377D01*
X68029Y286223D01*
X68114Y286068D01*
X68195Y285910D01*
X68273Y285750D01*
X68346Y285589D01*
X68415Y285426D01*
X68481Y285261D01*
X68542Y285095D01*
X68599Y284927D01*
X68652Y284758D01*
X68701Y284587D01*
X68746Y284416D01*
X68787Y284243D01*
X68823Y284070D01*
X68855Y283895D01*
X68883Y283720D01*
X68907Y283544D01*
X68926Y283368D01*
X68942Y283191D01*
X68952Y283014D01*
X68959Y282837D01*
X68961Y282660D01*
X68961Y279019D01*
X54398Y279019D01*
X82973Y268097D02*
X92075Y268097D01*
X82973Y268097D02*
X82828Y268099D01*
X82682Y268105D01*
X82537Y268114D01*
X82393Y268128D01*
X82248Y268145D01*
X82104Y268167D01*
X81961Y268192D01*
X81819Y268220D01*
X81677Y268253D01*
X81536Y268289D01*
X81396Y268330D01*
X81258Y268373D01*
X81120Y268421D01*
X80984Y268472D01*
X80850Y268527D01*
X80716Y268585D01*
X80585Y268647D01*
X80455Y268712D01*
X80327Y268781D01*
X80201Y268853D01*
X80076Y268929D01*
X79954Y269007D01*
X79834Y269089D01*
X79716Y269174D01*
X79601Y269263D01*
X79488Y269354D01*
X79377Y269448D01*
X79269Y269545D01*
X79163Y269645D01*
X79060Y269748D01*
X78960Y269854D01*
X78863Y269962D01*
X78769Y270073D01*
X78678Y270186D01*
X78589Y270301D01*
X78504Y270419D01*
X78422Y270539D01*
X78344Y270661D01*
X78268Y270786D01*
X78196Y270912D01*
X78127Y271040D01*
X78062Y271170D01*
X78000Y271301D01*
X77942Y271435D01*
X77887Y271569D01*
X77836Y271705D01*
X77788Y271843D01*
X77745Y271981D01*
X77704Y272121D01*
X77668Y272262D01*
X77635Y272404D01*
X77607Y272546D01*
X77582Y272689D01*
X77560Y272833D01*
X77543Y272978D01*
X77529Y273122D01*
X77520Y273267D01*
X77514Y273413D01*
X77512Y273558D01*
X77512Y282660D01*
X77513Y282660D02*
X77515Y282837D01*
X77522Y283014D01*
X77532Y283191D01*
X77548Y283368D01*
X77567Y283544D01*
X77591Y283720D01*
X77619Y283895D01*
X77651Y284070D01*
X77687Y284243D01*
X77728Y284416D01*
X77773Y284587D01*
X77822Y284758D01*
X77875Y284927D01*
X77932Y285095D01*
X77993Y285261D01*
X78059Y285426D01*
X78128Y285589D01*
X78201Y285750D01*
X78279Y285910D01*
X78360Y286068D01*
X78445Y286223D01*
X78533Y286377D01*
X78626Y286528D01*
X78722Y286677D01*
X78821Y286824D01*
X78924Y286968D01*
X79031Y287110D01*
X79141Y287249D01*
X79255Y287385D01*
X79371Y287519D01*
X79491Y287649D01*
X79614Y287777D01*
X79740Y287902D01*
X79870Y288023D01*
X80002Y288141D01*
X80137Y288257D01*
X80274Y288368D01*
X80415Y288477D01*
X80557Y288582D01*
X80703Y288683D01*
X80851Y288781D01*
X81001Y288875D01*
X81154Y288966D01*
X81308Y289052D01*
X81465Y289135D01*
X81623Y289214D01*
X81784Y289290D01*
X81946Y289361D01*
X82110Y289428D01*
X82276Y289492D01*
X82443Y289551D01*
X82612Y289606D01*
X82781Y289657D01*
X82952Y289704D01*
X83124Y289747D01*
X83298Y289786D01*
X83472Y289820D01*
X83646Y289850D01*
X83822Y289876D01*
X83998Y289897D01*
X84174Y289915D01*
X84351Y289928D01*
X84528Y289936D01*
X84705Y289940D01*
X84883Y289940D01*
X85060Y289936D01*
X85237Y289928D01*
X85414Y289915D01*
X85590Y289897D01*
X85766Y289876D01*
X85942Y289850D01*
X86116Y289820D01*
X86290Y289786D01*
X86464Y289747D01*
X86636Y289704D01*
X86807Y289657D01*
X86976Y289606D01*
X87145Y289551D01*
X87312Y289492D01*
X87478Y289428D01*
X87642Y289361D01*
X87804Y289290D01*
X87965Y289214D01*
X88123Y289135D01*
X88280Y289052D01*
X88435Y288966D01*
X88587Y288875D01*
X88737Y288781D01*
X88885Y288683D01*
X89031Y288582D01*
X89173Y288477D01*
X89314Y288368D01*
X89451Y288257D01*
X89586Y288141D01*
X89718Y288023D01*
X89848Y287902D01*
X89974Y287777D01*
X90097Y287649D01*
X90217Y287519D01*
X90333Y287385D01*
X90447Y287249D01*
X90557Y287110D01*
X90664Y286968D01*
X90767Y286824D01*
X90866Y286677D01*
X90962Y286528D01*
X91055Y286377D01*
X91143Y286223D01*
X91228Y286068D01*
X91309Y285910D01*
X91387Y285750D01*
X91460Y285589D01*
X91529Y285426D01*
X91595Y285261D01*
X91656Y285095D01*
X91713Y284927D01*
X91766Y284758D01*
X91815Y284587D01*
X91860Y284416D01*
X91901Y284243D01*
X91937Y284070D01*
X91969Y283895D01*
X91997Y283720D01*
X92021Y283544D01*
X92040Y283368D01*
X92056Y283191D01*
X92066Y283014D01*
X92073Y282837D01*
X92075Y282660D01*
X92075Y279019D01*
X77512Y279019D01*
X101600Y273558D02*
X101600Y300863D01*
X101600Y273558D02*
X101602Y273413D01*
X101608Y273267D01*
X101617Y273122D01*
X101631Y272978D01*
X101648Y272833D01*
X101670Y272689D01*
X101695Y272546D01*
X101723Y272404D01*
X101756Y272262D01*
X101792Y272121D01*
X101833Y271981D01*
X101876Y271843D01*
X101924Y271705D01*
X101975Y271569D01*
X102030Y271435D01*
X102088Y271301D01*
X102150Y271170D01*
X102215Y271040D01*
X102284Y270912D01*
X102356Y270786D01*
X102432Y270661D01*
X102510Y270539D01*
X102592Y270419D01*
X102677Y270301D01*
X102766Y270186D01*
X102857Y270073D01*
X102951Y269962D01*
X103048Y269854D01*
X103148Y269748D01*
X103251Y269645D01*
X103357Y269545D01*
X103465Y269448D01*
X103576Y269354D01*
X103689Y269263D01*
X103804Y269174D01*
X103922Y269089D01*
X104042Y269007D01*
X104164Y268929D01*
X104289Y268853D01*
X104415Y268781D01*
X104543Y268712D01*
X104673Y268647D01*
X104804Y268585D01*
X104938Y268527D01*
X105072Y268472D01*
X105208Y268421D01*
X105346Y268373D01*
X105484Y268330D01*
X105624Y268289D01*
X105765Y268253D01*
X105907Y268220D01*
X106049Y268192D01*
X106192Y268167D01*
X106336Y268145D01*
X106481Y268128D01*
X106625Y268114D01*
X106770Y268105D01*
X106916Y268099D01*
X107061Y268097D01*
X129850Y268097D02*
X129850Y300863D01*
X138952Y300863D01*
X139174Y300860D01*
X139395Y300852D01*
X139616Y300839D01*
X139837Y300820D01*
X140058Y300796D01*
X140277Y300766D01*
X140496Y300731D01*
X140714Y300691D01*
X140931Y300645D01*
X141147Y300594D01*
X141361Y300538D01*
X141574Y300477D01*
X141786Y300411D01*
X141996Y300339D01*
X142204Y300262D01*
X142410Y300181D01*
X142614Y300094D01*
X142815Y300002D01*
X143015Y299906D01*
X143212Y299805D01*
X143407Y299698D01*
X143599Y299588D01*
X143788Y299472D01*
X143974Y299352D01*
X144158Y299228D01*
X144338Y299099D01*
X144515Y298965D01*
X144689Y298828D01*
X144859Y298686D01*
X145026Y298540D01*
X145189Y298390D01*
X145349Y298236D01*
X145505Y298078D01*
X145656Y297917D01*
X145804Y297752D01*
X145948Y297583D01*
X146088Y297411D01*
X146223Y297236D01*
X146355Y297057D01*
X146481Y296875D01*
X146604Y296690D01*
X146721Y296503D01*
X146835Y296312D01*
X146943Y296119D01*
X147047Y295923D01*
X147146Y295724D01*
X147240Y295524D01*
X147329Y295321D01*
X147413Y295116D01*
X147492Y294909D01*
X147566Y294700D01*
X147636Y294489D01*
X147699Y294277D01*
X147758Y294063D01*
X147811Y293848D01*
X147860Y293632D01*
X147903Y293414D01*
X147940Y293196D01*
X147972Y292977D01*
X147999Y292756D01*
X148021Y292536D01*
X148037Y292315D01*
X148048Y292093D01*
X148053Y291872D01*
X148053Y291650D01*
X148048Y291429D01*
X148037Y291207D01*
X148021Y290986D01*
X147999Y290766D01*
X147972Y290545D01*
X147940Y290326D01*
X147903Y290108D01*
X147860Y289890D01*
X147811Y289674D01*
X147758Y289459D01*
X147699Y289245D01*
X147636Y289033D01*
X147566Y288822D01*
X147492Y288613D01*
X147413Y288406D01*
X147329Y288201D01*
X147240Y287998D01*
X147146Y287798D01*
X147047Y287599D01*
X146943Y287403D01*
X146835Y287210D01*
X146721Y287019D01*
X146604Y286832D01*
X146481Y286647D01*
X146355Y286465D01*
X146223Y286286D01*
X146088Y286111D01*
X145948Y285939D01*
X145804Y285770D01*
X145656Y285605D01*
X145505Y285444D01*
X145349Y285286D01*
X145189Y285132D01*
X145026Y284982D01*
X144859Y284836D01*
X144689Y284694D01*
X144515Y284557D01*
X144338Y284423D01*
X144158Y284294D01*
X143974Y284170D01*
X143788Y284050D01*
X143599Y283934D01*
X143407Y283824D01*
X143212Y283717D01*
X143015Y283616D01*
X142815Y283520D01*
X142614Y283428D01*
X142410Y283341D01*
X142204Y283260D01*
X141996Y283183D01*
X141786Y283111D01*
X141574Y283045D01*
X141361Y282984D01*
X141147Y282928D01*
X140931Y282877D01*
X140714Y282831D01*
X140496Y282791D01*
X140277Y282756D01*
X140058Y282726D01*
X139837Y282702D01*
X139616Y282683D01*
X139395Y282670D01*
X139174Y282662D01*
X138952Y282659D01*
X138952Y282660D02*
X129850Y282660D01*
X162140Y280839D02*
X170331Y280839D01*
X162140Y280839D02*
X161981Y280837D01*
X161822Y280831D01*
X161664Y280821D01*
X161506Y280807D01*
X161348Y280790D01*
X161190Y280768D01*
X161034Y280742D01*
X160878Y280713D01*
X160722Y280679D01*
X160568Y280642D01*
X160414Y280601D01*
X160262Y280556D01*
X160111Y280507D01*
X159961Y280455D01*
X159812Y280399D01*
X159665Y280339D01*
X159520Y280275D01*
X159376Y280208D01*
X159233Y280137D01*
X159093Y280063D01*
X158955Y279985D01*
X158818Y279904D01*
X158683Y279820D01*
X158551Y279732D01*
X158421Y279641D01*
X158293Y279547D01*
X158168Y279449D01*
X158045Y279348D01*
X157924Y279245D01*
X157807Y279138D01*
X157692Y279029D01*
X157579Y278916D01*
X157470Y278801D01*
X157363Y278684D01*
X157260Y278563D01*
X157159Y278440D01*
X157061Y278315D01*
X156967Y278187D01*
X156876Y278057D01*
X156788Y277925D01*
X156704Y277790D01*
X156623Y277654D01*
X156545Y277515D01*
X156471Y277375D01*
X156400Y277232D01*
X156333Y277088D01*
X156269Y276943D01*
X156209Y276796D01*
X156153Y276647D01*
X156101Y276497D01*
X156052Y276346D01*
X156007Y276194D01*
X155966Y276040D01*
X155929Y275886D01*
X155895Y275730D01*
X155866Y275574D01*
X155840Y275418D01*
X155818Y275260D01*
X155801Y275102D01*
X155787Y274944D01*
X155777Y274786D01*
X155771Y274627D01*
X155769Y274468D01*
X155771Y274309D01*
X155777Y274150D01*
X155787Y273992D01*
X155801Y273834D01*
X155818Y273676D01*
X155840Y273518D01*
X155866Y273362D01*
X155895Y273206D01*
X155929Y273050D01*
X155966Y272896D01*
X156007Y272742D01*
X156052Y272590D01*
X156101Y272439D01*
X156153Y272289D01*
X156209Y272140D01*
X156269Y271993D01*
X156333Y271848D01*
X156400Y271704D01*
X156471Y271561D01*
X156545Y271421D01*
X156623Y271282D01*
X156704Y271146D01*
X156788Y271011D01*
X156876Y270879D01*
X156967Y270749D01*
X157061Y270621D01*
X157159Y270496D01*
X157260Y270373D01*
X157363Y270252D01*
X157470Y270135D01*
X157579Y270020D01*
X157692Y269907D01*
X157807Y269798D01*
X157924Y269691D01*
X158045Y269588D01*
X158168Y269487D01*
X158293Y269389D01*
X158421Y269295D01*
X158551Y269204D01*
X158683Y269116D01*
X158818Y269032D01*
X158955Y268951D01*
X159093Y268873D01*
X159233Y268799D01*
X159376Y268728D01*
X159520Y268661D01*
X159665Y268597D01*
X159812Y268537D01*
X159961Y268481D01*
X160111Y268429D01*
X160262Y268380D01*
X160414Y268335D01*
X160568Y268294D01*
X160722Y268257D01*
X160878Y268223D01*
X161034Y268194D01*
X161190Y268168D01*
X161348Y268146D01*
X161506Y268129D01*
X161664Y268115D01*
X161822Y268105D01*
X161981Y268099D01*
X162140Y268097D01*
X170331Y268097D01*
X170331Y284480D01*
X170329Y284625D01*
X170323Y284771D01*
X170314Y284916D01*
X170300Y285060D01*
X170283Y285205D01*
X170261Y285349D01*
X170236Y285492D01*
X170208Y285634D01*
X170175Y285776D01*
X170139Y285917D01*
X170098Y286057D01*
X170055Y286195D01*
X170007Y286333D01*
X169956Y286469D01*
X169901Y286603D01*
X169843Y286737D01*
X169781Y286868D01*
X169716Y286998D01*
X169647Y287126D01*
X169575Y287252D01*
X169499Y287377D01*
X169421Y287499D01*
X169339Y287619D01*
X169254Y287737D01*
X169165Y287852D01*
X169074Y287965D01*
X168980Y288076D01*
X168883Y288184D01*
X168783Y288290D01*
X168680Y288393D01*
X168574Y288493D01*
X168466Y288590D01*
X168355Y288684D01*
X168242Y288775D01*
X168127Y288864D01*
X168009Y288949D01*
X167889Y289031D01*
X167767Y289109D01*
X167642Y289185D01*
X167516Y289257D01*
X167388Y289326D01*
X167258Y289391D01*
X167127Y289453D01*
X166993Y289511D01*
X166859Y289566D01*
X166723Y289617D01*
X166585Y289665D01*
X166447Y289708D01*
X166307Y289749D01*
X166166Y289785D01*
X166024Y289818D01*
X165882Y289846D01*
X165739Y289871D01*
X165595Y289893D01*
X165450Y289910D01*
X165306Y289924D01*
X165161Y289933D01*
X165015Y289939D01*
X164870Y289941D01*
X157589Y289941D01*
X178054Y289941D02*
X188976Y289941D01*
X181695Y300863D02*
X181695Y273558D01*
X181697Y273413D01*
X181703Y273267D01*
X181712Y273122D01*
X181726Y272978D01*
X181743Y272833D01*
X181765Y272689D01*
X181790Y272546D01*
X181818Y272404D01*
X181851Y272262D01*
X181887Y272121D01*
X181928Y271981D01*
X181971Y271843D01*
X182019Y271705D01*
X182070Y271569D01*
X182125Y271435D01*
X182183Y271301D01*
X182245Y271170D01*
X182310Y271040D01*
X182379Y270912D01*
X182451Y270786D01*
X182527Y270661D01*
X182605Y270539D01*
X182687Y270419D01*
X182772Y270301D01*
X182861Y270186D01*
X182952Y270073D01*
X183046Y269962D01*
X183143Y269854D01*
X183243Y269748D01*
X183346Y269645D01*
X183452Y269545D01*
X183560Y269448D01*
X183671Y269354D01*
X183784Y269263D01*
X183899Y269174D01*
X184017Y269089D01*
X184137Y269007D01*
X184259Y268929D01*
X184384Y268853D01*
X184510Y268781D01*
X184638Y268712D01*
X184768Y268647D01*
X184899Y268585D01*
X185033Y268527D01*
X185167Y268472D01*
X185303Y268421D01*
X185441Y268373D01*
X185579Y268330D01*
X185719Y268289D01*
X185860Y268253D01*
X186002Y268220D01*
X186144Y268192D01*
X186287Y268167D01*
X186431Y268145D01*
X186576Y268128D01*
X186720Y268114D01*
X186865Y268105D01*
X187011Y268099D01*
X187156Y268097D01*
X188976Y268097D01*
X202099Y268097D02*
X211201Y268097D01*
X202099Y268097D02*
X201954Y268099D01*
X201808Y268105D01*
X201663Y268114D01*
X201519Y268128D01*
X201374Y268145D01*
X201230Y268167D01*
X201087Y268192D01*
X200945Y268220D01*
X200803Y268253D01*
X200662Y268289D01*
X200522Y268330D01*
X200384Y268373D01*
X200246Y268421D01*
X200110Y268472D01*
X199976Y268527D01*
X199842Y268585D01*
X199711Y268647D01*
X199581Y268712D01*
X199453Y268781D01*
X199327Y268853D01*
X199202Y268929D01*
X199080Y269007D01*
X198960Y269089D01*
X198842Y269174D01*
X198727Y269263D01*
X198614Y269354D01*
X198503Y269448D01*
X198395Y269545D01*
X198289Y269645D01*
X198186Y269748D01*
X198086Y269854D01*
X197989Y269962D01*
X197895Y270073D01*
X197804Y270186D01*
X197715Y270301D01*
X197630Y270419D01*
X197548Y270539D01*
X197470Y270661D01*
X197394Y270786D01*
X197322Y270912D01*
X197253Y271040D01*
X197188Y271170D01*
X197126Y271301D01*
X197068Y271435D01*
X197013Y271569D01*
X196962Y271705D01*
X196914Y271843D01*
X196871Y271981D01*
X196830Y272121D01*
X196794Y272262D01*
X196761Y272404D01*
X196733Y272546D01*
X196708Y272689D01*
X196686Y272833D01*
X196669Y272978D01*
X196655Y273122D01*
X196646Y273267D01*
X196640Y273413D01*
X196638Y273558D01*
X196638Y282660D01*
X196640Y282837D01*
X196647Y283014D01*
X196657Y283191D01*
X196673Y283368D01*
X196692Y283544D01*
X196716Y283720D01*
X196744Y283895D01*
X196776Y284070D01*
X196812Y284243D01*
X196853Y284416D01*
X196898Y284587D01*
X196947Y284758D01*
X197000Y284927D01*
X197057Y285095D01*
X197118Y285261D01*
X197184Y285426D01*
X197253Y285589D01*
X197326Y285750D01*
X197404Y285910D01*
X197485Y286068D01*
X197570Y286223D01*
X197658Y286377D01*
X197751Y286528D01*
X197847Y286677D01*
X197946Y286824D01*
X198049Y286968D01*
X198156Y287110D01*
X198266Y287249D01*
X198380Y287385D01*
X198496Y287519D01*
X198616Y287649D01*
X198739Y287777D01*
X198865Y287902D01*
X198995Y288023D01*
X199127Y288141D01*
X199262Y288257D01*
X199399Y288368D01*
X199540Y288477D01*
X199682Y288582D01*
X199828Y288683D01*
X199976Y288781D01*
X200126Y288875D01*
X200279Y288966D01*
X200433Y289052D01*
X200590Y289135D01*
X200748Y289214D01*
X200909Y289290D01*
X201071Y289361D01*
X201235Y289428D01*
X201401Y289492D01*
X201568Y289551D01*
X201737Y289606D01*
X201906Y289657D01*
X202077Y289704D01*
X202249Y289747D01*
X202423Y289786D01*
X202597Y289820D01*
X202771Y289850D01*
X202947Y289876D01*
X203123Y289897D01*
X203299Y289915D01*
X203476Y289928D01*
X203653Y289936D01*
X203830Y289940D01*
X204008Y289940D01*
X204185Y289936D01*
X204362Y289928D01*
X204539Y289915D01*
X204715Y289897D01*
X204891Y289876D01*
X205067Y289850D01*
X205241Y289820D01*
X205415Y289786D01*
X205589Y289747D01*
X205761Y289704D01*
X205932Y289657D01*
X206101Y289606D01*
X206270Y289551D01*
X206437Y289492D01*
X206603Y289428D01*
X206767Y289361D01*
X206929Y289290D01*
X207090Y289214D01*
X207248Y289135D01*
X207405Y289052D01*
X207560Y288966D01*
X207712Y288875D01*
X207862Y288781D01*
X208010Y288683D01*
X208156Y288582D01*
X208298Y288477D01*
X208439Y288368D01*
X208576Y288257D01*
X208711Y288141D01*
X208843Y288023D01*
X208973Y287902D01*
X209099Y287777D01*
X209222Y287649D01*
X209342Y287519D01*
X209458Y287385D01*
X209572Y287249D01*
X209682Y287110D01*
X209789Y286968D01*
X209892Y286824D01*
X209991Y286677D01*
X210087Y286528D01*
X210180Y286377D01*
X210268Y286223D01*
X210353Y286068D01*
X210434Y285910D01*
X210512Y285750D01*
X210585Y285589D01*
X210654Y285426D01*
X210720Y285261D01*
X210781Y285095D01*
X210838Y284927D01*
X210891Y284758D01*
X210940Y284587D01*
X210985Y284416D01*
X211026Y284243D01*
X211062Y284070D01*
X211094Y283895D01*
X211122Y283720D01*
X211146Y283544D01*
X211165Y283368D01*
X211181Y283191D01*
X211191Y283014D01*
X211198Y282837D01*
X211200Y282660D01*
X211201Y282660D02*
X211201Y279019D01*
X196638Y279019D01*
X220726Y273558D02*
X220726Y300863D01*
X220726Y273558D02*
X220728Y273413D01*
X220734Y273267D01*
X220743Y273122D01*
X220757Y272978D01*
X220774Y272833D01*
X220796Y272689D01*
X220821Y272546D01*
X220849Y272404D01*
X220882Y272262D01*
X220918Y272121D01*
X220959Y271981D01*
X221002Y271843D01*
X221050Y271705D01*
X221101Y271569D01*
X221156Y271435D01*
X221214Y271301D01*
X221276Y271170D01*
X221341Y271040D01*
X221410Y270912D01*
X221482Y270786D01*
X221558Y270661D01*
X221636Y270539D01*
X221718Y270419D01*
X221803Y270301D01*
X221892Y270186D01*
X221983Y270073D01*
X222077Y269962D01*
X222174Y269854D01*
X222274Y269748D01*
X222377Y269645D01*
X222483Y269545D01*
X222591Y269448D01*
X222702Y269354D01*
X222815Y269263D01*
X222930Y269174D01*
X223048Y269089D01*
X223168Y269007D01*
X223290Y268929D01*
X223415Y268853D01*
X223541Y268781D01*
X223669Y268712D01*
X223799Y268647D01*
X223930Y268585D01*
X224064Y268527D01*
X224198Y268472D01*
X224334Y268421D01*
X224472Y268373D01*
X224610Y268330D01*
X224750Y268289D01*
X224891Y268253D01*
X225033Y268220D01*
X225175Y268192D01*
X225318Y268167D01*
X225462Y268145D01*
X225607Y268128D01*
X225751Y268114D01*
X225896Y268105D01*
X226042Y268099D01*
X226187Y268097D01*
D12*
X546100Y469900D03*
X571500Y469900D03*
X596900Y469900D03*
X622300Y469900D03*
X647700Y469900D03*
X673100Y469900D03*
X698500Y469900D03*
X723900Y469900D03*
X749300Y469900D03*
X774700Y469900D03*
X800100Y469900D03*
X825500Y469900D03*
X850900Y469900D03*
X546100Y444500D03*
X571500Y444500D03*
X596900Y444500D03*
X622300Y444500D03*
X647700Y444500D03*
X673100Y444500D03*
X698500Y444500D03*
X723900Y444500D03*
X749300Y444500D03*
X774700Y444500D03*
X800100Y444500D03*
X825500Y444500D03*
X850900Y444500D03*
X546100Y419100D03*
X571500Y419100D03*
X596900Y419100D03*
X622300Y419100D03*
X647700Y419100D03*
X673100Y419100D03*
X698500Y419100D03*
X723900Y419100D03*
X749300Y419100D03*
X774700Y419100D03*
X800100Y419100D03*
X825500Y419100D03*
X850900Y419100D03*
X546100Y393700D03*
X571500Y393700D03*
X596900Y393700D03*
X622300Y393700D03*
X647700Y393700D03*
X673100Y393700D03*
X698500Y393700D03*
X723900Y393700D03*
X749300Y393700D03*
X774700Y393700D03*
X800100Y393700D03*
X825500Y393700D03*
X850900Y393700D03*
X546100Y368300D03*
X571500Y368300D03*
X596900Y368300D03*
X622300Y368300D03*
X647700Y368300D03*
X673100Y368300D03*
X698500Y368300D03*
X723900Y368300D03*
X749300Y368300D03*
X774700Y368300D03*
X800100Y368300D03*
X825500Y368300D03*
X850900Y368300D03*
X546100Y342900D03*
X571500Y342900D03*
X596900Y342900D03*
X622300Y342900D03*
X647700Y342900D03*
X673100Y342900D03*
X698500Y342900D03*
X723900Y342900D03*
X749300Y342900D03*
X774700Y342900D03*
X800100Y342900D03*
X825500Y342900D03*
X850900Y342900D03*
X546100Y317500D03*
X571500Y317500D03*
X596900Y317500D03*
X622300Y317500D03*
X647700Y317500D03*
X673100Y317500D03*
X698500Y317500D03*
X723900Y317500D03*
X749300Y317500D03*
X774700Y317500D03*
X800100Y317500D03*
X825500Y317500D03*
X850900Y317500D03*
X546100Y292100D03*
X571500Y292100D03*
X596900Y292100D03*
X622300Y292100D03*
X647700Y292100D03*
X673100Y292100D03*
X698500Y292100D03*
X723900Y292100D03*
X749300Y292100D03*
X774700Y292100D03*
X800100Y292100D03*
X825500Y292100D03*
X850900Y292100D03*
X546100Y266700D03*
X571500Y266700D03*
X596900Y266700D03*
X622300Y266700D03*
X647700Y266700D03*
X673100Y266700D03*
X698500Y266700D03*
X723900Y266700D03*
X749300Y266700D03*
X774700Y266700D03*
X800100Y266700D03*
X825500Y266700D03*
X850900Y266700D03*
X546100Y241300D03*
X571500Y241300D03*
X596900Y241300D03*
X622300Y241300D03*
X647700Y241300D03*
X673100Y241300D03*
X698500Y241300D03*
X723900Y241300D03*
X749300Y241300D03*
X774700Y241300D03*
X800100Y241300D03*
X825500Y241300D03*
X850900Y241300D03*
X546100Y215900D03*
X571500Y215900D03*
X596900Y215900D03*
X622300Y215900D03*
X647700Y215900D03*
X673100Y215900D03*
X698500Y215900D03*
X723900Y215900D03*
X749300Y215900D03*
X774700Y215900D03*
X800100Y215900D03*
X825500Y215900D03*
X850900Y215900D03*
X546100Y190500D03*
X571500Y190500D03*
X596900Y190500D03*
X622300Y190500D03*
X647700Y190500D03*
X673100Y190500D03*
X698500Y190500D03*
X723900Y190500D03*
X749300Y190500D03*
X774700Y190500D03*
X800100Y190500D03*
X825500Y190500D03*
X850900Y190500D03*
X546100Y165100D03*
X571500Y165100D03*
X596900Y165100D03*
X622300Y165100D03*
X647700Y165100D03*
X673100Y165100D03*
X698500Y165100D03*
X723900Y165100D03*
X749300Y165100D03*
X774700Y165100D03*
X800100Y165100D03*
X825500Y165100D03*
X850900Y165100D03*
X546100Y139700D03*
X571500Y139700D03*
X596900Y139700D03*
X622300Y139700D03*
X647700Y139700D03*
X673100Y139700D03*
X698500Y139700D03*
X723900Y139700D03*
X749300Y139700D03*
X774700Y139700D03*
X800100Y139700D03*
X825500Y139700D03*
X850900Y139700D03*
X546100Y114300D03*
X571500Y114300D03*
X596900Y114300D03*
X622300Y114300D03*
X647700Y114300D03*
X673100Y114300D03*
X698500Y114300D03*
X723900Y114300D03*
X749300Y114300D03*
X774700Y114300D03*
X800100Y114300D03*
X825500Y114300D03*
X850900Y114300D03*
X546100Y88900D03*
X571500Y88900D03*
X596900Y88900D03*
X622300Y88900D03*
X647700Y88900D03*
X673100Y88900D03*
X698500Y88900D03*
X723900Y88900D03*
X749300Y88900D03*
X774700Y88900D03*
X800100Y88900D03*
X825500Y88900D03*
X850900Y88900D03*
X546100Y63500D03*
X571500Y63500D03*
X596900Y63500D03*
X622300Y63500D03*
X647700Y63500D03*
X673100Y63500D03*
X698500Y63500D03*
X723900Y63500D03*
X749300Y63500D03*
X774700Y63500D03*
X800100Y63500D03*
X825500Y63500D03*
X850900Y63500D03*
X546100Y38100D03*
X571500Y38100D03*
X596900Y38100D03*
X622300Y38100D03*
X647700Y38100D03*
X673100Y38100D03*
X698500Y38100D03*
X723900Y38100D03*
X749300Y38100D03*
X774700Y38100D03*
X800100Y38100D03*
X825500Y38100D03*
X850900Y38100D03*
D13*
X0Y25400D02*
X97Y23186D01*
X386Y20989D01*
X865Y18826D01*
X1532Y16713D01*
X2380Y14666D01*
X3403Y12700D01*
X4594Y10831D01*
X5942Y9073D01*
X7440Y7440D01*
X9073Y5942D01*
X10831Y4594D01*
X12700Y3403D01*
X14666Y2380D01*
X16713Y1532D01*
X18826Y865D01*
X20989Y386D01*
X23186Y97D01*
X25400Y0D01*
X863600Y0D01*
X865814Y97D01*
X868011Y386D01*
X870174Y865D01*
X872287Y1532D01*
X874335Y2380D01*
X876300Y3403D01*
X878169Y4594D01*
X879927Y5942D01*
X881561Y7440D01*
X883058Y9073D01*
X884406Y10831D01*
X885597Y12700D01*
X886620Y14666D01*
X887468Y16713D01*
X888135Y18826D01*
X888614Y20989D01*
X888903Y23186D01*
X889000Y25400D01*
X889000Y482600D01*
X888903Y484814D01*
X888614Y487011D01*
X888135Y489174D01*
X887468Y491287D01*
X886620Y493335D01*
X885597Y495300D01*
X884406Y497169D01*
X883058Y498927D01*
X881561Y500561D01*
X879927Y502058D01*
X878169Y503406D01*
X876300Y504597D01*
X874335Y505620D01*
X872287Y506468D01*
X870174Y507135D01*
X868011Y507614D01*
X865814Y507903D01*
X863600Y508000D01*
X25400Y508000D01*
X23186Y507903D01*
X20989Y507614D01*
X18826Y507135D01*
X16713Y506468D01*
X14666Y505620D01*
X12700Y504597D01*
X10831Y503406D01*
X9073Y502058D01*
X7440Y500561D01*
X5942Y498927D01*
X4594Y497169D01*
X3403Y495300D01*
X2380Y493335D01*
X1532Y491287D01*
X865Y489174D01*
X386Y487011D01*
X97Y484814D01*
X0Y482600D01*
X0Y25400D01*
M02*
